<?xml version="1.0" encoding="UTF-8" standalone="no"?>
<!DOCTYPE svg PUBLIC "-//W3C//DTD SVG 1.1//EN"
 "http://www.w3.org/Graphics/SVG/1.1/DTD/svg11.dtd">
<!-- Generated by graphviz version 14.1.5 (20260411.2331)
 -->
<!-- Title: TrellisWorkflowSystemContext Pages: 1 -->
<svg width="1082pt" height="684pt"
 viewBox="0.00 0.00 1082.00 684.00" xmlns="http://www.w3.org/2000/svg" xmlns:xlink="http://www.w3.org/1999/xlink">
<g id="graph0" class="graph" transform="scale(1 1) rotate(0) translate(25.2 658.46)">
<title>TrellisWorkflowSystemContext</title>
<polygon fill="#f8fafc" stroke="none" points="-25.2,25.2 -25.2,-658.46 1056.98,-658.46 1056.98,25.2 -25.2,25.2"/>
<text xml:space="preserve" text-anchor="middle" x="515.89" y="-606.46" font-family="Helvetica,sans-Serif" font-weight="bold" font-size="24.00">TRELLIS Workflow System Context</text>
<g id="clust1" class="cluster">
<title>cluster_browser</title>
<path fill="#eff6ff" stroke="#60a5fa" stroke-width="1.8" d="M555.11,-404C555.11,-404 1005.78,-404 1005.78,-404 1011.78,-404 1017.78,-410 1017.78,-416 1017.78,-416 1017.78,-506 1017.78,-506 1017.78,-512 1011.78,-518 1005.78,-518 1005.78,-518 555.11,-518 555.11,-518 549.11,-518 543.11,-512 543.11,-506 543.11,-506 543.11,-416 543.11,-416 543.11,-410 549.11,-404 555.11,-404"/>
<text xml:space="preserve" text-anchor="middle" x="780.44" y="-491.2" font-family="Helvetica,sans-Serif" font-weight="bold" font-size="24.00">Browser Client</text>
</g>
<g id="clust2" class="cluster">
<title>cluster_api</title>
<path fill="#ecfdf5" stroke="#34d399" stroke-width="1.8" d="M228.36,-216C228.36,-216 1011.78,-216 1011.78,-216 1017.78,-216 1023.78,-222 1023.78,-228 1023.78,-228 1023.78,-318 1023.78,-318 1023.78,-324 1017.78,-330 1011.78,-330 1011.78,-330 228.36,-330 228.36,-330 222.36,-330 216.36,-324 216.36,-318 216.36,-318 216.36,-228 216.36,-228 216.36,-222 222.36,-216 228.36,-216"/>
<text xml:space="preserve" text-anchor="middle" x="620.07" y="-303.2" font-family="Helvetica,sans-Serif" font-weight="bold" font-size="24.00">Python API Server</text>
</g>
<g id="clust3" class="cluster">
<title>cluster_trellis</title>
<path fill="#fffbeb" stroke="#f59e0b" stroke-width="1.8" d="M511.75,-8C511.75,-8 707.75,-8 707.75,-8 713.75,-8 719.75,-14 719.75,-20 719.75,-20 719.75,-173 719.75,-173 719.75,-179 713.75,-185 707.75,-185 707.75,-185 511.75,-185 511.75,-185 505.75,-185 499.75,-179 499.75,-173 499.75,-173 499.75,-20 499.75,-20 499.75,-14 505.75,-8 511.75,-8"/>
<text xml:space="preserve" text-anchor="middle" x="609.75" y="-158.2" font-family="Helvetica,sans-Serif" font-weight="bold" font-size="24.00">TRELLIS Runtime</text>
</g>
<g id="clust4" class="cluster">
<title>cluster_storage</title>
<path fill="#f5f3ff" stroke="#a78bfa" stroke-width="1.8" d="M172.25,-31C172.25,-31 369,-31 369,-31 375,-31 381,-37 381,-43 381,-43 381,-196 381,-196 381,-202 375,-208 369,-208 369,-208 172.25,-208 172.25,-208 166.25,-208 160.25,-202 160.25,-196 160.25,-196 160.25,-43 160.25,-43 160.25,-37 166.25,-31 172.25,-31"/>
<text xml:space="preserve" text-anchor="middle" x="270.62" y="-181.2" font-family="Helvetica,sans-Serif" font-weight="bold" font-size="24.00">Local File System</text>
</g>
<!-- user&#45;&gt;react -->
<g id="edge1" class="edge">
<title>user&#45;&gt;react</title>
<path fill="none" stroke="#475569" stroke-width="1.35" d="M338.52,-564.28C403.4,-547.23 491.75,-524 491.75,-524 491.75,-524 532.04,-501.52 565.23,-483"/>
<polygon fill="#475569" stroke="#475569" stroke-width="1.35" points="566.52,-485.49 572.14,-479.15 563.79,-480.6 566.52,-485.49"/>
<text xml:space="preserve" text-anchor="middle" x="440.38" y="-551.28" font-family="Helvetica,sans-Serif" font-size="10.00">configure + run steps</text>
</g>
<!-- react&#45;&gt;panels -->
<g id="edge2" class="edge">
<title>react&#45;&gt;panels</title>
<path fill="none" stroke="#475569" stroke-width="1.35" d="M667.73,-459C722.78,-459 806.17,-459 866.63,-459"/>
<polygon fill="#475569" stroke="#475569" stroke-width="1.35" points="866.46,-461.8 874.46,-459 866.46,-456.2 866.46,-461.8"/>
<text xml:space="preserve" text-anchor="middle" x="778.38" y="-460.75" font-family="Helvetica,sans-Serif" font-size="10.00">render state</text>
</g>
<!-- react&#45;&gt;fastapi -->
<g id="edge3" class="edge">
<title>react&#45;&gt;fastapi</title>
<path fill="none" stroke="#2563eb" stroke-width="1.35" d="M550.64,-454.53C485.68,-449.5 389,-442 389,-442 389,-442 323.04,-346.31 289.8,-298.09"/>
<polygon fill="#2563eb" stroke="#2563eb" stroke-width="1.35" points="292.2,-296.63 285.35,-291.64 287.58,-299.81 292.2,-296.63"/>
<text xml:space="preserve" text-anchor="middle" x="440.38" y="-462.48" font-family="Helvetica,sans-Serif" font-size="10.00">HTTP JSON</text>
<text xml:space="preserve" text-anchor="middle" x="440.38" y="-451.23" font-family="Helvetica,sans-Serif" font-size="10.00">/api requests</text>
</g>
<!-- fastapi&#45;&gt;react -->
<g id="edge4" class="edge">
<title>fastapi&#45;&gt;react</title>
<path fill="none" stroke="#2563eb" stroke-width="1.35" d="M296.41,-290.09C331.05,-316.24 389,-360 389,-360 389,-360 492.04,-406.53 556.84,-435.79"/>
<polygon fill="#2563eb" stroke="#2563eb" stroke-width="1.35" points="555.41,-438.21 563.85,-438.95 557.72,-433.11 555.41,-438.21"/>
<text xml:space="preserve" text-anchor="middle" x="440.38" y="-416.57" font-family="Helvetica,sans-Serif" font-size="10.00">WorkflowState</text>
<text xml:space="preserve" text-anchor="middle" x="440.38" y="-405.32" font-family="Helvetica,sans-Serif" font-size="10.00">logs + artifacts</text>
</g>
<!-- fastapi&#45;&gt;react -->
<g id="edge13" class="edge">
<title>fastapi&#45;&gt;react</title>
<path fill="none" stroke="#7c3aed" stroke-width="1.35" d="M316.57,-286.6C381.16,-308.78 491.75,-346.75 491.75,-346.75 491.75,-346.75 547.1,-400.08 581.49,-433.22"/>
<polygon fill="#7c3aed" stroke="#7c3aed" stroke-width="1.35" points="579.31,-435.01 587.02,-438.54 583.2,-430.97 579.31,-435.01"/>
<text xml:space="preserve" text-anchor="middle" x="440.38" y="-348.5" font-family="Helvetica,sans-Serif" font-size="10.00">artifact URLs</text>
</g>
<!-- fastapi&#45;&gt;runner -->
<g id="edge5" class="edge">
<title>fastapi&#45;&gt;runner</title>
<path fill="none" stroke="#475569" stroke-width="1.35" d="M316.24,-271C369.66,-271 459.69,-271 525.69,-271"/>
<polygon fill="#475569" stroke="#475569" stroke-width="1.35" points="525.61,-273.8 533.61,-271 525.61,-268.2 525.61,-273.8"/>
<text xml:space="preserve" text-anchor="middle" x="440.38" y="-272.75" font-family="Helvetica,sans-Serif" font-size="10.00">route commands</text>
</g>
<!-- runner&#45;&gt;context -->
<g id="edge6" class="edge">
<title>runner&#45;&gt;context</title>
<path fill="none" stroke="#475569" stroke-width="1.35" d="M682.73,-267.94C735.11,-265.74 805.93,-262.75 860.38,-260.46"/>
<polygon fill="#475569" stroke="#475569" stroke-width="1.35" points="860.43,-263.26 868.31,-260.12 860.2,-257.66 860.43,-263.26"/>
<text xml:space="preserve" text-anchor="middle" x="778.38" y="-267.42" font-family="Helvetica,sans-Serif" font-size="10.00">store session runtime</text>
</g>
<!-- runner&#45;&gt;pipeline -->
<g id="edge7" class="edge">
<title>runner&#45;&gt;pipeline</title>
<path fill="none" stroke="#d97706" stroke-width="1.35" d="M580.48,-251.82C548.04,-230.19 499.75,-198 499.75,-198 499.75,-198 423.35,-133.62 423.35,-133.62 423.35,-133.62 423.35,-122.38 423.35,-122.38 423.35,-122.38 499.75,-80 499.75,-80 499.75,-80 526.56,-68.98 553.65,-57.85"/>
<polygon fill="#d97706" stroke="#d97706" stroke-width="1.35" points="554.59,-60.49 560.92,-54.86 552.46,-55.31 554.59,-60.49"/>
<text xml:space="preserve" text-anchor="middle" x="440.38" y="-124.12" font-family="Helvetica,sans-Serif" font-size="10.00">invoke step handlers</text>
</g>
<!-- runner&#45;&gt;exporter -->
<g id="edge9" class="edge">
<title>runner&#45;&gt;exporter</title>
<path fill="none" stroke="#f59e0b" stroke-width="1.35" d="M609.25,-252.04C609.25,-227.29 609.25,-183.73 609.25,-154.86"/>
<polygon fill="#f59e0b" stroke="#f59e0b" stroke-width="1.35" points="612.05,-155 609.25,-147 606.45,-155 612.05,-155"/>
<text xml:space="preserve" text-anchor="middle" x="600.62" y="-194.62" font-family="Helvetica,sans-Serif" font-size="10.00">export_model step</text>
</g>
<!-- pipeline&#45;&gt;context -->
<g id="edge8" class="edge">
<title>pipeline&#45;&gt;context</title>
<path fill="none" stroke="#475569" stroke-width="1.35" d="M656.69,-54.08C686.53,-66.35 719.75,-80 719.75,-80 719.75,-80 849.24,-182.95 910.71,-231.82"/>
<polygon fill="#475569" stroke="#475569" stroke-width="1.35" points="908.96,-234 916.96,-236.79 912.44,-229.62 908.96,-234"/>
<text xml:space="preserve" text-anchor="middle" x="778.38" y="-164.94" font-family="Helvetica,sans-Serif" font-size="10.00">pipeline, tensors, mesh</text>
</g>
<!-- exporter&#45;&gt;outputs -->
<g id="edge11" class="edge">
<title>exporter&#45;&gt;outputs</title>
<path fill="none" stroke="#7c3aed" stroke-width="1.35" d="M534.8,-108.19C511.54,-102.55 491.75,-97.75 491.75,-97.75 491.75,-97.75 409.58,-82.95 345.54,-71.41"/>
<polygon fill="#7c3aed" stroke="#7c3aed" stroke-width="1.35" points="346.21,-68.68 337.84,-70.02 345.22,-74.19 346.21,-68.68"/>
<text xml:space="preserve" text-anchor="middle" x="440.38" y="-99.5" font-family="Helvetica,sans-Serif" font-size="10.00">write GLB / OBJ / PNG</text>
</g>
<!-- images&#45;&gt;runner -->
<g id="edge10" class="edge">
<title>images&#45;&gt;runner</title>
<path fill="none" stroke="#475569" stroke-width="1.35" d="M324.17,-168.2C384.35,-189.97 482.38,-225.45 546.09,-248.51"/>
<polygon fill="#475569" stroke="#475569" stroke-width="1.35" points="544.84,-251.03 553.31,-251.12 546.74,-245.76 544.84,-251.03"/>
<text xml:space="preserve" text-anchor="middle" x="440.38" y="-229.81" font-family="Helvetica,sans-Serif" font-size="10.00">load_image</text>
</g>
<!-- outputs&#45;&gt;fastapi -->
<g id="edge12" class="edge">
<title>outputs&#45;&gt;fastapi</title>
<path fill="none" stroke="#475569" stroke-width="1.35" d="M223.53,-77.08C193.58,-89.35 160.25,-103 160.25,-103 160.25,-103 94.04,-158.38 94.04,-158.38 94.04,-158.38 94.04,-169.62 94.04,-169.62 94.04,-169.62 160.25,-221 160.25,-221 160.25,-221 190.41,-234.72 219.13,-247.79"/>
<polygon fill="#475569" stroke="#475569" stroke-width="1.35" points="217.66,-250.2 226.1,-250.97 219.98,-245.1 217.66,-250.2"/>
<text xml:space="preserve" text-anchor="middle" x="109.88" y="-160.12" font-family="Helvetica,sans-Serif" font-size="10.00">StaticFiles /outputs</text>
</g>
<!-- user -->
<g id="node1" class="node">
<title>user</title>
<path fill="#dbeafe" stroke="#2563eb" stroke-width="1.4" d="M326.01,-600.51C326.01,-600.51 214.24,-600.51 214.24,-600.51 208.24,-600.51 202.24,-594.51 202.24,-588.51 202.24,-588.51 202.24,-575.49 202.24,-575.49 202.24,-569.49 208.24,-563.49 214.24,-563.49 214.24,-563.49 326.01,-563.49 326.01,-563.49 332.01,-563.49 338.01,-569.49 338.01,-575.49 338.01,-575.49 338.01,-588.51 338.01,-588.51 338.01,-594.51 332.01,-600.51 326.01,-600.51"/>
<text xml:space="preserve" text-anchor="middle" x="270.12" y="-583.35" font-family="Helvetica,sans-Serif" font-size="12.00">User</text>
<text xml:space="preserve" text-anchor="middle" x="270.12" y="-570.6" font-family="Helvetica,sans-Serif" font-size="12.00">ML / graphics operator</text>
</g>
<!-- react -->
<g id="node2" class="node">
<title>react</title>
<path fill="#bfdbfe" stroke="#2563eb" stroke-width="1.4" d="M655.39,-477.51C655.39,-477.51 563.11,-477.51 563.11,-477.51 557.11,-477.51 551.11,-471.51 551.11,-465.51 551.11,-465.51 551.11,-452.49 551.11,-452.49 551.11,-446.49 557.11,-440.49 563.11,-440.49 563.11,-440.49 655.39,-440.49 655.39,-440.49 661.39,-440.49 667.39,-446.49 667.39,-452.49 667.39,-452.49 667.39,-465.51 667.39,-465.51 667.39,-471.51 661.39,-477.51 655.39,-477.51"/>
<text xml:space="preserve" text-anchor="middle" x="609.25" y="-460.35" font-family="Helvetica,sans-Serif" font-size="12.00">React Workflow UI</text>
<text xml:space="preserve" text-anchor="middle" x="609.25" y="-447.6" font-family="Helvetica,sans-Serif" font-size="12.00">Vite app on :5173</text>
</g>
<!-- panels -->
<g id="node3" class="node">
<title>panels</title>
<path fill="#dbeafe" stroke="#3b82f6" stroke-width="1.4" d="M997.78,-477.51C997.78,-477.51 889,-477.51 889,-477.51 883,-477.51 877,-471.51 877,-465.51 877,-465.51 877,-452.49 877,-452.49 877,-446.49 883,-440.49 889,-440.49 889,-440.49 997.78,-440.49 997.78,-440.49 1003.78,-440.49 1009.78,-446.49 1009.78,-452.49 1009.78,-452.49 1009.78,-465.51 1009.78,-465.51 1009.78,-471.51 1003.78,-477.51 997.78,-477.51"/>
<text xml:space="preserve" text-anchor="middle" x="943.39" y="-460.35" font-family="Helvetica,sans-Serif" font-size="12.00">Parameter, Step, Log,</text>
<text xml:space="preserve" text-anchor="middle" x="943.39" y="-447.6" font-family="Helvetica,sans-Serif" font-size="12.00">Artifact Panels</text>
</g>
<!-- fastapi -->
<g id="node4" class="node">
<title>fastapi</title>
<path fill="#bbf7d0" stroke="#059669" stroke-width="1.4" d="M303.89,-289.51C303.89,-289.51 236.36,-289.51 236.36,-289.51 230.36,-289.51 224.36,-283.51 224.36,-277.51 224.36,-277.51 224.36,-264.49 224.36,-264.49 224.36,-258.49 230.36,-252.49 236.36,-252.49 236.36,-252.49 303.89,-252.49 303.89,-252.49 309.89,-252.49 315.89,-258.49 315.89,-264.49 315.89,-264.49 315.89,-277.51 315.89,-277.51 315.89,-283.51 309.89,-289.51 303.89,-289.51"/>
<text xml:space="preserve" text-anchor="middle" x="270.12" y="-272.35" font-family="Helvetica,sans-Serif" font-size="12.00">FastAPI App</text>
<text xml:space="preserve" text-anchor="middle" x="270.12" y="-259.6" font-family="Helvetica,sans-Serif" font-size="12.00">/api + /outputs</text>
</g>
<!-- runner -->
<g id="node5" class="node">
<title>runner</title>
<path fill="#dcfce7" stroke="#16a34a" stroke-width="1.4" d="M670.39,-289.51C670.39,-289.51 548.11,-289.51 548.11,-289.51 542.11,-289.51 536.11,-283.51 536.11,-277.51 536.11,-277.51 536.11,-264.49 536.11,-264.49 536.11,-258.49 542.11,-252.49 548.11,-252.49 548.11,-252.49 670.39,-252.49 670.39,-252.49 676.39,-252.49 682.39,-258.49 682.39,-264.49 682.39,-264.49 682.39,-277.51 682.39,-277.51 682.39,-283.51 676.39,-289.51 670.39,-289.51"/>
<text xml:space="preserve" text-anchor="middle" x="609.25" y="-272.35" font-family="Helvetica,sans-Serif" font-size="12.00">WorkflowRunner</text>
<text xml:space="preserve" text-anchor="middle" x="609.25" y="-259.6" font-family="Helvetica,sans-Serif" font-size="12.00">state + execution control</text>
</g>
<!-- context -->
<g id="node6" class="node">
<title>context</title>
<path fill="#d1fae5" stroke="#10b981" stroke-width="1.4" d="M1003.78,-275.51C1003.78,-275.51 883,-275.51 883,-275.51 877,-275.51 871,-269.51 871,-263.51 871,-263.51 871,-250.49 871,-250.49 871,-244.49 877,-238.49 883,-238.49 883,-238.49 1003.78,-238.49 1003.78,-238.49 1009.78,-238.49 1015.78,-244.49 1015.78,-250.49 1015.78,-250.49 1015.78,-263.51 1015.78,-263.51 1015.78,-269.51 1009.78,-275.51 1003.78,-275.51"/>
<text xml:space="preserve" text-anchor="middle" x="943.39" y="-258.35" font-family="Helvetica,sans-Serif" font-size="12.00">RuntimeContext</text>
<text xml:space="preserve" text-anchor="middle" x="943.39" y="-245.6" font-family="Helvetica,sans-Serif" font-size="12.00">non&#45;serializable tensors</text>
</g>
<!-- pipeline -->
<g id="node7" class="node">
<title>pipeline</title>
<path fill="#fde68a" stroke="#d97706" stroke-width="1.4" d="M666.26,-53.51C666.26,-53.51 552.24,-53.51 552.24,-53.51 546.24,-53.51 540.24,-47.51 540.24,-41.51 540.24,-41.51 540.24,-28.49 540.24,-28.49 540.24,-22.49 546.24,-16.49 552.24,-16.49 552.24,-16.49 666.26,-16.49 666.26,-16.49 672.26,-16.49 678.26,-22.49 678.26,-28.49 678.26,-28.49 678.26,-41.51 678.26,-41.51 678.26,-47.51 672.26,-53.51 666.26,-53.51"/>
<text xml:space="preserve" text-anchor="middle" x="609.25" y="-36.35" font-family="Helvetica,sans-Serif" font-size="12.00">TRELLIS.2 Pipeline</text>
<text xml:space="preserve" text-anchor="middle" x="609.25" y="-23.6" font-family="Helvetica,sans-Serif" font-size="12.00">model load + sampling</text>
</g>
<!-- exporter -->
<g id="node8" class="node">
<title>exporter</title>
<path fill="#fef3c7" stroke="#f59e0b" stroke-width="1.4" d="M671.14,-144.51C671.14,-144.51 547.36,-144.51 547.36,-144.51 541.36,-144.51 535.36,-138.51 535.36,-132.51 535.36,-132.51 535.36,-119.49 535.36,-119.49 535.36,-113.49 541.36,-107.49 547.36,-107.49 547.36,-107.49 671.14,-107.49 671.14,-107.49 677.14,-107.49 683.14,-113.49 683.14,-119.49 683.14,-119.49 683.14,-132.51 683.14,-132.51 683.14,-138.51 677.14,-144.51 671.14,-144.51"/>
<text xml:space="preserve" text-anchor="middle" x="609.25" y="-127.35" font-family="Helvetica,sans-Serif" font-size="12.00">Exporter</text>
<text xml:space="preserve" text-anchor="middle" x="609.25" y="-114.6" font-family="Helvetica,sans-Serif" font-size="12.00">GLB / OBJ / texture bake</text>
</g>
<!-- images -->
<g id="node9" class="node">
<title>images</title>
<path fill="#ede9fe" stroke="#7c3aed" stroke-width="1.4" d="M319.26,-167.51C319.26,-167.51 220.99,-167.51 220.99,-167.51 214.99,-167.51 208.99,-161.51 208.99,-155.51 208.99,-155.51 208.99,-142.49 208.99,-142.49 208.99,-136.49 214.99,-130.49 220.99,-130.49 220.99,-130.49 319.26,-130.49 319.26,-130.49 325.26,-130.49 331.26,-136.49 331.26,-142.49 331.26,-142.49 331.26,-155.51 331.26,-155.51 331.26,-161.51 325.26,-167.51 319.26,-167.51"/>
<text xml:space="preserve" text-anchor="middle" x="270.12" y="-150.35" font-family="Helvetica,sans-Serif" font-size="12.00">Input Images</text>
<text xml:space="preserve" text-anchor="middle" x="270.12" y="-137.6" font-family="Helvetica,sans-Serif" font-size="12.00">assets/*.png or path</text>
</g>
<!-- outputs -->
<g id="node10" class="node">
<title>outputs</title>
<path fill="#ddd6fe" stroke="#8b5cf6" stroke-width="1.4" d="M323.39,-76.51C323.39,-76.51 216.86,-76.51 216.86,-76.51 210.86,-76.51 204.86,-70.51 204.86,-64.51 204.86,-64.51 204.86,-51.49 204.86,-51.49 204.86,-45.49 210.86,-39.49 216.86,-39.49 216.86,-39.49 323.39,-39.49 323.39,-39.49 329.39,-39.49 335.39,-45.49 335.39,-51.49 335.39,-51.49 335.39,-64.51 335.39,-64.51 335.39,-70.51 329.39,-76.51 323.39,-76.51"/>
<text xml:space="preserve" text-anchor="middle" x="270.12" y="-59.35" font-family="Helvetica,sans-Serif" font-size="12.00">Generated Artifacts</text>
<text xml:space="preserve" text-anchor="middle" x="270.12" y="-46.6" font-family="Helvetica,sans-Serif" font-size="12.00">outputs/&lt;session&#45;id&gt;/</text>
</g>
</g>
</svg>
