<?xml version="1.0" encoding="UTF-8" standalone="no"?>
<!DOCTYPE svg PUBLIC "-//W3C//DTD SVG 1.1//EN"
 "http://www.w3.org/Graphics/SVG/1.1/DTD/svg11.dtd">
<!-- Generated by graphviz version 14.1.5 (20260411.2331)
 -->
<!-- Title: FrontendComponentArchitecture Pages: 1 -->
<svg width="1547pt" height="625pt"
 viewBox="0.00 0.00 1547.00 625.00" xmlns="http://www.w3.org/2000/svg" xmlns:xlink="http://www.w3.org/1999/xlink">
<g id="graph0" class="graph" transform="scale(1 1) rotate(0) translate(25.2 600.2)">
<title>FrontendComponentArchitecture</title>
<polygon fill="#f8fafc" stroke="none" points="-25.2,25.2 -25.2,-600.2 1521.45,-600.2 1521.45,25.2 -25.2,25.2"/>
<text xml:space="preserve" text-anchor="middle" x="748.12" y="-548.2" font-family="Helvetica,sans-Serif" font-weight="bold" font-size="24.00">React Frontend Component Architecture</text>
<g id="clust1" class="cluster">
<title>cluster_shell</title>
<path fill="#f0f9ff" stroke="#38bdf8" d="M20,-167.75C20,-167.75 245,-167.75 245,-167.75 251,-167.75 257,-173.75 257,-179.75 257,-179.75 257,-433 257,-433 257,-439 251,-445 245,-445 245,-445 20,-445 20,-445 14,-445 8,-439 8,-433 8,-433 8,-179.75 8,-179.75 8,-173.75 14,-167.75 20,-167.75"/>
<text xml:space="preserve" text-anchor="middle" x="132.5" y="-418.2" font-family="Helvetica,sans-Serif" font-weight="bold" font-size="24.00">App Shell</text>
</g>
<g id="clust2" class="cluster">
<title>cluster_data</title>
<path fill="#f0fdf4" stroke="#22c55e" d="M488,-327.5C488,-327.5 1108,-327.5 1108,-327.5 1114,-327.5 1120,-333.5 1120,-339.5 1120,-339.5 1120,-433 1120,-433 1120,-439 1114,-445 1108,-445 1108,-445 488,-445 488,-445 482,-445 476,-439 476,-433 476,-433 476,-339.5 476,-339.5 476,-333.5 482,-327.5 488,-327.5"/>
<text xml:space="preserve" text-anchor="middle" x="798" y="-418.2" font-family="Helvetica,sans-Serif" font-weight="bold" font-size="24.00">Data and API</text>
</g>
<g id="clust3" class="cluster">
<title>cluster_panels</title>
<path fill="#f5f3ff" stroke="#a78bfa" d="M293,-167.75C293,-167.75 1282,-167.75 1282,-167.75 1288,-167.75 1294,-173.75 1294,-179.75 1294,-179.75 1294,-273.25 1294,-273.25 1294,-279.25 1288,-285.25 1282,-285.25 1282,-285.25 293,-285.25 293,-285.25 287,-285.25 281,-279.25 281,-273.25 281,-273.25 281,-179.75 281,-179.75 281,-173.75 287,-167.75 293,-167.75"/>
<text xml:space="preserve" text-anchor="middle" x="787.5" y="-258.45" font-family="Helvetica,sans-Serif" font-weight="bold" font-size="24.00">Workspace Panels</text>
</g>
<g id="clust4" class="cluster">
<title>cluster_backend</title>
<path fill="#fff7ed" stroke="#fb923c" d="M1137,-8C1137,-8 1457,-8 1457,-8 1463,-8 1469,-14 1469,-20 1469,-20 1469,-113.5 1469,-113.5 1469,-119.5 1463,-125.5 1457,-125.5 1457,-125.5 1137,-125.5 1137,-125.5 1131,-125.5 1125,-119.5 1125,-113.5 1125,-113.5 1125,-20 1125,-20 1125,-14 1131,-8 1137,-8"/>
<text xml:space="preserve" text-anchor="middle" x="1297" y="-98.7" font-family="Helvetica,sans-Serif" font-weight="bold" font-size="24.00">Backend API</text>
</g>
<!-- app -->
<g id="node1" class="node">
<title>app</title>
<path fill="#bae6fd" stroke="#0284c7" stroke-width="1.3" d="M236.75,-371.5C236.75,-371.5 147.25,-371.5 147.25,-371.5 141.25,-371.5 135.25,-365.5 135.25,-359.5 135.25,-359.5 135.25,-347.5 135.25,-347.5 135.25,-341.5 141.25,-335.5 147.25,-335.5 147.25,-335.5 236.75,-335.5 236.75,-335.5 242.75,-335.5 248.75,-341.5 248.75,-347.5 248.75,-347.5 248.75,-359.5 248.75,-359.5 248.75,-365.5 242.75,-371.5 236.75,-371.5"/>
<text xml:space="preserve" text-anchor="middle" x="192" y="-354.85" font-family="Helvetica,sans-Serif" font-size="12.00">App.tsx</text>
<text xml:space="preserve" text-anchor="middle" x="192" y="-342.1" font-family="Helvetica,sans-Serif" font-size="12.00">state orchestration</text>
</g>
<!-- topbar -->
<g id="node2" class="node">
<title>topbar</title>
<path fill="#e0f2fe" stroke="#0ea5e9" stroke-width="1.3" d="M237.38,-211.75C237.38,-211.75 178.62,-211.75 178.62,-211.75 172.62,-211.75 166.62,-205.75 166.62,-199.75 166.62,-199.75 166.62,-187.75 166.62,-187.75 166.62,-181.75 172.62,-175.75 178.62,-175.75 178.62,-175.75 237.38,-175.75 237.38,-175.75 243.38,-175.75 249.38,-181.75 249.38,-187.75 249.38,-187.75 249.38,-199.75 249.38,-199.75 249.38,-205.75 243.38,-211.75 237.38,-211.75"/>
<text xml:space="preserve" text-anchor="middle" x="208" y="-195.1" font-family="Helvetica,sans-Serif" font-size="12.00">Topbar</text>
<text xml:space="preserve" text-anchor="middle" x="208" y="-182.35" font-family="Helvetica,sans-Serif" font-size="12.00">session chip</text>
</g>
<!-- app&#45;&gt;topbar -->
<g id="edge1" class="edge">
<title>app&#45;&gt;topbar</title>
<path fill="none" stroke="#475569" stroke-width="1.25" d="M193.77,-335.02C196.56,-307.54 201.99,-254.04 205.27,-221.64"/>
<polygon fill="#475569" stroke="#475569" stroke-width="1.25" points="207.88,-221.92 206.03,-214.2 202.66,-221.39 207.88,-221.92"/>
<text xml:space="preserve" text-anchor="middle" x="219.76" y="-295" font-family="Helvetica,sans-Serif" font-size="10.00">session id</text>
</g>
<!-- commandbar -->
<g id="node3" class="node">
<title>commandbar</title>
<path fill="#e0f2fe" stroke="#0ea5e9" stroke-width="1.3" d="M114.25,-211.75C114.25,-211.75 27.75,-211.75 27.75,-211.75 21.75,-211.75 15.75,-205.75 15.75,-199.75 15.75,-199.75 15.75,-187.75 15.75,-187.75 15.75,-181.75 21.75,-175.75 27.75,-175.75 27.75,-175.75 114.25,-175.75 114.25,-175.75 120.25,-175.75 126.25,-181.75 126.25,-187.75 126.25,-187.75 126.25,-199.75 126.25,-199.75 126.25,-205.75 120.25,-211.75 114.25,-211.75"/>
<text xml:space="preserve" text-anchor="middle" x="71" y="-195.1" font-family="Helvetica,sans-Serif" font-size="12.00">Command Bar</text>
<text xml:space="preserve" text-anchor="middle" x="71" y="-182.35" font-family="Helvetica,sans-Serif" font-size="12.00">create / run / reset</text>
</g>
<!-- app&#45;&gt;commandbar -->
<g id="edge2" class="edge">
<title>app&#45;&gt;commandbar</title>
<path fill="none" stroke="#475569" stroke-width="1.25" d="M163.22,-334.9C140.81,-321.2 113.5,-304.5 113.5,-304.5 113.5,-304.5 93.73,-253.46 81.16,-220.99"/>
<polygon fill="#475569" stroke="#475569" stroke-width="1.25" points="83.67,-220.19 78.51,-214.15 78.77,-222.09 83.67,-220.19"/>
<text xml:space="preserve" text-anchor="middle" x="150.25" y="-295" font-family="Helvetica,sans-Serif" font-size="10.00">busy + next step</text>
</g>
<!-- api -->
<g id="node4" class="node">
<title>api</title>
<path fill="#bbf7d0" stroke="#16a34a" stroke-width="1.3" d="M1100,-371.5C1100,-371.5 1036,-371.5 1036,-371.5 1030,-371.5 1024,-365.5 1024,-359.5 1024,-359.5 1024,-347.5 1024,-347.5 1024,-341.5 1030,-335.5 1036,-335.5 1036,-335.5 1100,-335.5 1100,-335.5 1106,-335.5 1112,-341.5 1112,-347.5 1112,-347.5 1112,-359.5 1112,-359.5 1112,-365.5 1106,-371.5 1100,-371.5"/>
<text xml:space="preserve" text-anchor="middle" x="1068" y="-354.85" font-family="Helvetica,sans-Serif" font-size="12.00">workflowApi</text>
<text xml:space="preserve" text-anchor="middle" x="1068" y="-342.1" font-family="Helvetica,sans-Serif" font-size="12.00">fetch wrapper</text>
</g>
<!-- app&#45;&gt;api -->
<g id="edge9" class="edge">
<title>app&#45;&gt;api</title>
<path fill="none" stroke="#16a34a" stroke-width="1.25" d="M226.33,-371.95C286.05,-404.04 402.75,-466.75 402.75,-466.75 402.75,-466.75 467.25,-466.75 467.25,-466.75 467.25,-466.75 1004,-445 1004,-445 1004,-445 1030.8,-406.69 1049.71,-379.65"/>
<polygon fill="#16a34a" stroke="#16a34a" stroke-width="1.25" points="1051.82,-381.22 1053.96,-373.57 1047.51,-378.21 1051.82,-381.22"/>
<text xml:space="preserve" text-anchor="middle" x="435" y="-488.5" font-family="Helvetica,sans-Serif" font-size="10.00">load definition</text>
<text xml:space="preserve" text-anchor="middle" x="435" y="-477.25" font-family="Helvetica,sans-Serif" font-size="10.00">create session</text>
<text xml:space="preserve" text-anchor="middle" x="435" y="-466" font-family="Helvetica,sans-Serif" font-size="10.00">run commands</text>
<text xml:space="preserve" text-anchor="middle" x="435" y="-454.75" font-family="Helvetica,sans-Serif" font-size="10.00">poll state</text>
</g>
<!-- params -->
<g id="node8" class="node">
<title>params</title>
<path fill="#ddd6fe" stroke="#7c3aed" stroke-width="1.3" d="M424.62,-211.75C424.62,-211.75 301.38,-211.75 301.38,-211.75 295.38,-211.75 289.38,-205.75 289.38,-199.75 289.38,-199.75 289.38,-187.75 289.38,-187.75 289.38,-181.75 295.38,-175.75 301.38,-175.75 301.38,-175.75 424.62,-175.75 424.62,-175.75 430.62,-175.75 436.62,-181.75 436.62,-187.75 436.62,-187.75 436.62,-199.75 436.62,-199.75 436.62,-205.75 430.62,-211.75 424.62,-211.75"/>
<text xml:space="preserve" text-anchor="middle" x="363" y="-195.1" font-family="Helvetica,sans-Serif" font-size="12.00">ParameterPanel</text>
<text xml:space="preserve" text-anchor="middle" x="363" y="-182.35" font-family="Helvetica,sans-Serif" font-size="12.00">metadata&#45;driven controls</text>
</g>
<!-- app&#45;&gt;params -->
<g id="edge3" class="edge">
<title>app&#45;&gt;params</title>
<path fill="none" stroke="#475569" stroke-width="1.25" d="M214,-334.9C231.13,-321.2 252,-304.5 252,-304.5 252,-304.5 305.85,-251.25 338.54,-218.93"/>
<polygon fill="#475569" stroke="#475569" stroke-width="1.25" points="340.33,-220.85 343.82,-213.71 336.64,-217.12 340.33,-220.85"/>
<text xml:space="preserve" text-anchor="middle" x="300.12" y="-295" font-family="Helvetica,sans-Serif" font-size="10.00">definition + config</text>
</g>
<!-- steps -->
<g id="node9" class="node">
<title>steps</title>
<path fill="#ede9fe" stroke="#8b5cf6" stroke-width="1.3" d="M945.5,-211.75C945.5,-211.75 824.5,-211.75 824.5,-211.75 818.5,-211.75 812.5,-205.75 812.5,-199.75 812.5,-199.75 812.5,-187.75 812.5,-187.75 812.5,-181.75 818.5,-175.75 824.5,-175.75 824.5,-175.75 945.5,-175.75 945.5,-175.75 951.5,-175.75 957.5,-181.75 957.5,-187.75 957.5,-187.75 957.5,-199.75 957.5,-199.75 957.5,-205.75 951.5,-211.75 945.5,-211.75"/>
<text xml:space="preserve" text-anchor="middle" x="885" y="-195.1" font-family="Helvetica,sans-Serif" font-size="12.00">StepList</text>
<text xml:space="preserve" text-anchor="middle" x="885" y="-182.35" font-family="Helvetica,sans-Serif" font-size="12.00">step status + run buttons</text>
</g>
<!-- app&#45;&gt;steps -->
<g id="edge4" class="edge">
<title>app&#45;&gt;steps</title>
<path fill="none" stroke="#475569" stroke-width="1.25" d="M249.01,-345.57C358.4,-332.28 587,-304.5 587,-304.5 587,-304.5 628.75,-293.25 628.75,-293.25 628.75,-293.25 792,-285.25 792,-285.25 792,-285.25 832.83,-245.52 860.38,-218.71"/>
<polygon fill="#475569" stroke="#475569" stroke-width="1.25" points="862.17,-220.63 865.71,-213.52 858.51,-216.87 862.17,-220.63"/>
<text xml:space="preserve" text-anchor="middle" x="670.38" y="-295" font-family="Helvetica,sans-Serif" font-size="10.00">steps + selected id</text>
</g>
<!-- details -->
<g id="node10" class="node">
<title>details</title>
<path fill="#ede9fe" stroke="#8b5cf6" stroke-width="1.3" d="M597.5,-211.75C597.5,-211.75 488.5,-211.75 488.5,-211.75 482.5,-211.75 476.5,-205.75 476.5,-199.75 476.5,-199.75 476.5,-187.75 476.5,-187.75 476.5,-181.75 482.5,-175.75 488.5,-175.75 488.5,-175.75 597.5,-175.75 597.5,-175.75 603.5,-175.75 609.5,-181.75 609.5,-187.75 609.5,-187.75 609.5,-199.75 609.5,-199.75 609.5,-205.75 603.5,-211.75 597.5,-211.75"/>
<text xml:space="preserve" text-anchor="middle" x="543" y="-195.1" font-family="Helvetica,sans-Serif" font-size="12.00">StepDetails</text>
<text xml:space="preserve" text-anchor="middle" x="543" y="-182.35" font-family="Helvetica,sans-Serif" font-size="12.00">metrics + error display</text>
</g>
<!-- app&#45;&gt;details -->
<g id="edge5" class="edge">
<title>app&#45;&gt;details</title>
<path fill="none" stroke="#475569" stroke-width="1.25" d="M249.17,-337.99C327.08,-318.22 457,-285.25 457,-285.25 457,-285.25 494.76,-245.52 520.24,-218.71"/>
<polygon fill="#475569" stroke="#475569" stroke-width="1.25" points="521.85,-220.82 525.12,-213.57 518.05,-217.2 521.85,-220.82"/>
<text xml:space="preserve" text-anchor="middle" x="453.42" y="-295" font-family="Helvetica,sans-Serif" font-size="10.00">selected step</text>
</g>
<!-- preview -->
<g id="node11" class="node">
<title>preview</title>
<path fill="#ddd6fe" stroke="#7c3aed" stroke-width="1.3" d="M1273.62,-211.75C1273.62,-211.75 1150.38,-211.75 1150.38,-211.75 1144.38,-211.75 1138.38,-205.75 1138.38,-199.75 1138.38,-199.75 1138.38,-187.75 1138.38,-187.75 1138.38,-181.75 1144.38,-175.75 1150.38,-175.75 1150.38,-175.75 1273.62,-175.75 1273.62,-175.75 1279.62,-175.75 1285.62,-181.75 1285.62,-187.75 1285.62,-187.75 1285.62,-199.75 1285.62,-199.75 1285.62,-205.75 1279.62,-211.75 1273.62,-211.75"/>
<text xml:space="preserve" text-anchor="middle" x="1212" y="-195.1" font-family="Helvetica,sans-Serif" font-size="12.00">ModelPreview</text>
<text xml:space="preserve" text-anchor="middle" x="1212" y="-182.35" font-family="Helvetica,sans-Serif" font-size="12.00">GLB / OBJ in&#45;app viewer</text>
</g>
<!-- app&#45;&gt;preview -->
<g id="edge6" class="edge">
<title>app&#45;&gt;preview</title>
<path fill="none" stroke="#475569" stroke-width="1.25" d="M249.11,-347.29C329.41,-339.96 466,-327.5 466,-327.5 466,-327.5 1020,-304.5 1020,-304.5 1020,-304.5 1068.5,-293.25 1068.5,-293.25 1068.5,-293.25 1118,-285.25 1118,-285.25 1118,-285.25 1159.27,-245.52 1187.12,-218.71"/>
<polygon fill="#475569" stroke="#475569" stroke-width="1.25" points="1188.93,-220.6 1192.51,-213.51 1185.29,-216.82 1188.93,-220.6"/>
<text xml:space="preserve" text-anchor="middle" x="1100.75" y="-295" font-family="Helvetica,sans-Serif" font-size="10.00">model artifacts</text>
</g>
<!-- artifacts -->
<g id="node12" class="node">
<title>artifacts</title>
<path fill="#ede9fe" stroke="#8b5cf6" stroke-width="1.3" d="M1086,-211.75C1086,-211.75 1010,-211.75 1010,-211.75 1004,-211.75 998,-205.75 998,-199.75 998,-199.75 998,-187.75 998,-187.75 998,-181.75 1004,-175.75 1010,-175.75 1010,-175.75 1086,-175.75 1086,-175.75 1092,-175.75 1098,-181.75 1098,-187.75 1098,-187.75 1098,-199.75 1098,-199.75 1098,-205.75 1092,-211.75 1086,-211.75"/>
<text xml:space="preserve" text-anchor="middle" x="1048" y="-195.1" font-family="Helvetica,sans-Serif" font-size="12.00">ArtifactPanel</text>
<text xml:space="preserve" text-anchor="middle" x="1048" y="-182.35" font-family="Helvetica,sans-Serif" font-size="12.00">file links + sizes</text>
</g>
<!-- app&#45;&gt;artifacts -->
<g id="edge7" class="edge">
<title>app&#45;&gt;artifacts</title>
<path fill="none" stroke="#475569" stroke-width="1.25" d="M249.29,-347.27C385.62,-334.83 718,-304.5 718,-304.5 718,-304.5 754.75,-293.25 754.75,-293.25 754.75,-293.25 978,-285.25 978,-285.25 978,-285.25 1008.21,-246.19 1028.94,-219.39"/>
<polygon fill="#475569" stroke="#475569" stroke-width="1.25" points="1030.83,-221.23 1033.35,-213.7 1026.68,-218.02 1030.83,-221.23"/>
<text xml:space="preserve" text-anchor="middle" x="772.38" y="-295" font-family="Helvetica,sans-Serif" font-size="10.00">artifacts</text>
</g>
<!-- logs -->
<g id="node13" class="node">
<title>logs</title>
<path fill="#ede9fe" stroke="#8b5cf6" stroke-width="1.3" d="M760.25,-211.75C760.25,-211.75 661.75,-211.75 661.75,-211.75 655.75,-211.75 649.75,-205.75 649.75,-199.75 649.75,-199.75 649.75,-187.75 649.75,-187.75 649.75,-181.75 655.75,-175.75 661.75,-175.75 661.75,-175.75 760.25,-175.75 760.25,-175.75 766.25,-175.75 772.25,-181.75 772.25,-187.75 772.25,-187.75 772.25,-199.75 772.25,-199.75 772.25,-205.75 766.25,-211.75 760.25,-211.75"/>
<text xml:space="preserve" text-anchor="middle" x="711" y="-195.1" font-family="Helvetica,sans-Serif" font-size="12.00">LogPanel</text>
<text xml:space="preserve" text-anchor="middle" x="711" y="-182.35" font-family="Helvetica,sans-Serif" font-size="12.00">technical log stream</text>
</g>
<!-- app&#45;&gt;logs -->
<g id="edge8" class="edge">
<title>app&#45;&gt;logs</title>
<path fill="none" stroke="#475569" stroke-width="1.25" d="M249.32,-343.36C336.66,-329.43 493,-304.5 493,-304.5 493,-304.5 563,-293.25 563,-293.25 563,-293.25 630,-285.25 630,-285.25 630,-285.25 665.26,-245.85 689.25,-219.05"/>
<polygon fill="#475569" stroke="#475569" stroke-width="1.25" points="691.07,-220.95 694.12,-213.61 687.16,-217.45 691.07,-220.95"/>
<text xml:space="preserve" text-anchor="middle" x="572" y="-295" font-family="Helvetica,sans-Serif" font-size="10.00">logs</text>
</g>
<!-- server -->
<g id="node14" class="node">
<title>server</title>
<path fill="#fed7aa" stroke="#ea580c" stroke-width="1.3" d="M1449.12,-52C1449.12,-52 1298.88,-52 1298.88,-52 1292.88,-52 1286.88,-46 1286.88,-40 1286.88,-40 1286.88,-28 1286.88,-28 1286.88,-22 1292.88,-16 1298.88,-16 1298.88,-16 1449.12,-16 1449.12,-16 1455.12,-16 1461.12,-22 1461.12,-28 1461.12,-28 1461.12,-40 1461.12,-40 1461.12,-46 1455.12,-52 1449.12,-52"/>
<text xml:space="preserve" text-anchor="middle" x="1374" y="-35.35" font-family="Helvetica,sans-Serif" font-size="12.00">FastAPI</text>
<text xml:space="preserve" text-anchor="middle" x="1374" y="-22.6" font-family="Helvetica,sans-Serif" font-size="12.00">/api/workflows + /api/sessions</text>
</g>
<!-- api&#45;&gt;server -->
<g id="edge10" class="edge">
<title>api&#45;&gt;server</title>
<path fill="none" stroke="#16a34a" stroke-width="1.25" d="M1112.37,-346.03C1202.17,-332.92 1397,-304.5 1397,-304.5 1397,-304.5 1440,-285.25 1440,-285.25 1440,-285.25 1440,-167.75 1440,-167.75 1440,-167.75 1406.05,-99.46 1386.85,-60.84"/>
<polygon fill="#16a34a" stroke="#16a34a" stroke-width="1.25" points="1389.3,-59.87 1383.61,-54.32 1384.6,-62.21 1389.3,-59.87"/>
<text xml:space="preserve" text-anchor="middle" x="1468.12" y="-189.88" font-family="Helvetica,sans-Serif" font-size="10.00">HTTP JSON</text>
</g>
<!-- types -->
<g id="node5" class="node">
<title>types</title>
<path fill="#dcfce7" stroke="#22c55e" stroke-width="1.3" d="M609.75,-371.5C609.75,-371.5 496.25,-371.5 496.25,-371.5 490.25,-371.5 484.25,-365.5 484.25,-359.5 484.25,-359.5 484.25,-347.5 484.25,-347.5 484.25,-341.5 490.25,-335.5 496.25,-335.5 496.25,-335.5 609.75,-335.5 609.75,-335.5 615.75,-335.5 621.75,-341.5 621.75,-347.5 621.75,-347.5 621.75,-359.5 621.75,-359.5 621.75,-365.5 615.75,-371.5 609.75,-371.5"/>
<text xml:space="preserve" text-anchor="middle" x="553" y="-354.85" font-family="Helvetica,sans-Serif" font-size="12.00">types.ts</text>
<text xml:space="preserve" text-anchor="middle" x="553" y="-342.1" font-family="Helvetica,sans-Serif" font-size="12.00">WorkflowConfig / State</text>
</g>
<!-- types&#45;&gt;app -->
<g id="edge14" class="edge">
<title>types&#45;&gt;app</title>
<path fill="none" stroke="#475569" stroke-width="1.25" d="M483.72,-353.5C418.78,-353.5 322.38,-353.5 258.4,-353.5"/>
<polygon fill="#475569" stroke="#475569" stroke-width="1.25" points="258.59,-350.88 251.09,-353.5 258.59,-356.13 258.59,-350.88"/>
<text xml:space="preserve" text-anchor="middle" x="366.5" y="-358.25" font-family="Helvetica,sans-Serif" font-size="10.00">typed state</text>
</g>
<!-- helpers -->
<g id="node6" class="node">
<title>helpers</title>
<path fill="#dcfce7" stroke="#22c55e" stroke-width="1.3" d="M772.62,-371.5C772.62,-371.5 673.38,-371.5 673.38,-371.5 667.38,-371.5 661.38,-365.5 661.38,-359.5 661.38,-359.5 661.38,-347.5 661.38,-347.5 661.38,-341.5 667.38,-335.5 673.38,-335.5 673.38,-335.5 772.62,-335.5 772.62,-335.5 778.62,-335.5 784.62,-341.5 784.62,-347.5 784.62,-347.5 784.62,-359.5 784.62,-359.5 784.62,-365.5 778.62,-371.5 772.62,-371.5"/>
<text xml:space="preserve" text-anchor="middle" x="723" y="-354.85" font-family="Helvetica,sans-Serif" font-size="12.00">workflow.ts</text>
<text xml:space="preserve" text-anchor="middle" x="723" y="-342.1" font-family="Helvetica,sans-Serif" font-size="12.00">defaults + formatters</text>
</g>
<!-- helpers&#45;&gt;app -->
<g id="edge15" class="edge">
<title>helpers&#45;&gt;app</title>
<path fill="none" stroke="#475569" stroke-width="1.25" d="M706.61,-372.02C682.94,-398.75 642,-445 642,-445 642,-445 564.25,-449.88 564.25,-449.88 564.25,-449.88 529.75,-449.88 529.75,-449.88 529.75,-449.88 466,-445 466,-445 466,-445 337.43,-402.07 256.43,-375.02"/>
<polygon fill="#475569" stroke="#475569" stroke-width="1.25" points="257.52,-372.61 249.57,-372.73 255.86,-377.59 257.52,-372.61"/>
<text xml:space="preserve" text-anchor="middle" x="547" y="-471.62" font-family="Helvetica,sans-Serif" font-size="10.00">defaults</text>
</g>
<!-- helpers&#45;&gt;steps -->
<g id="edge16" class="edge">
<title>helpers&#45;&gt;steps</title>
<path fill="none" stroke="#475569" stroke-width="1.25" d="M751.23,-334.9C773.21,-321.2 800,-304.5 800,-304.5 800,-304.5 840.55,-252.14 865.64,-219.75"/>
<polygon fill="#475569" stroke="#475569" stroke-width="1.25" points="867.67,-221.42 870.18,-213.88 863.52,-218.2 867.67,-221.42"/>
<text xml:space="preserve" text-anchor="middle" x="845.9" y="-295" font-family="Helvetica,sans-Serif" font-size="10.00">labels + durations</text>
</g>
<!-- helpers&#45;&gt;artifacts -->
<g id="edge17" class="edge">
<title>helpers&#45;&gt;artifacts</title>
<path fill="none" stroke="#475569" stroke-width="1.25" d="M780.14,-334.87C793.54,-330.73 804,-327.5 804,-327.5 804,-327.5 978,-285.25 978,-285.25 978,-285.25 1008.21,-246.19 1028.94,-219.39"/>
<polygon fill="#475569" stroke="#475569" stroke-width="1.25" points="1030.83,-221.23 1033.35,-213.7 1026.68,-218.02 1030.83,-221.23"/>
<text xml:space="preserve" text-anchor="middle" x="977.34" y="-295" font-family="Helvetica,sans-Serif" font-size="10.00">byte formatting</text>
</g>
<!-- artifact_helpers -->
<g id="node7" class="node">
<title>artifact_helpers</title>
<path fill="#dcfce7" stroke="#22c55e" stroke-width="1.3" d="M971.62,-371.5C971.62,-371.5 836.38,-371.5 836.38,-371.5 830.38,-371.5 824.38,-365.5 824.38,-359.5 824.38,-359.5 824.38,-347.5 824.38,-347.5 824.38,-341.5 830.38,-335.5 836.38,-335.5 836.38,-335.5 971.62,-335.5 971.62,-335.5 977.62,-335.5 983.62,-341.5 983.62,-347.5 983.62,-347.5 983.62,-359.5 983.62,-359.5 983.62,-365.5 977.62,-371.5 971.62,-371.5"/>
<text xml:space="preserve" text-anchor="middle" x="904" y="-354.85" font-family="Helvetica,sans-Serif" font-size="12.00">artifacts.ts</text>
<text xml:space="preserve" text-anchor="middle" x="904" y="-342.1" font-family="Helvetica,sans-Serif" font-size="12.00">previewable model filtering</text>
</g>
<!-- artifact_helpers&#45;&gt;preview -->
<g id="edge18" class="edge">
<title>artifact_helpers&#45;&gt;preview</title>
<path fill="none" stroke="#475569" stroke-width="1.25" d="M974.54,-334.87C991.08,-330.73 1004,-327.5 1004,-327.5 1004,-327.5 1143,-304.5 1143,-304.5 1143,-304.5 1175.64,-252.58 1196.02,-220.16"/>
<polygon fill="#475569" stroke="#475569" stroke-width="1.25" points="1198.14,-221.73 1199.91,-213.98 1193.69,-218.94 1198.14,-221.73"/>
<text xml:space="preserve" text-anchor="middle" x="1189.4" y="-295" font-family="Helvetica,sans-Serif" font-size="10.00">supported artifacts</text>
</g>
<!-- outputs -->
<g id="node15" class="node">
<title>outputs</title>
<path fill="#ffedd5" stroke="#f97316" stroke-width="1.3" d="M1235.12,-52C1235.12,-52 1144.88,-52 1144.88,-52 1138.88,-52 1132.88,-46 1132.88,-40 1132.88,-40 1132.88,-28 1132.88,-28 1132.88,-22 1138.88,-16 1144.88,-16 1144.88,-16 1235.12,-16 1235.12,-16 1241.12,-16 1247.12,-22 1247.12,-28 1247.12,-28 1247.12,-40 1247.12,-40 1247.12,-46 1241.12,-52 1235.12,-52"/>
<text xml:space="preserve" text-anchor="middle" x="1190" y="-35.35" font-family="Helvetica,sans-Serif" font-size="12.00">Static /outputs</text>
<text xml:space="preserve" text-anchor="middle" x="1190" y="-22.6" font-family="Helvetica,sans-Serif" font-size="12.00">generated artifacts</text>
</g>
<!-- preview&#45;&gt;outputs -->
<g id="edge12" class="edge">
<title>preview&#45;&gt;outputs</title>
<path fill="none" stroke="#f97316" stroke-width="1.25" d="M1209.56,-175.27C1205.71,-147.67 1198.2,-93.83 1193.69,-61.47"/>
<polygon fill="#f97316" stroke="#f97316" stroke-width="1.25" points="1196.35,-61.5 1192.71,-54.44 1191.15,-62.23 1196.35,-61.5"/>
<text xml:space="preserve" text-anchor="middle" x="1239.38" y="-135.25" font-family="Helvetica,sans-Serif" font-size="10.00">load GLB / OBJ</text>
</g>
<!-- artifacts&#45;&gt;outputs -->
<g id="edge13" class="edge">
<title>artifacts&#45;&gt;outputs</title>
<path fill="none" stroke="#f97316" stroke-width="1.25" d="M1063.74,-175.27C1089.12,-147.07 1139.14,-91.5 1168.02,-59.42"/>
<polygon fill="#f97316" stroke="#f97316" stroke-width="1.25" points="1169.86,-61.3 1172.92,-53.97 1165.96,-57.79 1169.86,-61.3"/>
<text xml:space="preserve" text-anchor="middle" x="1136.61" y="-135.25" font-family="Helvetica,sans-Serif" font-size="10.00">open artifact URL</text>
</g>
<!-- server&#45;&gt;api -->
<g id="edge11" class="edge">
<title>server&#45;&gt;api</title>
<path fill="none" stroke="#16a34a" stroke-width="1.25" d="M1369.08,-52.6C1353.14,-109.56 1304,-285.25 1304,-285.25 1304,-285.25 1240,-304.5 1240,-304.5 1240,-304.5 1171.7,-323.56 1121.18,-337.66"/>
<polygon fill="#16a34a" stroke="#16a34a" stroke-width="1.25" points="1120.63,-335.09 1114.12,-339.63 1122.05,-340.14 1120.63,-335.09"/>
<text xml:space="preserve" text-anchor="middle" x="1368.54" y="-189.88" font-family="Helvetica,sans-Serif" font-size="10.00">WorkflowState</text>
</g>
</g>
</svg>
