<?xml version="1.0" encoding="UTF-8" standalone="no"?>
<!DOCTYPE svg PUBLIC "-//W3C//DTD SVG 1.1//EN"
 "http://www.w3.org/Graphics/SVG/1.1/DTD/svg11.dtd">
<!-- Generated by graphviz version 14.1.5 (20260411.2331)
 -->
<!-- Title: FrontendComponentArchitecture Pages: 1 -->
<svg width="1609pt" height="466pt"
 viewBox="0.00 0.00 1609.00 466.00" xmlns="http://www.w3.org/2000/svg" xmlns:xlink="http://www.w3.org/1999/xlink">
<g id="graph0" class="graph" transform="scale(1 1) rotate(0) translate(25.2 440.45)">
<title>FrontendComponentArchitecture</title>
<polygon fill="#f8fafc" stroke="none" points="-25.2,25.2 -25.2,-440.45 1584.2,-440.45 1584.2,25.2 -25.2,25.2"/>
<text xml:space="preserve" text-anchor="middle" x="779.5" y="-388.45" font-family="Helvetica,sans-Serif" font-weight="bold" font-size="24.00">React Frontend Component Architecture</text>
<g id="clust1" class="cluster">
<title>cluster_shell</title>
<path fill="#f0f9ff" stroke="#38bdf8" d="M20,-8C20,-8 245,-8 245,-8 251,-8 257,-14 257,-20 257,-20 257,-273.25 257,-273.25 257,-279.25 251,-285.25 245,-285.25 245,-285.25 20,-285.25 20,-285.25 14,-285.25 8,-279.25 8,-273.25 8,-273.25 8,-20 8,-20 8,-14 14,-8 20,-8"/>
<text xml:space="preserve" text-anchor="middle" x="132.5" y="-258.45" font-family="Helvetica,sans-Serif" font-weight="bold" font-size="24.00">App Shell</text>
</g>
<g id="clust2" class="cluster">
<title>cluster_data</title>
<path fill="#f0fdf4" stroke="#22c55e" d="M341,-167.75C341,-167.75 762,-167.75 762,-167.75 768,-167.75 774,-173.75 774,-179.75 774,-179.75 774,-273.25 774,-273.25 774,-279.25 768,-285.25 762,-285.25 762,-285.25 341,-285.25 341,-285.25 335,-285.25 329,-279.25 329,-273.25 329,-273.25 329,-179.75 329,-179.75 329,-173.75 335,-167.75 341,-167.75"/>
<text xml:space="preserve" text-anchor="middle" x="551.5" y="-258.45" font-family="Helvetica,sans-Serif" font-weight="bold" font-size="24.00">Data and API</text>
</g>
<g id="clust3" class="cluster">
<title>cluster_panels</title>
<path fill="#f5f3ff" stroke="#a78bfa" d="M293,-8C293,-8 1094,-8 1094,-8 1100,-8 1106,-14 1106,-20 1106,-20 1106,-113.5 1106,-113.5 1106,-119.5 1100,-125.5 1094,-125.5 1094,-125.5 293,-125.5 293,-125.5 287,-125.5 281,-119.5 281,-113.5 281,-113.5 281,-20 281,-20 281,-14 287,-8 293,-8"/>
<text xml:space="preserve" text-anchor="middle" x="693.5" y="-98.7" font-family="Helvetica,sans-Serif" font-weight="bold" font-size="24.00">Workspace Panels</text>
</g>
<g id="clust4" class="cluster">
<title>cluster_backend</title>
<path fill="#fff7ed" stroke="#fb923c" d="M1219,-8C1219,-8 1539,-8 1539,-8 1545,-8 1551,-14 1551,-20 1551,-20 1551,-113.5 1551,-113.5 1551,-119.5 1545,-125.5 1539,-125.5 1539,-125.5 1219,-125.5 1219,-125.5 1213,-125.5 1207,-119.5 1207,-113.5 1207,-113.5 1207,-20 1207,-20 1207,-14 1213,-8 1219,-8"/>
<text xml:space="preserve" text-anchor="middle" x="1379" y="-98.7" font-family="Helvetica,sans-Serif" font-weight="bold" font-size="24.00">Backend API</text>
</g>
<!-- app -->
<g id="node1" class="node">
<title>app</title>
<path fill="#bae6fd" stroke="#0284c7" stroke-width="1.3" d="M236.75,-211.75C236.75,-211.75 147.25,-211.75 147.25,-211.75 141.25,-211.75 135.25,-205.75 135.25,-199.75 135.25,-199.75 135.25,-187.75 135.25,-187.75 135.25,-181.75 141.25,-175.75 147.25,-175.75 147.25,-175.75 236.75,-175.75 236.75,-175.75 242.75,-175.75 248.75,-181.75 248.75,-187.75 248.75,-187.75 248.75,-199.75 248.75,-199.75 248.75,-205.75 242.75,-211.75 236.75,-211.75"/>
<text xml:space="preserve" text-anchor="middle" x="192" y="-195.1" font-family="Helvetica,sans-Serif" font-size="12.00">App.tsx</text>
<text xml:space="preserve" text-anchor="middle" x="192" y="-182.35" font-family="Helvetica,sans-Serif" font-size="12.00">state orchestration</text>
</g>
<!-- topbar -->
<g id="node2" class="node">
<title>topbar</title>
<path fill="#e0f2fe" stroke="#0ea5e9" stroke-width="1.3" d="M237.38,-52C237.38,-52 178.62,-52 178.62,-52 172.62,-52 166.62,-46 166.62,-40 166.62,-40 166.62,-28 166.62,-28 166.62,-22 172.62,-16 178.62,-16 178.62,-16 237.38,-16 237.38,-16 243.38,-16 249.38,-22 249.38,-28 249.38,-28 249.38,-40 249.38,-40 249.38,-46 243.38,-52 237.38,-52"/>
<text xml:space="preserve" text-anchor="middle" x="208" y="-35.35" font-family="Helvetica,sans-Serif" font-size="12.00">Topbar</text>
<text xml:space="preserve" text-anchor="middle" x="208" y="-22.6" font-family="Helvetica,sans-Serif" font-size="12.00">session chip</text>
</g>
<!-- app&#45;&gt;topbar -->
<g id="edge1" class="edge">
<title>app&#45;&gt;topbar</title>
<path fill="none" stroke="#475569" stroke-width="1.25" d="M193.77,-175.27C196.56,-147.79 201.99,-94.29 205.27,-61.89"/>
<polygon fill="#475569" stroke="#475569" stroke-width="1.25" points="207.88,-62.17 206.03,-54.45 202.66,-61.64 207.88,-62.17"/>
<text xml:space="preserve" text-anchor="middle" x="219.76" y="-135.25" font-family="Helvetica,sans-Serif" font-size="10.00">session id</text>
</g>
<!-- commandbar -->
<g id="node3" class="node">
<title>commandbar</title>
<path fill="#e0f2fe" stroke="#0ea5e9" stroke-width="1.3" d="M114.25,-52C114.25,-52 27.75,-52 27.75,-52 21.75,-52 15.75,-46 15.75,-40 15.75,-40 15.75,-28 15.75,-28 15.75,-22 21.75,-16 27.75,-16 27.75,-16 114.25,-16 114.25,-16 120.25,-16 126.25,-22 126.25,-28 126.25,-28 126.25,-40 126.25,-40 126.25,-46 120.25,-52 114.25,-52"/>
<text xml:space="preserve" text-anchor="middle" x="71" y="-35.35" font-family="Helvetica,sans-Serif" font-size="12.00">Command Bar</text>
<text xml:space="preserve" text-anchor="middle" x="71" y="-22.6" font-family="Helvetica,sans-Serif" font-size="12.00">create / run / reset</text>
</g>
<!-- app&#45;&gt;commandbar -->
<g id="edge2" class="edge">
<title>app&#45;&gt;commandbar</title>
<path fill="none" stroke="#475569" stroke-width="1.25" d="M163.22,-175.15C140.81,-161.45 113.5,-144.75 113.5,-144.75 113.5,-144.75 93.73,-93.71 81.16,-61.24"/>
<polygon fill="#475569" stroke="#475569" stroke-width="1.25" points="83.67,-60.44 78.51,-54.4 78.77,-62.34 83.67,-60.44"/>
<text xml:space="preserve" text-anchor="middle" x="150.25" y="-135.25" font-family="Helvetica,sans-Serif" font-size="10.00">busy + next step</text>
</g>
<!-- api -->
<g id="node4" class="node">
<title>api</title>
<path fill="#bbf7d0" stroke="#16a34a" stroke-width="1.3" d="M754,-211.75C754,-211.75 690,-211.75 690,-211.75 684,-211.75 678,-205.75 678,-199.75 678,-199.75 678,-187.75 678,-187.75 678,-181.75 684,-175.75 690,-175.75 690,-175.75 754,-175.75 754,-175.75 760,-175.75 766,-181.75 766,-187.75 766,-187.75 766,-199.75 766,-199.75 766,-205.75 760,-211.75 754,-211.75"/>
<text xml:space="preserve" text-anchor="middle" x="722" y="-195.1" font-family="Helvetica,sans-Serif" font-size="12.00">workflowApi</text>
<text xml:space="preserve" text-anchor="middle" x="722" y="-182.35" font-family="Helvetica,sans-Serif" font-size="12.00">fetch wrapper</text>
</g>
<!-- app&#45;&gt;api -->
<g id="edge8" class="edge">
<title>app&#45;&gt;api</title>
<path fill="none" stroke="#16a34a" stroke-width="1.25" d="M214.28,-212.2C253.03,-244.29 328.75,-307 328.75,-307 328.75,-307 393.25,-307 393.25,-307 393.25,-307 658,-285.25 658,-285.25 658,-285.25 684.8,-246.94 703.71,-219.9"/>
<polygon fill="#16a34a" stroke="#16a34a" stroke-width="1.25" points="705.82,-221.47 707.96,-213.82 701.51,-218.46 705.82,-221.47"/>
<text xml:space="preserve" text-anchor="middle" x="361" y="-328.75" font-family="Helvetica,sans-Serif" font-size="10.00">load definition</text>
<text xml:space="preserve" text-anchor="middle" x="361" y="-317.5" font-family="Helvetica,sans-Serif" font-size="10.00">create session</text>
<text xml:space="preserve" text-anchor="middle" x="361" y="-306.25" font-family="Helvetica,sans-Serif" font-size="10.00">run commands</text>
<text xml:space="preserve" text-anchor="middle" x="361" y="-295" font-family="Helvetica,sans-Serif" font-size="10.00">poll state</text>
</g>
<!-- params -->
<g id="node7" class="node">
<title>params</title>
<path fill="#ddd6fe" stroke="#7c3aed" stroke-width="1.3" d="M424.62,-52C424.62,-52 301.38,-52 301.38,-52 295.38,-52 289.38,-46 289.38,-40 289.38,-40 289.38,-28 289.38,-28 289.38,-22 295.38,-16 301.38,-16 301.38,-16 424.62,-16 424.62,-16 430.62,-16 436.62,-22 436.62,-28 436.62,-28 436.62,-40 436.62,-40 436.62,-46 430.62,-52 424.62,-52"/>
<text xml:space="preserve" text-anchor="middle" x="363" y="-35.35" font-family="Helvetica,sans-Serif" font-size="12.00">ParameterPanel</text>
<text xml:space="preserve" text-anchor="middle" x="363" y="-22.6" font-family="Helvetica,sans-Serif" font-size="12.00">metadata&#45;driven controls</text>
</g>
<!-- app&#45;&gt;params -->
<g id="edge3" class="edge">
<title>app&#45;&gt;params</title>
<path fill="none" stroke="#475569" stroke-width="1.25" d="M214,-175.15C231.13,-161.45 252,-144.75 252,-144.75 252,-144.75 305.85,-91.5 338.54,-59.18"/>
<polygon fill="#475569" stroke="#475569" stroke-width="1.25" points="340.33,-61.1 343.82,-53.96 336.64,-57.37 340.33,-61.1"/>
<text xml:space="preserve" text-anchor="middle" x="300.12" y="-135.25" font-family="Helvetica,sans-Serif" font-size="10.00">definition + config</text>
</g>
<!-- steps -->
<g id="node8" class="node">
<title>steps</title>
<path fill="#ede9fe" stroke="#8b5cf6" stroke-width="1.3" d="M945.5,-52C945.5,-52 824.5,-52 824.5,-52 818.5,-52 812.5,-46 812.5,-40 812.5,-40 812.5,-28 812.5,-28 812.5,-22 818.5,-16 824.5,-16 824.5,-16 945.5,-16 945.5,-16 951.5,-16 957.5,-22 957.5,-28 957.5,-28 957.5,-40 957.5,-40 957.5,-46 951.5,-52 945.5,-52"/>
<text xml:space="preserve" text-anchor="middle" x="885" y="-35.35" font-family="Helvetica,sans-Serif" font-size="12.00">StepList</text>
<text xml:space="preserve" text-anchor="middle" x="885" y="-22.6" font-family="Helvetica,sans-Serif" font-size="12.00">step status + run buttons</text>
</g>
<!-- app&#45;&gt;steps -->
<g id="edge4" class="edge">
<title>app&#45;&gt;steps</title>
<path fill="none" stroke="#475569" stroke-width="1.25" d="M249.18,-181.49C282.89,-174.86 319,-167.75 319,-167.75 319,-167.75 598,-144.75 598,-144.75 598,-144.75 701.75,-133.5 701.75,-133.5 701.75,-133.5 792,-125.5 792,-125.5 792,-125.5 832.83,-85.77 860.38,-58.96"/>
<polygon fill="#475569" stroke="#475569" stroke-width="1.25" points="862.17,-60.88 865.71,-53.77 858.51,-57.12 862.17,-60.88"/>
<text xml:space="preserve" text-anchor="middle" x="743.38" y="-135.25" font-family="Helvetica,sans-Serif" font-size="10.00">steps + selected id</text>
</g>
<!-- details -->
<g id="node9" class="node">
<title>details</title>
<path fill="#ede9fe" stroke="#8b5cf6" stroke-width="1.3" d="M597.5,-52C597.5,-52 488.5,-52 488.5,-52 482.5,-52 476.5,-46 476.5,-40 476.5,-40 476.5,-28 476.5,-28 476.5,-22 482.5,-16 488.5,-16 488.5,-16 597.5,-16 597.5,-16 603.5,-16 609.5,-22 609.5,-28 609.5,-28 609.5,-40 609.5,-40 609.5,-46 603.5,-52 597.5,-52"/>
<text xml:space="preserve" text-anchor="middle" x="543" y="-35.35" font-family="Helvetica,sans-Serif" font-size="12.00">StepDetails</text>
<text xml:space="preserve" text-anchor="middle" x="543" y="-22.6" font-family="Helvetica,sans-Serif" font-size="12.00">metrics + error display</text>
</g>
<!-- app&#45;&gt;details -->
<g id="edge5" class="edge">
<title>app&#45;&gt;details</title>
<path fill="none" stroke="#475569" stroke-width="1.25" d="M249.17,-178.24C327.08,-158.47 457,-125.5 457,-125.5 457,-125.5 494.76,-85.77 520.24,-58.96"/>
<polygon fill="#475569" stroke="#475569" stroke-width="1.25" points="521.85,-61.07 525.12,-53.82 518.05,-57.45 521.85,-61.07"/>
<text xml:space="preserve" text-anchor="middle" x="453.42" y="-135.25" font-family="Helvetica,sans-Serif" font-size="10.00">selected step</text>
</g>
<!-- artifacts -->
<g id="node10" class="node">
<title>artifacts</title>
<path fill="#ede9fe" stroke="#8b5cf6" stroke-width="1.3" d="M1086,-52C1086,-52 1010,-52 1010,-52 1004,-52 998,-46 998,-40 998,-40 998,-28 998,-28 998,-22 1004,-16 1010,-16 1010,-16 1086,-16 1086,-16 1092,-16 1098,-22 1098,-28 1098,-28 1098,-40 1098,-40 1098,-46 1092,-52 1086,-52"/>
<text xml:space="preserve" text-anchor="middle" x="1048" y="-35.35" font-family="Helvetica,sans-Serif" font-size="12.00">ArtifactPanel</text>
<text xml:space="preserve" text-anchor="middle" x="1048" y="-22.6" font-family="Helvetica,sans-Serif" font-size="12.00">file links + sizes</text>
</g>
<!-- app&#45;&gt;artifacts -->
<g id="edge6" class="edge">
<title>app&#45;&gt;artifacts</title>
<path fill="none" stroke="#475569" stroke-width="1.25" d="M249.18,-181.49C282.89,-174.86 319,-167.75 319,-167.75 319,-167.75 890,-144.75 890,-144.75 890,-144.75 978,-125.5 978,-125.5 978,-125.5 1008.21,-86.44 1028.94,-59.64"/>
<polygon fill="#475569" stroke="#475569" stroke-width="1.25" points="1030.83,-61.48 1033.35,-53.95 1026.68,-58.27 1030.83,-61.48"/>
<text xml:space="preserve" text-anchor="middle" x="956.89" y="-135.25" font-family="Helvetica,sans-Serif" font-size="10.00">artifacts</text>
</g>
<!-- logs -->
<g id="node11" class="node">
<title>logs</title>
<path fill="#ede9fe" stroke="#8b5cf6" stroke-width="1.3" d="M760.25,-52C760.25,-52 661.75,-52 661.75,-52 655.75,-52 649.75,-46 649.75,-40 649.75,-40 649.75,-28 649.75,-28 649.75,-22 655.75,-16 661.75,-16 661.75,-16 760.25,-16 760.25,-16 766.25,-16 772.25,-22 772.25,-28 772.25,-28 772.25,-40 772.25,-40 772.25,-46 766.25,-52 760.25,-52"/>
<text xml:space="preserve" text-anchor="middle" x="711" y="-35.35" font-family="Helvetica,sans-Serif" font-size="12.00">LogPanel</text>
<text xml:space="preserve" text-anchor="middle" x="711" y="-22.6" font-family="Helvetica,sans-Serif" font-size="12.00">technical log stream</text>
</g>
<!-- app&#45;&gt;logs -->
<g id="edge7" class="edge">
<title>app&#45;&gt;logs</title>
<path fill="none" stroke="#475569" stroke-width="1.25" d="M249.18,-181.49C282.89,-174.86 319,-167.75 319,-167.75 319,-167.75 493,-144.75 493,-144.75 493,-144.75 630,-125.5 630,-125.5 630,-125.5 665.26,-86.1 689.25,-59.3"/>
<polygon fill="#475569" stroke="#475569" stroke-width="1.25" points="691.07,-61.2 694.12,-53.86 687.16,-57.7 691.07,-61.2"/>
<text xml:space="preserve" text-anchor="middle" x="578.7" y="-135.25" font-family="Helvetica,sans-Serif" font-size="10.00">logs</text>
</g>
<!-- server -->
<g id="node12" class="node">
<title>server</title>
<path fill="#fed7aa" stroke="#ea580c" stroke-width="1.3" d="M1531.12,-52C1531.12,-52 1380.88,-52 1380.88,-52 1374.88,-52 1368.88,-46 1368.88,-40 1368.88,-40 1368.88,-28 1368.88,-28 1368.88,-22 1374.88,-16 1380.88,-16 1380.88,-16 1531.12,-16 1531.12,-16 1537.12,-16 1543.12,-22 1543.12,-28 1543.12,-28 1543.12,-40 1543.12,-40 1543.12,-46 1537.12,-52 1531.12,-52"/>
<text xml:space="preserve" text-anchor="middle" x="1456" y="-35.35" font-family="Helvetica,sans-Serif" font-size="12.00">FastAPI</text>
<text xml:space="preserve" text-anchor="middle" x="1456" y="-22.6" font-family="Helvetica,sans-Serif" font-size="12.00">/api/workflows + /api/sessions</text>
</g>
<!-- api&#45;&gt;server -->
<g id="edge9" class="edge">
<title>api&#45;&gt;server</title>
<path fill="none" stroke="#16a34a" stroke-width="1.25" d="M766.59,-187.97C909.83,-172.6 1349,-125.5 1349,-125.5 1349,-125.5 1396.78,-85.09 1428.48,-58.28"/>
<polygon fill="#16a34a" stroke="#16a34a" stroke-width="1.25" points="1429.89,-60.52 1433.92,-53.67 1426.5,-56.51 1429.89,-60.52"/>
<text xml:space="preserve" text-anchor="middle" x="1299.44" y="-135.25" font-family="Helvetica,sans-Serif" font-size="10.00">HTTP JSON</text>
</g>
<!-- types -->
<g id="node5" class="node">
<title>types</title>
<path fill="#dcfce7" stroke="#22c55e" stroke-width="1.3" d="M462.75,-211.75C462.75,-211.75 349.25,-211.75 349.25,-211.75 343.25,-211.75 337.25,-205.75 337.25,-199.75 337.25,-199.75 337.25,-187.75 337.25,-187.75 337.25,-181.75 343.25,-175.75 349.25,-175.75 349.25,-175.75 462.75,-175.75 462.75,-175.75 468.75,-175.75 474.75,-181.75 474.75,-187.75 474.75,-187.75 474.75,-199.75 474.75,-199.75 474.75,-205.75 468.75,-211.75 462.75,-211.75"/>
<text xml:space="preserve" text-anchor="middle" x="406" y="-195.1" font-family="Helvetica,sans-Serif" font-size="12.00">types.ts</text>
<text xml:space="preserve" text-anchor="middle" x="406" y="-182.35" font-family="Helvetica,sans-Serif" font-size="12.00">WorkflowConfig / State</text>
</g>
<!-- types&#45;&gt;app -->
<g id="edge12" class="edge">
<title>types&#45;&gt;app</title>
<path fill="none" stroke="#475569" stroke-width="1.25" d="M336.67,-193.75C311.64,-193.75 283.47,-193.75 258.67,-193.75"/>
<polygon fill="#475569" stroke="#475569" stroke-width="1.25" points="258.74,-191.13 251.24,-193.75 258.74,-196.38 258.74,-191.13"/>
<text xml:space="preserve" text-anchor="middle" x="293" y="-198.5" font-family="Helvetica,sans-Serif" font-size="10.00">typed state</text>
</g>
<!-- helpers -->
<g id="node6" class="node">
<title>helpers</title>
<path fill="#dcfce7" stroke="#22c55e" stroke-width="1.3" d="M625.62,-211.75C625.62,-211.75 526.38,-211.75 526.38,-211.75 520.38,-211.75 514.38,-205.75 514.38,-199.75 514.38,-199.75 514.38,-187.75 514.38,-187.75 514.38,-181.75 520.38,-175.75 526.38,-175.75 526.38,-175.75 625.62,-175.75 625.62,-175.75 631.62,-175.75 637.62,-181.75 637.62,-187.75 637.62,-187.75 637.62,-199.75 637.62,-199.75 637.62,-205.75 631.62,-211.75 625.62,-211.75"/>
<text xml:space="preserve" text-anchor="middle" x="576" y="-195.1" font-family="Helvetica,sans-Serif" font-size="12.00">workflow.ts</text>
<text xml:space="preserve" text-anchor="middle" x="576" y="-182.35" font-family="Helvetica,sans-Serif" font-size="12.00">defaults + formatters</text>
</g>
<!-- helpers&#45;&gt;app -->
<g id="edge13" class="edge">
<title>helpers&#45;&gt;app</title>
<path fill="none" stroke="#475569" stroke-width="1.25" d="M559.61,-212.27C535.94,-239 495,-285.25 495,-285.25 495,-285.25 453.25,-290.12 453.25,-290.12 453.25,-290.12 418.75,-290.12 418.75,-290.12 418.75,-290.12 319,-285.25 319,-285.25 319,-285.25 262.58,-244.6 224.95,-217.49"/>
<polygon fill="#475569" stroke="#475569" stroke-width="1.25" points="226.85,-215.63 219.24,-213.37 223.79,-219.89 226.85,-215.63"/>
<text xml:space="preserve" text-anchor="middle" x="436" y="-311.88" font-family="Helvetica,sans-Serif" font-size="10.00">defaults</text>
</g>
<!-- helpers&#45;&gt;steps -->
<g id="edge14" class="edge">
<title>helpers&#45;&gt;steps</title>
<path fill="none" stroke="#475569" stroke-width="1.25" d="M633.84,-175.12C647.41,-170.98 658,-167.75 658,-167.75 658,-167.75 795,-144.75 795,-144.75 795,-144.75 838.3,-91.95 864.83,-59.59"/>
<polygon fill="#475569" stroke="#475569" stroke-width="1.25" points="866.61,-61.56 869.34,-54.1 862.55,-58.23 866.61,-61.56"/>
<text xml:space="preserve" text-anchor="middle" x="841.32" y="-135.25" font-family="Helvetica,sans-Serif" font-size="10.00">labels + durations</text>
</g>
<!-- helpers&#45;&gt;artifacts -->
<g id="edge15" class="edge">
<title>helpers&#45;&gt;artifacts</title>
<path fill="none" stroke="#475569" stroke-width="1.25" d="M633.84,-175.12C647.41,-170.98 658,-167.75 658,-167.75 658,-167.75 1003,-144.75 1003,-144.75 1003,-144.75 1023.93,-93.71 1037.24,-61.24"/>
<polygon fill="#475569" stroke="#475569" stroke-width="1.25" points="1039.64,-62.32 1040.05,-54.38 1034.78,-60.33 1039.64,-62.32"/>
<text xml:space="preserve" text-anchor="middle" x="1039.47" y="-135.25" font-family="Helvetica,sans-Serif" font-size="10.00">byte formatting</text>
</g>
<!-- outputs -->
<g id="node13" class="node">
<title>outputs</title>
<path fill="#ffedd5" stroke="#f97316" stroke-width="1.3" d="M1317.12,-52C1317.12,-52 1226.88,-52 1226.88,-52 1220.88,-52 1214.88,-46 1214.88,-40 1214.88,-40 1214.88,-28 1214.88,-28 1214.88,-22 1220.88,-16 1226.88,-16 1226.88,-16 1317.12,-16 1317.12,-16 1323.12,-16 1329.12,-22 1329.12,-28 1329.12,-28 1329.12,-40 1329.12,-40 1329.12,-46 1323.12,-52 1317.12,-52"/>
<text xml:space="preserve" text-anchor="middle" x="1272" y="-35.35" font-family="Helvetica,sans-Serif" font-size="12.00">Static /outputs</text>
<text xml:space="preserve" text-anchor="middle" x="1272" y="-22.6" font-family="Helvetica,sans-Serif" font-size="12.00">generated artifacts</text>
</g>
<!-- artifacts&#45;&gt;outputs -->
<g id="edge11" class="edge">
<title>artifacts&#45;&gt;outputs</title>
<path fill="none" stroke="#f97316" stroke-width="1.25" d="M1098.55,-34C1130.18,-34 1171.27,-34 1205.52,-34"/>
<polygon fill="#f97316" stroke="#f97316" stroke-width="1.25" points="1205.14,-36.63 1212.64,-34 1205.14,-31.38 1205.14,-36.63"/>
<text xml:space="preserve" text-anchor="middle" x="1156.44" y="-38.75" font-family="Helvetica,sans-Serif" font-size="10.00">open artifact URL</text>
</g>
<!-- server&#45;&gt;api -->
<g id="edge10" class="edge">
<title>server&#45;&gt;api</title>
<path fill="none" stroke="#16a34a" stroke-width="1.25" d="M1437.04,-52.63C1403.69,-83.66 1338,-144.75 1338,-144.75 1338,-144.75 925.02,-176.93 775.35,-188.59"/>
<polygon fill="#16a34a" stroke="#16a34a" stroke-width="1.25" points="775.46,-185.95 768.19,-189.15 775.87,-191.19 775.46,-185.95"/>
<text xml:space="preserve" text-anchor="middle" x="1379.97" y="-135.25" font-family="Helvetica,sans-Serif" font-size="10.00">WorkflowState</text>
</g>
</g>
</svg>
