<?xml version="1.0" encoding="UTF-8" standalone="no"?>
<!DOCTYPE svg PUBLIC "-//W3C//DTD SVG 1.1//EN"
 "http://www.w3.org/Graphics/SVG/1.1/DTD/svg11.dtd">
<!-- Generated by graphviz version 14.1.5 (20260411.2331)
 -->
<!-- Title: ApiSessionFlow Pages: 1 -->
<svg width="1340pt" height="928pt"
 viewBox="0.00 0.00 1340.00 928.00" xmlns="http://www.w3.org/2000/svg" xmlns:xlink="http://www.w3.org/1999/xlink">
<g id="graph0" class="graph" transform="scale(1 1) rotate(0) translate(25.2 902.7)">
<title>ApiSessionFlow</title>
<polygon fill="#f8fafc" stroke="none" points="-25.2,25.2 -25.2,-902.7 1314.45,-902.7 1314.45,25.2 -25.2,25.2"/>
<text xml:space="preserve" text-anchor="middle" x="644.62" y="-850.7" font-family="Helvetica,sans-Serif" font-weight="bold" font-size="24.00">API Session and Step Execution Flow</text>
<g id="clust1" class="cluster">
<title>cluster_client</title>
<path fill="#eff6ff" stroke="#60a5fa" d="M12,-471C12,-471 144.25,-471 144.25,-471 150.25,-471 156.25,-477 156.25,-483 156.25,-483 156.25,-544 156.25,-544 156.25,-550 150.25,-556 144.25,-556 144.25,-556 12,-556 12,-556 6,-556 0,-550 0,-544 0,-544 0,-483 0,-483 0,-477 6,-471 12,-471"/>
<text xml:space="preserve" text-anchor="middle" x="78.12" y="-529.2" font-family="Helvetica,sans-Serif" font-weight="bold" font-size="24.00">React Client</text>
</g>
<g id="clust2" class="cluster">
<title>cluster_routes</title>
<path fill="#f0fdfa" stroke="#2dd4bf" d="M306.25,-118C306.25,-118 505.5,-118 505.5,-118 511.5,-118 517.5,-124 517.5,-130 517.5,-130 517.5,-665 517.5,-665 517.5,-671 511.5,-677 505.5,-677 505.5,-677 306.25,-677 306.25,-677 300.25,-677 294.25,-671 294.25,-665 294.25,-665 294.25,-130 294.25,-130 294.25,-124 300.25,-118 306.25,-118"/>
<text xml:space="preserve" text-anchor="middle" x="405.88" y="-650.2" font-family="Helvetica,sans-Serif" font-weight="bold" font-size="24.00">FastAPI Routes</text>
</g>
<g id="clust3" class="cluster">
<title>cluster_runner</title>
<path fill="#f0fdf4" stroke="#22c55e" d="M648,-197C648,-197 1269.25,-197 1269.25,-197 1275.25,-197 1281.25,-203 1281.25,-209 1281.25,-209 1281.25,-428 1281.25,-428 1281.25,-434 1275.25,-440 1269.25,-440 1269.25,-440 648,-440 648,-440 642,-440 636,-434 636,-428 636,-428 636,-209 636,-209 636,-203 642,-197 648,-197"/>
<text xml:space="preserve" text-anchor="middle" x="958.62" y="-413.2" font-family="Helvetica,sans-Serif" font-weight="bold" font-size="24.00">WorkflowRunner</text>
</g>
<g id="clust4" class="cluster">
<title>cluster_runtime</title>
<path fill="#fffbeb" stroke="#f59e0b" d="M328.38,-8C328.38,-8 760.62,-8 760.62,-8 766.62,-8 772.62,-14 772.62,-20 772.62,-20 772.62,-98 772.62,-98 772.62,-104 766.62,-110 760.62,-110 760.62,-110 328.38,-110 328.38,-110 322.38,-110 316.38,-104 316.38,-98 316.38,-98 316.38,-20 316.38,-20 316.38,-14 322.38,-8 328.38,-8"/>
<text xml:space="preserve" text-anchor="middle" x="544.5" y="-83.2" font-family="Helvetica,sans-Serif" font-weight="bold" font-size="24.00">TRELLIS Runtime</text>
</g>
<!-- ui -->
<g id="node1" class="node">
<title>ui</title>
<path fill="#bfdbfe" stroke="#2563eb" stroke-width="1.25" d="M118.25,-515C118.25,-515 37,-515 37,-515 31,-515 25,-509 25,-503 25,-503 25,-491 25,-491 25,-485 31,-479 37,-479 37,-479 118.25,-479 118.25,-479 124.25,-479 130.25,-485 130.25,-491 130.25,-491 130.25,-503 130.25,-503 130.25,-509 124.25,-515 118.25,-515"/>
<text xml:space="preserve" text-anchor="middle" x="77.62" y="-498.55" font-family="Helvetica,sans-Serif" font-size="11.00">UI command</text>
<text xml:space="preserve" text-anchor="middle" x="77.62" y="-486.55" font-family="Helvetica,sans-Serif" font-size="11.00">Create / Run / Poll</text>
</g>
<!-- definition -->
<g id="node3" class="node">
<title>definition</title>
<path fill="#ccfbf1" stroke="#0f766e" stroke-width="1.25" d="M466.38,-478C466.38,-478 345.38,-478 345.38,-478 339.38,-478 333.38,-472 333.38,-466 333.38,-466 333.38,-454 333.38,-454 333.38,-448 339.38,-442 345.38,-442 345.38,-442 466.38,-442 466.38,-442 472.38,-442 478.38,-448 478.38,-454 478.38,-454 478.38,-466 478.38,-466 478.38,-472 472.38,-478 466.38,-478"/>
<text xml:space="preserve" text-anchor="middle" x="405.88" y="-455.55" font-family="Helvetica,sans-Serif" font-size="11.00">GET /api/workflows/default</text>
</g>
<!-- ui&#45;&gt;definition -->
<g id="edge1" class="edge">
<title>ui&#45;&gt;definition</title>
<path fill="none" stroke="#475569" stroke-width="1.25" d="M113.27,-478.41C144.73,-461.53 186.25,-439.25 186.25,-439.25 186.25,-439.25 264.25,-439.25 264.25,-439.25 264.25,-439.25 292.47,-443.41 323.63,-448.01"/>
<polygon fill="#475569" stroke="#475569" stroke-width="1.25" points="323.24,-450.61 331.04,-449.11 324.01,-445.41 323.24,-450.61"/>
<text xml:space="preserve" text-anchor="middle" x="225.25" y="-440.45" font-family="Helvetica,sans-Serif" font-size="9.00">initial load</text>
</g>
<!-- create -->
<g id="node4" class="node">
<title>create</title>
<path fill="#99f6e4" stroke="#0d9488" stroke-width="1.25" d="M449.12,-320C449.12,-320 362.62,-320 362.62,-320 356.62,-320 350.62,-314 350.62,-308 350.62,-308 350.62,-296 350.62,-296 350.62,-290 356.62,-284 362.62,-284 362.62,-284 449.12,-284 449.12,-284 455.12,-284 461.12,-290 461.12,-296 461.12,-296 461.12,-308 461.12,-308 461.12,-314 455.12,-320 449.12,-320"/>
<text xml:space="preserve" text-anchor="middle" x="405.88" y="-297.55" font-family="Helvetica,sans-Serif" font-size="11.00">POST /api/sessions</text>
</g>
<!-- ui&#45;&gt;create -->
<g id="edge3" class="edge">
<title>ui&#45;&gt;create</title>
<path fill="none" stroke="#475569" stroke-width="1.25" d="M96.4,-478.71C126.97,-447.26 186.25,-386.25 186.25,-386.25 186.25,-386.25 294.25,-342 294.25,-342 294.25,-342 318.72,-333.15 344.64,-323.78"/>
<polygon fill="#475569" stroke="#475569" stroke-width="1.25" points="345.51,-326.26 351.67,-321.24 343.72,-321.32 345.51,-326.26"/>
<text xml:space="preserve" text-anchor="middle" x="225.25" y="-387.45" font-family="Helvetica,sans-Serif" font-size="9.00">WorkflowConfig</text>
</g>
<!-- get -->
<g id="node5" class="node">
<title>get</title>
<path fill="#ccfbf1" stroke="#0f766e" stroke-width="1.25" d="M454.75,-399C454.75,-399 357,-399 357,-399 351,-399 345,-393 345,-387 345,-387 345,-375 345,-375 345,-369 351,-363 357,-363 357,-363 454.75,-363 454.75,-363 460.75,-363 466.75,-369 466.75,-375 466.75,-375 466.75,-387 466.75,-387 466.75,-393 460.75,-399 454.75,-399"/>
<text xml:space="preserve" text-anchor="middle" x="405.88" y="-376.55" font-family="Helvetica,sans-Serif" font-size="11.00">GET /api/sessions/{id}</text>
</g>
<!-- ui&#45;&gt;get -->
<g id="edge21" class="edge">
<title>ui&#45;&gt;get</title>
<path fill="none" stroke="#475569" stroke-width="1.25" d="M104.4,-478.38C136.24,-455.38 186.25,-419.25 186.25,-419.25 186.25,-419.25 271.62,-404.31 335.67,-393.11"/>
<polygon fill="#475569" stroke="#475569" stroke-width="1.25" points="335.76,-395.76 342.69,-391.88 334.85,-390.59 335.76,-395.76"/>
<text xml:space="preserve" text-anchor="middle" x="225.25" y="-420.45" font-family="Helvetica,sans-Serif" font-size="9.00">poll while busy</text>
</g>
<!-- runstep -->
<g id="node6" class="node">
<title>runstep</title>
<path fill="#99f6e4" stroke="#0d9488" stroke-width="1.25" d="M497.5,-241C497.5,-241 314.25,-241 314.25,-241 308.25,-241 302.25,-235 302.25,-229 302.25,-229 302.25,-217 302.25,-217 302.25,-211 308.25,-205 314.25,-205 314.25,-205 497.5,-205 497.5,-205 503.5,-205 509.5,-211 509.5,-217 509.5,-217 509.5,-229 509.5,-229 509.5,-235 503.5,-241 497.5,-241"/>
<text xml:space="preserve" text-anchor="middle" x="405.88" y="-218.55" font-family="Helvetica,sans-Serif" font-size="11.00">POST /api/sessions/{id}/steps/{step}/run</text>
</g>
<!-- ui&#45;&gt;runstep -->
<g id="edge8" class="edge">
<title>ui&#45;&gt;runstep</title>
<path fill="none" stroke="#475569" stroke-width="1.25" d="M90.97,-478.45C119.24,-435.96 186.25,-335.25 186.25,-335.25 186.25,-335.25 294.25,-263 294.25,-263 294.25,-263 318.72,-254.15 344.64,-244.78"/>
<polygon fill="#475569" stroke="#475569" stroke-width="1.25" points="345.51,-247.26 351.67,-242.24 343.72,-242.32 345.51,-247.26"/>
<text xml:space="preserve" text-anchor="middle" x="225.25" y="-336.45" font-family="Helvetica,sans-Serif" font-size="9.00">run exact step</text>
</g>
<!-- runnext -->
<g id="node7" class="node">
<title>runnext</title>
<path fill="#99f6e4" stroke="#0d9488" stroke-width="1.25" d="M479.88,-162C479.88,-162 331.88,-162 331.88,-162 325.88,-162 319.88,-156 319.88,-150 319.88,-150 319.88,-138 319.88,-138 319.88,-132 325.88,-126 331.88,-126 331.88,-126 479.88,-126 479.88,-126 485.88,-126 491.88,-132 491.88,-138 491.88,-138 491.88,-150 491.88,-150 491.88,-156 485.88,-162 479.88,-162"/>
<text xml:space="preserve" text-anchor="middle" x="405.88" y="-139.55" font-family="Helvetica,sans-Serif" font-size="11.00">POST /api/sessions/{id}/run&#45;next</text>
</g>
<!-- ui&#45;&gt;runnext -->
<g id="edge7" class="edge">
<title>ui&#45;&gt;runnext</title>
<path fill="none" stroke="#475569" stroke-width="1.25" d="M87.07,-478.74C112.44,-423.87 186.25,-264.25 186.25,-264.25 186.25,-264.25 294.25,-184 294.25,-184 294.25,-184 318.72,-175.15 344.64,-165.78"/>
<polygon fill="#475569" stroke="#475569" stroke-width="1.25" points="345.51,-168.26 351.67,-163.24 343.72,-163.32 345.51,-168.26"/>
<text xml:space="preserve" text-anchor="middle" x="225.25" y="-265.45" font-family="Helvetica,sans-Serif" font-size="9.00">run next</text>
</g>
<!-- runall -->
<g id="node8" class="node">
<title>runall</title>
<path fill="#99f6e4" stroke="#0d9488" stroke-width="1.25" d="M475,-636C475,-636 336.75,-636 336.75,-636 330.75,-636 324.75,-630 324.75,-624 324.75,-624 324.75,-612 324.75,-612 324.75,-606 330.75,-600 336.75,-600 336.75,-600 475,-600 475,-600 481,-600 487,-606 487,-612 487,-612 487,-624 487,-624 487,-630 481,-636 475,-636"/>
<text xml:space="preserve" text-anchor="middle" x="405.88" y="-613.55" font-family="Helvetica,sans-Serif" font-size="11.00">POST /api/sessions/{id}/run&#45;all</text>
</g>
<!-- ui&#45;&gt;runall -->
<g id="edge9" class="edge">
<title>ui&#45;&gt;runall</title>
<path fill="none" stroke="#475569" stroke-width="1.25" d="M125.2,-515.61C154.29,-527.23 186.25,-540 186.25,-540 186.25,-540 294.25,-579 294.25,-579 294.25,-579 317.99,-587.37 343.48,-596.35"/>
<polygon fill="#475569" stroke="#475569" stroke-width="1.25" points="342.42,-598.77 350.37,-598.78 344.17,-593.82 342.42,-598.77"/>
<text xml:space="preserve" text-anchor="middle" x="225.25" y="-568.68" font-family="Helvetica,sans-Serif" font-size="9.00">run remaining</text>
</g>
<!-- health -->
<g id="node2" class="node">
<title>health</title>
<path fill="#ccfbf1" stroke="#0f766e" stroke-width="1.25" d="M439.38,-557C439.38,-557 372.38,-557 372.38,-557 366.38,-557 360.38,-551 360.38,-545 360.38,-545 360.38,-533 360.38,-533 360.38,-527 366.38,-521 372.38,-521 372.38,-521 439.38,-521 439.38,-521 445.38,-521 451.38,-527 451.38,-533 451.38,-533 451.38,-545 451.38,-545 451.38,-551 445.38,-557 439.38,-557"/>
<text xml:space="preserve" text-anchor="middle" x="405.88" y="-534.55" font-family="Helvetica,sans-Serif" font-size="11.00">GET /api/health</text>
</g>
<!-- health&#45;&gt;ui -->
<g id="edge24" class="edge">
<title>health&#45;&gt;ui</title>
<path fill="none" stroke="#475569" stroke-width="1.25" d="M359.83,-533.2C302.67,-525.84 203.83,-513.12 139.86,-504.88"/>
<polygon fill="#475569" stroke="#475569" stroke-width="1.25" points="140.33,-502.3 132.56,-503.94 139.66,-507.5 140.33,-502.3"/>
<text xml:space="preserve" text-anchor="middle" x="225.25" y="-521.71" font-family="Helvetica,sans-Serif" font-size="9.00">status ok</text>
</g>
<!-- definition&#45;&gt;ui -->
<g id="edge2" class="edge">
<title>definition&#45;&gt;ui</title>
<path fill="none" stroke="#475569" stroke-width="1.25" d="M332.96,-468.16C275.13,-474.71 194.75,-483.83 139.93,-490.05"/>
<polygon fill="#475569" stroke="#475569" stroke-width="1.25" points="139.72,-487.43 132.56,-490.88 140.31,-492.65 139.72,-487.43"/>
<text xml:space="preserve" text-anchor="middle" x="225.25" y="-485.18" font-family="Helvetica,sans-Serif" font-size="9.00">steps + parameters</text>
</g>
<!-- normalize -->
<g id="node9" class="node">
<title>normalize</title>
<path fill="#dcfce7" stroke="#16a34a" stroke-width="1.25" d="M740.25,-320C740.25,-320 670.25,-320 670.25,-320 664.25,-320 658.25,-314 658.25,-308 658.25,-308 658.25,-296 658.25,-296 658.25,-290 664.25,-284 670.25,-284 670.25,-284 740.25,-284 740.25,-284 746.25,-284 752.25,-290 752.25,-296 752.25,-296 752.25,-308 752.25,-308 752.25,-314 746.25,-320 740.25,-320"/>
<text xml:space="preserve" text-anchor="middle" x="705.25" y="-297.55" font-family="Helvetica,sans-Serif" font-size="11.00">normalize config</text>
</g>
<!-- create&#45;&gt;normalize -->
<g id="edge4" class="edge">
<title>create&#45;&gt;normalize</title>
<path fill="none" stroke="#475569" stroke-width="1.25" d="M461.42,-302C514.57,-302 594.98,-302 648.52,-302"/>
<polygon fill="#475569" stroke="#475569" stroke-width="1.25" points="648.47,-304.63 655.97,-302 648.47,-299.38 648.47,-304.63"/>
</g>
<!-- record -->
<g id="node10" class="node">
<title>record</title>
<path fill="#bbf7d0" stroke="#16a34a" stroke-width="1.25" d="M1068.5,-399C1068.5,-399 915.25,-399 915.25,-399 909.25,-399 903.25,-393 903.25,-387 903.25,-387 903.25,-375 903.25,-375 903.25,-369 909.25,-363 915.25,-363 915.25,-363 1068.5,-363 1068.5,-363 1074.5,-363 1080.5,-369 1080.5,-375 1080.5,-375 1080.5,-387 1080.5,-387 1080.5,-393 1074.5,-399 1068.5,-399"/>
<text xml:space="preserve" text-anchor="middle" x="991.88" y="-382.55" font-family="Helvetica,sans-Serif" font-size="11.00">SessionRecord</text>
<text xml:space="preserve" text-anchor="middle" x="991.88" y="-370.55" font-family="Helvetica,sans-Serif" font-size="11.00">WorkflowState + RuntimeContext</text>
</g>
<!-- get&#45;&gt;record -->
<g id="edge22" class="edge">
<title>get&#45;&gt;record</title>
<path fill="none" stroke="#475569" stroke-width="1.25" d="M467.37,-391.56C535.26,-403.41 636,-421 636,-421 636,-421 772.62,-421 772.62,-421 772.62,-421 835.54,-409.47 893.81,-398.79"/>
<polygon fill="#475569" stroke="#475569" stroke-width="1.25" points="893.97,-401.43 900.87,-397.5 893.02,-396.27 893.97,-401.43"/>
</g>
<!-- validate -->
<g id="node11" class="node">
<title>validate</title>
<path fill="#dcfce7" stroke="#16a34a" stroke-width="1.25" d="M754.5,-399C754.5,-399 656,-399 656,-399 650,-399 644,-393 644,-387 644,-387 644,-375 644,-375 644,-369 650,-363 656,-363 656,-363 754.5,-363 754.5,-363 760.5,-363 766.5,-369 766.5,-375 766.5,-375 766.5,-387 766.5,-387 766.5,-393 760.5,-399 754.5,-399"/>
<text xml:space="preserve" text-anchor="middle" x="705.25" y="-382.55" font-family="Helvetica,sans-Serif" font-size="11.00">validate busy state</text>
<text xml:space="preserve" text-anchor="middle" x="705.25" y="-370.55" font-family="Helvetica,sans-Serif" font-size="11.00">validate dependencies</text>
</g>
<!-- runstep&#45;&gt;validate -->
<g id="edge11" class="edge">
<title>runstep&#45;&gt;validate</title>
<path fill="none" stroke="#475569" stroke-width="1.25" d="M458.3,-241.59C487.19,-252.04 517.5,-263 517.5,-263 517.5,-263 636,-342 636,-342 636,-342 649.16,-349.52 663.92,-357.95"/>
<polygon fill="#475569" stroke="#475569" stroke-width="1.25" points="662.27,-360.03 670.08,-361.48 664.87,-355.47 662.27,-360.03"/>
</g>
<!-- runnext&#45;&gt;validate -->
<g id="edge10" class="edge">
<title>runnext&#45;&gt;validate</title>
<path fill="none" stroke="#475569" stroke-width="1.25" d="M458.3,-162.59C487.19,-173.04 517.5,-184 517.5,-184 517.5,-184 606,-274 606,-274 606,-274 636,-342 636,-342 636,-342 649.16,-349.52 663.92,-357.95"/>
<polygon fill="#475569" stroke="#475569" stroke-width="1.25" points="662.27,-360.03 670.08,-361.48 664.87,-355.47 662.27,-360.03"/>
</g>
<!-- runall&#45;&gt;validate -->
<g id="edge12" class="edge">
<title>runall&#45;&gt;validate</title>
<path fill="none" stroke="#475569" stroke-width="1.25" d="M459.6,-599.41C488.09,-589.37 517.5,-579 517.5,-579 517.5,-579 630.42,-459.28 680.65,-406.03"/>
<polygon fill="#475569" stroke="#475569" stroke-width="1.25" points="682.48,-407.91 685.72,-400.65 678.66,-404.3 682.48,-407.91"/>
</g>
<!-- normalize&#45;&gt;record -->
<g id="edge5" class="edge">
<title>normalize&#45;&gt;record</title>
<path fill="none" stroke="#475569" stroke-width="1.25" d="M752.61,-314.87C796.54,-327.06 863.3,-345.59 914.99,-359.94"/>
<polygon fill="#475569" stroke="#475569" stroke-width="1.25" points="914.05,-362.4 921.98,-361.88 915.45,-357.34 914.05,-362.4"/>
<text xml:space="preserve" text-anchor="middle" x="834.88" y="-345.07" font-family="Helvetica,sans-Serif" font-size="9.00">new session id</text>
</g>
<!-- record&#45;&gt;ui -->
<g id="edge6" class="edge">
<title>record&#45;&gt;ui</title>
<path fill="none" stroke="#475569" stroke-width="1.25" d="M985.79,-399.36C962.29,-484.3 865.25,-835 865.25,-835 865.25,-835 186.25,-835 186.25,-835 186.25,-835 112.56,-603.56 87.13,-523.71"/>
<polygon fill="#475569" stroke="#475569" stroke-width="1.25" points="89.76,-523.33 84.99,-516.98 84.76,-524.92 89.76,-523.33"/>
<text xml:space="preserve" text-anchor="middle" x="576.75" y="-836.2" font-family="Helvetica,sans-Serif" font-size="9.00">WorkflowState</text>
</g>
<!-- record&#45;&gt;ui -->
<g id="edge23" class="edge">
<title>record&#45;&gt;ui</title>
<path fill="none" stroke="#475569" stroke-width="1.25" d="M963.38,-399.59C862.35,-467.88 517.5,-701 517.5,-701 517.5,-701 294.25,-701 294.25,-701 294.25,-701 186.25,-653 186.25,-653 186.25,-653 127.21,-567.42 96.58,-523.03"/>
<polygon fill="#475569" stroke="#475569" stroke-width="1.25" points="98.89,-521.75 92.47,-517.07 94.57,-524.73 98.89,-521.75"/>
<text xml:space="preserve" text-anchor="middle" x="576.75" y="-681.81" font-family="Helvetica,sans-Serif" font-size="9.00">current state</text>
</g>
<!-- validate&#45;&gt;ui -->
<g id="edge14" class="edge">
<title>validate&#45;&gt;ui</title>
<path fill="none" stroke="#dc2626" stroke-width="1.25" d="M693.36,-399.51C667.78,-442.99 606,-548 606,-548 606,-548 517.5,-681 517.5,-681 517.5,-681 294.25,-681 294.25,-681 294.25,-681 165.85,-571.43 107.21,-521.4"/>
<polygon fill="#dc2626" stroke="#dc2626" stroke-width="1.25" points="108.94,-519.42 101.53,-516.54 105.53,-523.41 108.94,-519.42"/>
<text xml:space="preserve" text-anchor="middle" x="405.88" y="-682.2" font-family="Helvetica,sans-Serif" font-size="9.00" fill="#dc2626">409 conflict</text>
</g>
<!-- enqueue -->
<g id="node12" class="node">
<title>enqueue</title>
<path fill="#bbf7d0" stroke="#16a34a" stroke-width="1.25" d="M1041.88,-281C1041.88,-281 941.88,-281 941.88,-281 935.88,-281 929.88,-275 929.88,-269 929.88,-269 929.88,-257 929.88,-257 929.88,-251 935.88,-245 941.88,-245 941.88,-245 1041.88,-245 1041.88,-245 1047.88,-245 1053.88,-251 1053.88,-257 1053.88,-257 1053.88,-269 1053.88,-269 1053.88,-275 1047.88,-281 1041.88,-281"/>
<text xml:space="preserve" text-anchor="middle" x="991.88" y="-258.55" font-family="Helvetica,sans-Serif" font-size="11.00">submit background job</text>
</g>
<!-- validate&#45;&gt;enqueue -->
<g id="edge13" class="edge">
<title>validate&#45;&gt;enqueue</title>
<path fill="none" stroke="#475569" stroke-width="1.25" d="M737.88,-362.41C754.98,-352.37 772.62,-342 772.62,-342 772.62,-342 804.5,-310.25 804.5,-310.25 804.5,-310.25 867.54,-294.27 920.29,-280.89"/>
<polygon fill="#475569" stroke="#475569" stroke-width="1.25" points="920.87,-283.45 927.5,-279.07 919.58,-278.37 920.87,-283.45"/>
<text xml:space="preserve" text-anchor="middle" x="834.88" y="-311.45" font-family="Helvetica,sans-Serif" font-size="9.00">accepted</text>
</g>
<!-- execute -->
<g id="node13" class="node">
<title>execute</title>
<path fill="#86efac" stroke="#15803d" stroke-width="1.25" d="M1261.25,-261C1261.25,-261 1169.5,-261 1169.5,-261 1163.5,-261 1157.5,-255 1157.5,-249 1157.5,-249 1157.5,-237 1157.5,-237 1157.5,-231 1163.5,-225 1169.5,-225 1169.5,-225 1261.25,-225 1261.25,-225 1267.25,-225 1273.25,-231 1273.25,-237 1273.25,-237 1273.25,-249 1273.25,-249 1273.25,-255 1267.25,-261 1261.25,-261"/>
<text xml:space="preserve" text-anchor="middle" x="1215.38" y="-244.55" font-family="Helvetica,sans-Serif" font-size="11.00">execute step handler</text>
<text xml:space="preserve" text-anchor="middle" x="1215.38" y="-232.55" font-family="Helvetica,sans-Serif" font-size="11.00">capture stdout/stderr</text>
</g>
<!-- enqueue&#45;&gt;execute -->
<g id="edge15" class="edge">
<title>enqueue&#45;&gt;execute</title>
<path fill="none" stroke="#475569" stroke-width="1.25" d="M1054.28,-257.46C1083.4,-254.83 1118.25,-251.68 1147.98,-248.99"/>
<polygon fill="#475569" stroke="#475569" stroke-width="1.25" points="1147.92,-251.64 1155.15,-248.35 1147.45,-246.41 1147.92,-251.64"/>
</g>
<!-- handler -->
<g id="node15" class="node">
<title>handler</title>
<path fill="#fde68a" stroke="#d97706" stroke-width="1.25" d="M475.38,-69C475.38,-69 336.38,-69 336.38,-69 330.38,-69 324.38,-63 324.38,-57 324.38,-57 324.38,-45 324.38,-45 324.38,-39 330.38,-33 336.38,-33 336.38,-33 475.38,-33 475.38,-33 481.38,-33 487.38,-39 487.38,-45 487.38,-45 487.38,-57 487.38,-57 487.38,-63 481.38,-69 475.38,-69"/>
<text xml:space="preserve" text-anchor="middle" x="405.88" y="-52.55" font-family="Helvetica,sans-Serif" font-size="11.00">step handler</text>
<text xml:space="preserve" text-anchor="middle" x="405.88" y="-40.55" font-family="Helvetica,sans-Serif" font-size="11.00">load / sample / decode / export</text>
</g>
<!-- execute&#45;&gt;handler -->
<g id="edge16" class="edge">
<title>execute&#45;&gt;handler</title>
<path fill="none" stroke="#475569" stroke-width="1.25" d="M1178.97,-224.49C1074.15,-169.67 772.62,-12 772.62,-12 772.62,-12 636,-12 636,-12 636,-12 561.1,-24.75 496.95,-35.67"/>
<polygon fill="#475569" stroke="#475569" stroke-width="1.25" points="496.8,-33.03 489.84,-36.88 497.68,-38.21 496.8,-33.03"/>
</g>
<!-- update -->
<g id="node14" class="node">
<title>update</title>
<path fill="#dcfce7" stroke="#16a34a" stroke-width="1.25" d="M743.25,-241C743.25,-241 667.25,-241 667.25,-241 661.25,-241 655.25,-235 655.25,-229 655.25,-229 655.25,-217 655.25,-217 655.25,-211 661.25,-205 667.25,-205 667.25,-205 743.25,-205 743.25,-205 749.25,-205 755.25,-211 755.25,-217 755.25,-217 755.25,-229 755.25,-229 755.25,-235 749.25,-241 743.25,-241"/>
<text xml:space="preserve" text-anchor="middle" x="705.25" y="-224.55" font-family="Helvetica,sans-Serif" font-size="11.00">update StepState</text>
<text xml:space="preserve" text-anchor="middle" x="705.25" y="-212.55" font-family="Helvetica,sans-Serif" font-size="11.00">logs + artifacts</text>
</g>
<!-- update&#45;&gt;record -->
<g id="edge20" class="edge">
<title>update&#45;&gt;record</title>
<path fill="none" stroke="#475569" stroke-width="1.25" d="M753.96,-241.6C800.79,-259.86 865.25,-285 865.25,-285 865.25,-285 922.29,-328.59 959.5,-357.02"/>
<polygon fill="#475569" stroke="#475569" stroke-width="1.25" points="957.6,-358.87 965.15,-361.34 960.78,-354.7 957.6,-358.87"/>
</g>
<!-- handler&#45;&gt;update -->
<g id="edge18" class="edge">
<title>handler&#45;&gt;update</title>
<path fill="none" stroke="#475569" stroke-width="1.25" d="M442.79,-69.51C475.09,-86.15 517.5,-108 517.5,-108 517.5,-108 611.94,-166.15 666.5,-199.75"/>
<polygon fill="#475569" stroke="#475569" stroke-width="1.25" points="664.87,-201.83 672.63,-203.53 667.62,-197.36 664.87,-201.83"/>
<text xml:space="preserve" text-anchor="middle" x="576.75" y="-163.25" font-family="Helvetica,sans-Serif" font-size="9.00">outcome</text>
</g>
<!-- artifacts -->
<g id="node16" class="node">
<title>artifacts</title>
<path fill="#fef3c7" stroke="#f59e0b" stroke-width="1.25" d="M752.62,-69C752.62,-69 657.88,-69 657.88,-69 651.88,-69 645.88,-63 645.88,-57 645.88,-57 645.88,-45 645.88,-45 645.88,-39 651.88,-33 657.88,-33 657.88,-33 752.62,-33 752.62,-33 758.62,-33 764.62,-39 764.62,-45 764.62,-45 764.62,-57 764.62,-57 764.62,-63 758.62,-69 752.62,-69"/>
<text xml:space="preserve" text-anchor="middle" x="705.25" y="-46.55" font-family="Helvetica,sans-Serif" font-size="11.00">outputs/&lt;session&#45;id&gt;/</text>
</g>
<!-- handler&#45;&gt;artifacts -->
<g id="edge17" class="edge">
<title>handler&#45;&gt;artifacts</title>
<path fill="none" stroke="#475569" stroke-width="1.25" d="M487.74,-51C534.31,-51 592.17,-51 636.35,-51"/>
<polygon fill="#475569" stroke="#475569" stroke-width="1.25" points="636.17,-53.63 643.67,-51 636.17,-48.38 636.17,-53.63"/>
<text xml:space="preserve" text-anchor="middle" x="576.75" y="-52.2" font-family="Helvetica,sans-Serif" font-size="9.00">export step</text>
</g>
<!-- artifacts&#45;&gt;update -->
<g id="edge19" class="edge">
<title>artifacts&#45;&gt;update</title>
<path fill="none" stroke="#475569" stroke-width="1.25" d="M705.25,-69.41C705.25,-99.59 705.25,-159.77 705.25,-195.18"/>
<polygon fill="#475569" stroke="#475569" stroke-width="1.25" points="702.63,-195.07 705.25,-202.57 707.88,-195.07 702.63,-195.07"/>
<text xml:space="preserve" text-anchor="middle" x="697.38" y="-133.32" font-family="Helvetica,sans-Serif" font-size="9.00">Artifact metadata</text>
</g>
</g>
</svg>
