<?xml version="1.0" encoding="UTF-8" standalone="no"?>
<!DOCTYPE svg PUBLIC "-//W3C//DTD SVG 1.1//EN"
 "http://www.w3.org/Graphics/SVG/1.1/DTD/svg11.dtd">
<!-- Generated by graphviz version 14.1.5 (20260411.2331)
 -->
<!-- Title: WorkflowStepStateMachine Pages: 1 -->
<svg width="1006pt" height="690pt"
 viewBox="0.00 0.00 1006.00 690.00" xmlns="http://www.w3.org/2000/svg" xmlns:xlink="http://www.w3.org/1999/xlink">
<g id="graph0" class="graph" transform="scale(1 1) rotate(0) translate(25.2 665.2)">
<title>WorkflowStepStateMachine</title>
<polygon fill="#f8fafc" stroke="none" points="-25.2,25.2 -25.2,-665.2 980.85,-665.2 980.85,25.2 -25.2,25.2"/>
<text xml:space="preserve" text-anchor="middle" x="477.83" y="-613.2" font-family="Helvetica,sans-Serif" font-weight="bold" font-size="24.00">Workflow Step State Machine</text>
<g id="clust1" class="cluster">
<title>cluster_controls</title>
<path fill="#f1f5f9" stroke="#94a3b8" d="M507.53,-399.25C507.53,-399.25 935.65,-399.25 935.65,-399.25 941.65,-399.25 947.65,-405.25 947.65,-411.25 947.65,-411.25 947.65,-501.25 947.65,-501.25 947.65,-507.25 941.65,-513.25 935.65,-513.25 935.65,-513.25 507.53,-513.25 507.53,-513.25 501.53,-513.25 495.53,-507.25 495.53,-501.25 495.53,-501.25 495.53,-411.25 495.53,-411.25 495.53,-405.25 501.53,-399.25 507.53,-399.25"/>
<text xml:space="preserve" text-anchor="middle" x="721.59" y="-486.45" font-family="Helvetica,sans-Serif" font-weight="bold" font-size="24.00">Backend Guards</text>
</g>
<g id="clust2" class="cluster">
<title>cluster_outputs</title>
<path fill="#f5f3ff" stroke="#a78bfa" d="M470.65,-18.25C470.65,-18.25 681.65,-18.25 681.65,-18.25 687.65,-18.25 693.65,-24.25 693.65,-30.25 693.65,-30.25 693.65,-271.25 693.65,-271.25 693.65,-277.25 687.65,-283.25 681.65,-283.25 681.65,-283.25 470.65,-283.25 470.65,-283.25 464.65,-283.25 458.65,-277.25 458.65,-271.25 458.65,-271.25 458.65,-30.25 458.65,-30.25 458.65,-24.25 464.65,-18.25 470.65,-18.25"/>
<text xml:space="preserve" text-anchor="middle" x="576.15" y="-256.45" font-family="Helvetica,sans-Serif" font-weight="bold" font-size="24.00">Observable Output</text>
</g>
<!-- pending -->
<g id="node1" class="node">
<title>pending</title>
<ellipse fill="#e2e8f0" stroke="#64748b" stroke-width="1.4" cx="268.4" cy="-589.25" rx="38.7" ry="18"/>
<text xml:space="preserve" text-anchor="middle" x="268.4" y="-584.23" font-family="Helvetica,sans-Serif" font-weight="bold" font-size="12.00">pending</text>
</g>
<!-- validate -->
<g id="node6" class="node">
<title>validate</title>
<polygon fill="#f8fafc" stroke="#64748b" stroke-width="1.4" points="647.78,-472.38 503.53,-472.38 503.53,-426.12 647.78,-426.12 647.78,-472.38"/>
<text xml:space="preserve" text-anchor="middle" x="575.65" y="-456.98" font-family="Helvetica,sans-Serif" font-weight="bold" font-size="12.00">validate step id</text>
<text xml:space="preserve" text-anchor="middle" x="575.65" y="-444.23" font-family="Helvetica,sans-Serif" font-weight="bold" font-size="12.00">validate dependencies</text>
<text xml:space="preserve" text-anchor="middle" x="575.65" y="-431.48" font-family="Helvetica,sans-Serif" font-weight="bold" font-size="12.00">validate not busy</text>
</g>
<!-- pending&#45;&gt;validate -->
<g id="edge1" class="edge">
<title>pending&#45;&gt;validate</title>
<path fill="none" stroke="#475569" stroke-width="1.3" d="M297.03,-576.58C345.73,-554.24 447.95,-507.36 513.84,-477.14"/>
<polygon fill="#475569" stroke="#475569" stroke-width="1.3" points="514.99,-479.69 521.1,-473.81 512.66,-474.6 514.99,-479.69"/>
<text xml:space="preserve" text-anchor="middle" x="390.78" y="-549.63" font-family="Helvetica,sans-Serif" font-size="10.00">user requests run</text>
</g>
<!-- running -->
<g id="node2" class="node">
<title>running</title>
<ellipse fill="#dbeafe" stroke="#2563eb" stroke-width="1.4" cx="37.32" cy="-77.25" rx="37.32" ry="18"/>
<text xml:space="preserve" text-anchor="middle" x="37.32" y="-72.22" font-family="Helvetica,sans-Serif" font-weight="bold" font-size="12.00">running</text>
</g>
<!-- completed -->
<g id="node3" class="node">
<title>completed</title>
<ellipse fill="#dcfce7" stroke="#16a34a" stroke-width="1.4" cx="268.4" cy="-192.25" rx="46.5" ry="18"/>
<text xml:space="preserve" text-anchor="middle" x="268.4" y="-187.22" font-family="Helvetica,sans-Serif" font-weight="bold" font-size="12.00">completed</text>
</g>
<!-- running&#45;&gt;completed -->
<g id="edge8" class="edge">
<title>running&#45;&gt;completed</title>
<path fill="none" stroke="#475569" stroke-width="1.3" d="M64.16,-90.22C104.63,-110.54 183.2,-149.98 229.9,-173.43"/>
<polygon fill="#475569" stroke="#475569" stroke-width="1.3" points="228.63,-175.92 237.04,-177.01 231.14,-170.92 228.63,-175.92"/>
<text xml:space="preserve" text-anchor="middle" x="148.27" y="-150.18" font-family="Helvetica,sans-Serif" font-size="10.00">handler success</text>
</g>
<!-- skipped -->
<g id="node4" class="node">
<title>skipped</title>
<ellipse fill="#fef3c7" stroke="#d97706" stroke-width="1.4" cx="268.4" cy="-344.25" rx="37.78" ry="18"/>
<text xml:space="preserve" text-anchor="middle" x="268.4" y="-339.23" font-family="Helvetica,sans-Serif" font-weight="bold" font-size="12.00">skipped</text>
</g>
<!-- running&#45;&gt;skipped -->
<g id="edge9" class="edge">
<title>running&#45;&gt;skipped</title>
<path fill="none" stroke="#475569" stroke-width="1.3" d="M51.61,-94.23C72.99,-121.56 112.65,-172.25 112.65,-172.25 112.65,-172.25 203,-272.67 245.63,-320.05"/>
<polygon fill="#475569" stroke="#475569" stroke-width="1.3" points="243.53,-321.91 250.96,-325.98 247.69,-318.16 243.53,-321.91"/>
<text xml:space="preserve" text-anchor="middle" x="148.27" y="-249.7" font-family="Helvetica,sans-Serif" font-size="10.00">handler skip</text>
</g>
<!-- failed -->
<g id="node5" class="node">
<title>failed</title>
<ellipse fill="#fee2e2" stroke="#dc2626" stroke-width="1.4" cx="268.4" cy="-77.25" rx="28.6" ry="18"/>
<text xml:space="preserve" text-anchor="middle" x="268.4" y="-72.22" font-family="Helvetica,sans-Serif" font-weight="bold" font-size="12.00">failed</text>
</g>
<!-- running&#45;&gt;failed -->
<g id="edge10" class="edge">
<title>running&#45;&gt;failed</title>
<path fill="none" stroke="#475569" stroke-width="1.3" d="M75.13,-77.25C117.51,-77.25 186.79,-77.25 229.59,-77.25"/>
<polygon fill="#475569" stroke="#475569" stroke-width="1.3" points="229.38,-80.05 237.38,-77.25 229.38,-74.45 229.38,-80.05"/>
<text xml:space="preserve" text-anchor="middle" x="148.27" y="-79" font-family="Helvetica,sans-Serif" font-size="10.00">exception</text>
</g>
<!-- logs -->
<g id="node8" class="node">
<title>logs</title>
<polygon fill="#ede9fe" stroke="#7c3aed" stroke-width="1.4" points="652.28,-62.25 499.03,-62.25 499.03,-26.25 652.28,-26.25 652.28,-62.25"/>
<text xml:space="preserve" text-anchor="middle" x="575.65" y="-45.6" font-family="Helvetica,sans-Serif" font-weight="bold" font-size="12.00">logs</text>
<text xml:space="preserve" text-anchor="middle" x="575.65" y="-32.85" font-family="Helvetica,sans-Serif" font-weight="bold" font-size="12.00">timestamps + messages</text>
</g>
<!-- running&#45;&gt;logs -->
<g id="edge11" class="edge">
<title>running&#45;&gt;logs</title>
<path fill="none" stroke="#475569" stroke-width="1.3" d="M69.46,-67.71C121.84,-51.66 221.9,-21 221.9,-21 221.9,-21 314.9,-21 314.9,-21 314.9,-21 413.24,-29.8 488.9,-36.57"/>
<polygon fill="#475569" stroke="#475569" stroke-width="1.3" points="488.29,-39.33 496.51,-37.26 488.79,-33.75 488.29,-39.33"/>
<text xml:space="preserve" text-anchor="middle" x="268.4" y="-22.75" font-family="Helvetica,sans-Serif" font-size="10.00">stdout/stderr capture</text>
</g>
<!-- completed&#45;&gt;validate -->
<g id="edge2" class="edge">
<title>completed&#45;&gt;validate</title>
<path fill="none" stroke="#475569" stroke-width="1.3" d="M279.64,-210.15C301.94,-249.14 352.9,-338.25 352.9,-338.25 352.9,-338.25 452.75,-388.23 518.45,-421.12"/>
<polygon fill="#475569" stroke="#475569" stroke-width="1.3" points="516.91,-423.48 525.32,-424.56 519.42,-418.47 516.91,-423.48"/>
<text xml:space="preserve" text-anchor="middle" x="390.78" y="-375.9" font-family="Helvetica,sans-Serif" font-size="10.00">rerun step</text>
</g>
<!-- metrics -->
<g id="node9" class="node">
<title>metrics</title>
<polygon fill="#ede9fe" stroke="#7c3aed" stroke-width="1.4" points="635.03,-242.25 516.28,-242.25 516.28,-206.25 635.03,-206.25 635.03,-242.25"/>
<text xml:space="preserve" text-anchor="middle" x="575.65" y="-225.6" font-family="Helvetica,sans-Serif" font-weight="bold" font-size="12.00">summary</text>
<text xml:space="preserve" text-anchor="middle" x="575.65" y="-212.85" font-family="Helvetica,sans-Serif" font-weight="bold" font-size="12.00">duration + metrics</text>
</g>
<!-- completed&#45;&gt;metrics -->
<g id="edge12" class="edge">
<title>completed&#45;&gt;metrics</title>
<path fill="none" stroke="#475569" stroke-width="1.3" d="M314.61,-195.3C361.69,-198.48 428.65,-203 428.65,-203 428.65,-203 468.18,-208.75 506.11,-214.27"/>
<polygon fill="#475569" stroke="#475569" stroke-width="1.3" points="505.42,-217 513.74,-215.38 506.23,-211.46 505.42,-217"/>
<text xml:space="preserve" text-anchor="middle" x="390.78" y="-204.75" font-family="Helvetica,sans-Serif" font-size="10.00">outcome</text>
</g>
<!-- artifacts -->
<g id="node10" class="node">
<title>artifacts</title>
<polygon fill="#ddd6fe" stroke="#8b5cf6" stroke-width="1.4" points="636.9,-152.25 514.4,-152.25 514.4,-116.25 636.9,-116.25 636.9,-152.25"/>
<text xml:space="preserve" text-anchor="middle" x="575.65" y="-135.6" font-family="Helvetica,sans-Serif" font-weight="bold" font-size="12.00">artifacts</text>
<text xml:space="preserve" text-anchor="middle" x="575.65" y="-122.85" font-family="Helvetica,sans-Serif" font-weight="bold" font-size="12.00">export_model only</text>
</g>
<!-- completed&#45;&gt;artifacts -->
<g id="edge15" class="edge">
<title>completed&#45;&gt;artifacts</title>
<path fill="none" stroke="#7c3aed" stroke-width="1.3" d="M309.68,-183.45C331.04,-178.78 352.9,-174 352.9,-174 352.9,-174 439.4,-158.49 504.35,-146.85"/>
<polygon fill="#7c3aed" stroke="#7c3aed" stroke-width="1.3" points="504.45,-149.68 511.83,-145.51 503.46,-144.17 504.45,-149.68"/>
<text xml:space="preserve" text-anchor="middle" x="390.78" y="-175.75" font-family="Helvetica,sans-Serif" font-size="10.00">export complete</text>
</g>
<!-- skipped&#45;&gt;validate -->
<g id="edge3" class="edge">
<title>skipped&#45;&gt;validate</title>
<path fill="none" stroke="#475569" stroke-width="1.3" d="M285.9,-360.45C310.23,-384.35 352.9,-426.25 352.9,-426.25 352.9,-426.25 430.05,-434.25 493.34,-440.82"/>
<polygon fill="#475569" stroke="#475569" stroke-width="1.3" points="492.76,-443.57 501,-441.61 493.34,-438 492.76,-443.57"/>
<text xml:space="preserve" text-anchor="middle" x="390.78" y="-435.44" font-family="Helvetica,sans-Serif" font-size="10.00">rerun step</text>
</g>
<!-- skipped&#45;&gt;metrics -->
<g id="edge13" class="edge">
<title>skipped&#45;&gt;metrics</title>
<path fill="none" stroke="#475569" stroke-width="1.3" d="M299.35,-333.34C345.48,-316.54 428.65,-286.25 428.65,-286.25 428.65,-286.25 480.02,-264.43 521.82,-246.68"/>
<polygon fill="#475569" stroke="#475569" stroke-width="1.3" points="522.77,-249.33 529.03,-243.62 520.58,-244.17 522.77,-249.33"/>
<text xml:space="preserve" text-anchor="middle" x="390.78" y="-315.26" font-family="Helvetica,sans-Serif" font-size="10.00">reason</text>
</g>
<!-- failed&#45;&gt;validate -->
<g id="edge4" class="edge">
<title>failed&#45;&gt;validate</title>
<path fill="none" stroke="#475569" stroke-width="1.3" d="M280.41,-94.2C293.88,-114.91 314.9,-147.25 314.9,-147.25 314.9,-147.25 352.9,-216.25 352.9,-216.25 352.9,-216.25 428.65,-273 428.65,-273 428.65,-273 506.87,-367.43 548.8,-418.05"/>
<polygon fill="#475569" stroke="#475569" stroke-width="1.3" points="546.45,-419.59 553.71,-423.96 550.76,-416.02 546.45,-419.59"/>
<text xml:space="preserve" text-anchor="middle" x="390.78" y="-274.75" font-family="Helvetica,sans-Serif" font-size="10.00">retry step</text>
</g>
<!-- failed&#45;&gt;logs -->
<g id="edge14" class="edge">
<title>failed&#45;&gt;logs</title>
<path fill="none" stroke="#475569" stroke-width="1.3" d="M296.74,-72.58C321.09,-68.43 352.9,-63 352.9,-63 352.9,-63 426.15,-56.81 488.45,-51.54"/>
<polygon fill="#475569" stroke="#475569" stroke-width="1.3" points="488.64,-54.33 496.38,-50.87 488.17,-48.75 488.64,-54.33"/>
<text xml:space="preserve" text-anchor="middle" x="390.78" y="-64.75" font-family="Helvetica,sans-Serif" font-size="10.00">error</text>
</g>
<!-- validate&#45;&gt;pending -->
<g id="edge7" class="edge">
<title>validate&#45;&gt;pending</title>
<path fill="none" stroke="#dc2626" stroke-width="1.3" d="M545.11,-472.93C502.44,-507.11 428.65,-566.25 428.65,-566.25 428.65,-566.25 362.67,-575.78 315.65,-582.57"/>
<polygon fill="#dc2626" stroke="#dc2626" stroke-width="1.3" points="315.4,-579.78 307.88,-583.69 316.2,-585.32 315.4,-579.78"/>
<text xml:space="preserve" text-anchor="middle" x="390.78" y="-578.81" font-family="Helvetica,sans-Serif" font-size="10.00" fill="#dc2626">409 conflict</text>
</g>
<!-- reset -->
<g id="node7" class="node">
<title>reset</title>
<polygon fill="#f8fafc" stroke="#64748b" stroke-width="1.4" points="939.65,-457.25 801.4,-457.25 801.4,-421.25 939.65,-421.25 939.65,-457.25"/>
<text xml:space="preserve" text-anchor="middle" x="870.53" y="-440.6" font-family="Helvetica,sans-Serif" font-weight="bold" font-size="12.00">reset downstream</text>
<text xml:space="preserve" text-anchor="middle" x="870.53" y="-427.85" font-family="Helvetica,sans-Serif" font-weight="bold" font-size="12.00">clear derived artifacts</text>
</g>
<!-- validate&#45;&gt;reset -->
<g id="edge5" class="edge">
<title>validate&#45;&gt;reset</title>
<path fill="none" stroke="#475569" stroke-width="1.3" d="M648.3,-446.8C691.51,-445.33 746.61,-443.45 791.01,-441.93"/>
<polygon fill="#475569" stroke="#475569" stroke-width="1.3" points="791.02,-444.73 798.92,-441.66 790.83,-439.14 791.02,-444.73"/>
<text xml:space="preserve" text-anchor="middle" x="743.53" y="-445.7" font-family="Helvetica,sans-Serif" font-size="10.00">accepted</text>
</g>
<!-- reset&#45;&gt;running -->
<g id="edge6" class="edge">
<title>reset&#45;&gt;running</title>
<path fill="none" stroke="#475569" stroke-width="1.3" d="M861.97,-420.6C828.3,-337.53 693.65,-5.25 693.65,-5.25 693.65,-5.25 428.65,0 428.65,0 428.65,0 352.9,0 352.9,0 352.9,0 221.9,-8.25 221.9,-8.25 221.9,-8.25 112.65,-20.25 112.65,-20.25 112.65,-20.25 87.18,-39.78 66.06,-55.98"/>
<polygon fill="#475569" stroke="#475569" stroke-width="1.3" points="64.45,-53.69 59.8,-60.78 67.85,-58.13 64.45,-53.69"/>
<text xml:space="preserve" text-anchor="middle" x="390.78" y="-1.75" font-family="Helvetica,sans-Serif" font-size="10.00">submit job</text>
</g>
</g>
</svg>
