<?xml version="1.0" encoding="UTF-8" standalone="no"?>
<!DOCTYPE svg PUBLIC "-//W3C//DTD SVG 1.1//EN"
 "http://www.w3.org/Graphics/SVG/1.1/DTD/svg11.dtd">
<!-- Generated by graphviz version 14.1.5 (20260411.2331)
 -->
<!-- Title: DataArtifactFlow Pages: 1 -->
<svg width="3210pt" height="402pt"
 viewBox="0.00 0.00 3210.00 402.00" xmlns="http://www.w3.org/2000/svg" xmlns:xlink="http://www.w3.org/1999/xlink">
<g id="graph0" class="graph" transform="scale(1 1) rotate(0) translate(25.2 376.95)">
<title>DataArtifactFlow</title>
<polygon fill="#f8fafc" stroke="none" points="-25.2,25.2 -25.2,-376.95 3184.95,-376.95 3184.95,25.2 -25.2,25.2"/>
<text xml:space="preserve" text-anchor="middle" x="1579.88" y="-324.95" font-family="Helvetica,sans-Serif" font-weight="bold" font-size="24.00">TRELLIS Data and Artifact Flow</text>
<g id="clust1" class="cluster">
<title>cluster_preprocess</title>
<path fill="#f0f9ff" stroke="#38bdf8" d="M280.5,-205C280.5,-205 962.62,-205 962.62,-205 968.62,-205 974.62,-211 974.62,-217 974.62,-217 974.62,-299 974.62,-299 974.62,-305 968.62,-311 962.62,-311 962.62,-311 280.5,-311 280.5,-311 274.5,-311 268.5,-305 268.5,-299 268.5,-299 268.5,-217 268.5,-217 268.5,-211 274.5,-205 280.5,-205"/>
<text xml:space="preserve" text-anchor="middle" x="621.56" y="-284.2" font-family="Helvetica,sans-Serif" font-weight="bold" font-size="24.00">Image Preparation</text>
</g>
<g id="clust2" class="cluster">
<title>cluster_latents</title>
<path fill="#f0fdf4" stroke="#22c55e" d="M858.25,-8C858.25,-8 2021.75,-8 2021.75,-8 2027.75,-8 2033.75,-14 2033.75,-20 2033.75,-20 2033.75,-185 2033.75,-185 2033.75,-191 2027.75,-197 2021.75,-197 2021.75,-197 858.25,-197 858.25,-197 852.25,-197 846.25,-191 846.25,-185 846.25,-185 846.25,-20 846.25,-20 846.25,-14 852.25,-8 858.25,-8"/>
<text xml:space="preserve" text-anchor="middle" x="1440" y="-170.2" font-family="Helvetica,sans-Serif" font-weight="bold" font-size="24.00">Runtime Tensors</text>
</g>
<g id="clust3" class="cluster">
<title>cluster_export</title>
<path fill="#fffbeb" stroke="#f59e0b" d="M2162,-52C2162,-52 2746.5,-52 2746.5,-52 2752.5,-52 2758.5,-58 2758.5,-64 2758.5,-64 2758.5,-208 2758.5,-208 2758.5,-214 2752.5,-220 2746.5,-220 2746.5,-220 2162,-220 2162,-220 2156,-220 2150,-214 2150,-208 2150,-208 2150,-64 2150,-64 2150,-58 2156,-52 2162,-52"/>
<text xml:space="preserve" text-anchor="middle" x="2454.25" y="-193.2" font-family="Helvetica,sans-Serif" font-weight="bold" font-size="24.00">Export</text>
</g>
<g id="clust4" class="cluster">
<title>cluster_ui</title>
<path fill="#f5f3ff" stroke="#a78bfa" d="M2858.25,-59C2858.25,-59 3139.75,-59 3139.75,-59 3145.75,-59 3151.75,-65 3151.75,-71 3151.75,-71 3151.75,-215 3151.75,-215 3151.75,-221 3145.75,-227 3139.75,-227 3139.75,-227 2858.25,-227 2858.25,-227 2852.25,-227 2846.25,-221 2846.25,-215 2846.25,-215 2846.25,-71 2846.25,-71 2846.25,-65 2852.25,-59 2858.25,-59"/>
<text xml:space="preserve" text-anchor="middle" x="2999" y="-200.2" font-family="Helvetica,sans-Serif" font-weight="bold" font-size="24.00">UI Presentation</text>
</g>
<!-- input -->
<g id="node1" class="node">
<title>input</title>
<path fill="#dbeafe" stroke="#2563eb" stroke-width="1.25" d="M139.75,-270C139.75,-270 12,-270 12,-270 6,-270 0,-264 0,-258 0,-258 0,-246 0,-246 0,-240 6,-234 12,-234 12,-234 139.75,-234 139.75,-234 145.75,-234 151.75,-240 151.75,-246 151.75,-246 151.75,-258 151.75,-258 151.75,-264 145.75,-270 139.75,-270"/>
<text xml:space="preserve" text-anchor="middle" x="75.88" y="-253.55" font-family="Helvetica,sans-Serif" font-size="11.00">Input image path</text>
<text xml:space="preserve" text-anchor="middle" x="75.88" y="-241.55" font-family="Helvetica,sans-Serif" font-size="11.00">WorkflowConfig.image_path</text>
</g>
<!-- raw -->
<g id="node2" class="node">
<title>raw</title>
<path fill="#bae6fd" stroke="#0284c7" stroke-width="1.25" d="M350.25,-270C350.25,-270 288.5,-270 288.5,-270 282.5,-270 276.5,-264 276.5,-258 276.5,-258 276.5,-246 276.5,-246 276.5,-240 282.5,-234 288.5,-234 288.5,-234 350.25,-234 350.25,-234 356.25,-234 362.25,-240 362.25,-246 362.25,-246 362.25,-258 362.25,-258 362.25,-264 356.25,-270 350.25,-270"/>
<text xml:space="preserve" text-anchor="middle" x="319.38" y="-247.55" font-family="Helvetica,sans-Serif" font-size="11.00">raw PIL image</text>
</g>
<!-- input&#45;&gt;raw -->
<g id="edge1" class="edge">
<title>input&#45;&gt;raw</title>
<path fill="none" stroke="#475569" stroke-width="1.25" d="M152.29,-252C189.61,-252 233.69,-252 267.05,-252"/>
<polygon fill="#475569" stroke="#475569" stroke-width="1.25" points="266.77,-254.63 274.27,-252 266.77,-249.38 266.77,-254.63"/>
<text xml:space="preserve" text-anchor="middle" x="214.12" y="-253.2" font-family="Helvetica,sans-Serif" font-size="9.00">load_image</text>
</g>
<!-- pre -->
<g id="node3" class="node">
<title>pre</title>
<path fill="#e0f2fe" stroke="#0ea5e9" stroke-width="1.25" d="M690.5,-270C690.5,-270 526.75,-270 526.75,-270 520.75,-270 514.75,-264 514.75,-258 514.75,-258 514.75,-246 514.75,-246 514.75,-240 520.75,-234 526.75,-234 526.75,-234 690.5,-234 690.5,-234 696.5,-234 702.5,-240 702.5,-246 702.5,-246 702.5,-258 702.5,-258 702.5,-264 696.5,-270 690.5,-270"/>
<text xml:space="preserve" text-anchor="middle" x="608.62" y="-253.55" font-family="Helvetica,sans-Serif" font-size="11.00">preprocessed image</text>
<text xml:space="preserve" text-anchor="middle" x="608.62" y="-241.55" font-family="Helvetica,sans-Serif" font-size="11.00">optional background removal + crop</text>
</g>
<!-- raw&#45;&gt;pre -->
<g id="edge2" class="edge">
<title>raw&#45;&gt;pre</title>
<path fill="none" stroke="#475569" stroke-width="1.25" d="M362.76,-252C400.07,-252 455.93,-252 504.88,-252"/>
<polygon fill="#475569" stroke="#475569" stroke-width="1.25" points="504.86,-254.63 512.36,-252 504.86,-249.38 504.86,-254.63"/>
<text xml:space="preserve" text-anchor="middle" x="438.5" y="-253.2" font-family="Helvetica,sans-Serif" font-size="9.00">preprocess_image</text>
</g>
<!-- preview -->
<g id="node4" class="node">
<title>preview</title>
<path fill="#dbeafe" stroke="#2563eb" stroke-width="1.25" d="M954.62,-270C954.62,-270 876.38,-270 876.38,-270 870.38,-270 864.38,-264 864.38,-258 864.38,-258 864.38,-246 864.38,-246 864.38,-240 870.38,-234 876.38,-234 876.38,-234 954.62,-234 954.62,-234 960.62,-234 966.62,-240 966.62,-246 966.62,-246 966.62,-258 966.62,-258 966.62,-264 960.62,-270 954.62,-270"/>
<text xml:space="preserve" text-anchor="middle" x="915.5" y="-247.55" font-family="Helvetica,sans-Serif" font-size="11.00">preprocessed.png</text>
</g>
<!-- pre&#45;&gt;preview -->
<g id="edge3" class="edge">
<title>pre&#45;&gt;preview</title>
<path fill="none" stroke="#475569" stroke-width="1.25" d="M702.75,-252C752.19,-252 811.48,-252 854.73,-252"/>
<polygon fill="#475569" stroke="#475569" stroke-width="1.25" points="854.59,-254.63 862.09,-252 854.59,-249.38 854.59,-254.63"/>
<text xml:space="preserve" text-anchor="middle" x="778.38" y="-253.2" font-family="Helvetica,sans-Serif" font-size="9.00">save preview</text>
</g>
<!-- cond -->
<g id="node5" class="node">
<title>cond</title>
<path fill="#bbf7d0" stroke="#16a34a" stroke-width="1.25" d="M964.75,-156C964.75,-156 866.25,-156 866.25,-156 860.25,-156 854.25,-150 854.25,-144 854.25,-144 854.25,-132 854.25,-132 854.25,-126 860.25,-120 866.25,-120 866.25,-120 964.75,-120 964.75,-120 970.75,-120 976.75,-126 976.75,-132 976.75,-132 976.75,-144 976.75,-144 976.75,-150 970.75,-156 964.75,-156"/>
<text xml:space="preserve" text-anchor="middle" x="915.5" y="-139.55" font-family="Helvetica,sans-Serif" font-size="11.00">conditioning tensors</text>
<text xml:space="preserve" text-anchor="middle" x="915.5" y="-127.55" font-family="Helvetica,sans-Serif" font-size="11.00">512 and optional 1024</text>
</g>
<!-- pre&#45;&gt;cond -->
<g id="edge4" class="edge">
<title>pre&#45;&gt;cond</title>
<path fill="none" stroke="#475569" stroke-width="1.25" d="M659.29,-233.43C713.21,-213.27 799.26,-181.09 856.31,-159.76"/>
<polygon fill="#475569" stroke="#475569" stroke-width="1.25" points="856.98,-162.31 863.09,-157.22 855.14,-157.39 856.98,-162.31"/>
<text xml:space="preserve" text-anchor="middle" x="778.38" y="-203.03" font-family="Helvetica,sans-Serif" font-size="9.00">build_conditioning</text>
</g>
<!-- state -->
<g id="node15" class="node">
<title>state</title>
<path fill="#ede9fe" stroke="#7c3aed" stroke-width="1.25" d="M2961,-135C2961,-135 2866.25,-135 2866.25,-135 2860.25,-135 2854.25,-129 2854.25,-123 2854.25,-123 2854.25,-111 2854.25,-111 2854.25,-105 2860.25,-99 2866.25,-99 2866.25,-99 2961,-99 2961,-99 2967,-99 2973,-105 2973,-111 2973,-111 2973,-123 2973,-123 2973,-129 2967,-135 2961,-135"/>
<text xml:space="preserve" text-anchor="middle" x="2913.62" y="-112.55" font-family="Helvetica,sans-Serif" font-size="11.00">WorkflowState JSON</text>
</g>
<!-- preview&#45;&gt;state -->
<g id="edge15" class="edge">
<title>preview&#45;&gt;state</title>
<path fill="none" stroke="#475569" stroke-width="1.25" d="M967.22,-252C1053.47,-252 1219.5,-252 1219.5,-252 1219.5,-252 1219.5,-252 2685.38,-252 2685.38,-252 2758.5,-224 2758.5,-224 2758.5,-224 2833.17,-172.16 2878.57,-140.65"/>
<polygon fill="#475569" stroke="#475569" stroke-width="1.25" points="2879.91,-142.91 2884.58,-136.47 2876.92,-138.59 2879.91,-142.91"/>
<text xml:space="preserve" text-anchor="middle" x="1963.38" y="-253.2" font-family="Helvetica,sans-Serif" font-size="9.00">Artifact</text>
</g>
<!-- coords -->
<g id="node6" class="node">
<title>coords</title>
<path fill="#dcfce7" stroke="#22c55e" stroke-width="1.25" d="M1272.75,-156C1272.75,-156 1168.25,-156 1168.25,-156 1162.25,-156 1156.25,-150 1156.25,-144 1156.25,-144 1156.25,-132 1156.25,-132 1156.25,-126 1162.25,-120 1168.25,-120 1168.25,-120 1272.75,-120 1272.75,-120 1278.75,-120 1284.75,-126 1284.75,-132 1284.75,-132 1284.75,-144 1284.75,-144 1284.75,-150 1278.75,-156 1272.75,-156"/>
<text xml:space="preserve" text-anchor="middle" x="1220.5" y="-133.55" font-family="Helvetica,sans-Serif" font-size="11.00">sparse structure coords</text>
</g>
<!-- cond&#45;&gt;coords -->
<g id="edge5" class="edge">
<title>cond&#45;&gt;coords</title>
<path fill="none" stroke="#475569" stroke-width="1.25" d="M977.09,-138C1025.96,-138 1094.87,-138 1146.73,-138"/>
<polygon fill="#475569" stroke="#475569" stroke-width="1.25" points="1146.49,-140.63 1153.99,-138 1146.49,-135.38 1146.49,-140.63"/>
<text xml:space="preserve" text-anchor="middle" x="1066.5" y="-139.2" font-family="Helvetica,sans-Serif" font-size="9.00">sample_sparse_structure</text>
</g>
<!-- shape -->
<g id="node7" class="node">
<title>shape</title>
<path fill="#dcfce7" stroke="#22c55e" stroke-width="1.25" d="M1499.75,-156C1499.75,-156 1453,-156 1453,-156 1447,-156 1441,-150 1441,-144 1441,-144 1441,-132 1441,-132 1441,-126 1447,-120 1453,-120 1453,-120 1499.75,-120 1499.75,-120 1505.75,-120 1511.75,-126 1511.75,-132 1511.75,-132 1511.75,-144 1511.75,-144 1511.75,-150 1505.75,-156 1499.75,-156"/>
<text xml:space="preserve" text-anchor="middle" x="1476.38" y="-133.55" font-family="Helvetica,sans-Serif" font-size="11.00">shape SLat</text>
</g>
<!-- coords&#45;&gt;shape -->
<g id="edge6" class="edge">
<title>coords&#45;&gt;shape</title>
<path fill="none" stroke="#475569" stroke-width="1.25" d="M1285.24,-138C1330.79,-138 1390.92,-138 1431.26,-138"/>
<polygon fill="#475569" stroke="#475569" stroke-width="1.25" points="1431.16,-140.63 1438.66,-138 1431.16,-135.38 1431.16,-140.63"/>
<text xml:space="preserve" text-anchor="middle" x="1362.88" y="-139.2" font-family="Helvetica,sans-Serif" font-size="9.00">sample_shape_slat</text>
</g>
<!-- texture -->
<g id="node8" class="node">
<title>texture</title>
<path fill="#dcfce7" stroke="#22c55e" stroke-width="1.25" d="M1732.75,-52C1732.75,-52 1682.25,-52 1682.25,-52 1676.25,-52 1670.25,-46 1670.25,-40 1670.25,-40 1670.25,-28 1670.25,-28 1670.25,-22 1676.25,-16 1682.25,-16 1682.25,-16 1732.75,-16 1732.75,-16 1738.75,-16 1744.75,-22 1744.75,-28 1744.75,-28 1744.75,-40 1744.75,-40 1744.75,-46 1738.75,-52 1732.75,-52"/>
<text xml:space="preserve" text-anchor="middle" x="1707.5" y="-29.55" font-family="Helvetica,sans-Serif" font-size="11.00">texture SLat</text>
</g>
<!-- shape&#45;&gt;texture -->
<g id="edge7" class="edge">
<title>shape&#45;&gt;texture</title>
<path fill="none" stroke="#475569" stroke-width="1.25" d="M1512.17,-122.2C1552.08,-104.09 1617.61,-74.35 1661.4,-54.47"/>
<polygon fill="#475569" stroke="#475569" stroke-width="1.25" points="1662.39,-56.91 1668.13,-51.42 1660.22,-52.13 1662.39,-56.91"/>
<text xml:space="preserve" text-anchor="middle" x="1591" y="-105.56" font-family="Helvetica,sans-Serif" font-size="9.00">sample_texture_slat</text>
</g>
<!-- mesh -->
<g id="node9" class="node">
<title>mesh</title>
<path fill="#86efac" stroke="#15803d" stroke-width="1.25" d="M2013.75,-127C2013.75,-127 1913,-127 1913,-127 1907,-127 1901,-121 1901,-115 1901,-115 1901,-103 1901,-103 1901,-97 1907,-91 1913,-91 1913,-91 2013.75,-91 2013.75,-91 2019.75,-91 2025.75,-97 2025.75,-103 2025.75,-103 2025.75,-115 2025.75,-115 2025.75,-121 2019.75,-127 2013.75,-127"/>
<text xml:space="preserve" text-anchor="middle" x="1963.38" y="-110.55" font-family="Helvetica,sans-Serif" font-size="11.00">MeshWithVoxel</text>
<text xml:space="preserve" text-anchor="middle" x="1963.38" y="-98.55" font-family="Helvetica,sans-Serif" font-size="11.00">vertices + faces + attrs</text>
</g>
<!-- shape&#45;&gt;mesh -->
<g id="edge8" class="edge">
<title>shape&#45;&gt;mesh</title>
<path fill="none" stroke="#475569" stroke-width="1.25" d="M1512.26,-135.91C1591.32,-131.19 1785.48,-119.58 1891.12,-113.26"/>
<polygon fill="#475569" stroke="#475569" stroke-width="1.25" points="1891.22,-115.88 1898.55,-112.82 1890.9,-110.64 1891.22,-115.88"/>
<text xml:space="preserve" text-anchor="middle" x="1707.5" y="-127.58" font-family="Helvetica,sans-Serif" font-size="9.00">decode_mesh</text>
</g>
<!-- texture&#45;&gt;mesh -->
<g id="edge9" class="edge">
<title>texture&#45;&gt;mesh</title>
<path fill="none" stroke="#475569" stroke-width="1.25" d="M1745.14,-44.83C1783.41,-56.13 1844.37,-74.14 1891.98,-88.21"/>
<polygon fill="#475569" stroke="#475569" stroke-width="1.25" points="1890.96,-90.64 1898.9,-90.25 1892.45,-85.6 1890.96,-90.64"/>
<text xml:space="preserve" text-anchor="middle" x="1822.88" y="-79.42" font-family="Helvetica,sans-Serif" font-size="9.00">decode texture attrs</text>
</g>
<!-- simplify -->
<g id="node10" class="node">
<title>simplify</title>
<path fill="#fde68a" stroke="#d97706" stroke-width="1.25" d="M2263.25,-179C2263.25,-179 2170,-179 2170,-179 2164,-179 2158,-173 2158,-167 2158,-167 2158,-155 2158,-155 2158,-149 2164,-143 2170,-143 2170,-143 2263.25,-143 2263.25,-143 2269.25,-143 2275.25,-149 2275.25,-155 2275.25,-155 2275.25,-167 2275.25,-167 2275.25,-173 2269.25,-179 2263.25,-179"/>
<text xml:space="preserve" text-anchor="middle" x="2216.62" y="-162.55" font-family="Helvetica,sans-Serif" font-size="11.00">optional simplification</text>
<text xml:space="preserve" text-anchor="middle" x="2216.62" y="-150.55" font-family="Helvetica,sans-Serif" font-size="11.00">decimation target</text>
</g>
<!-- mesh&#45;&gt;simplify -->
<g id="edge10" class="edge">
<title>mesh&#45;&gt;simplify</title>
<path fill="none" stroke="#475569" stroke-width="1.25" d="M2026.16,-121.79C2063.29,-129.47 2110.54,-139.25 2148.57,-147.12"/>
<polygon fill="#475569" stroke="#475569" stroke-width="1.25" points="2147.8,-149.64 2155.68,-148.59 2148.87,-144.5 2147.8,-149.64"/>
<text xml:space="preserve" text-anchor="middle" x="2091.88" y="-142.39" font-family="Helvetica,sans-Serif" font-size="9.00">export_model</text>
</g>
<!-- obj -->
<g id="node13" class="node">
<title>obj</title>
<path fill="#ffedd5" stroke="#ea580c" stroke-width="1.25" d="M2243,-96C2243,-96 2190.25,-96 2190.25,-96 2184.25,-96 2178.25,-90 2178.25,-84 2178.25,-84 2178.25,-72 2178.25,-72 2178.25,-66 2184.25,-60 2190.25,-60 2190.25,-60 2243,-60 2243,-60 2249,-60 2255,-66 2255,-72 2255,-72 2255,-84 2255,-84 2255,-90 2249,-96 2243,-96"/>
<text xml:space="preserve" text-anchor="middle" x="2216.62" y="-73.55" font-family="Helvetica,sans-Serif" font-size="11.00">&lt;output&gt;.obj</text>
</g>
<!-- mesh&#45;&gt;obj -->
<g id="edge13" class="edge">
<title>mesh&#45;&gt;obj</title>
<path fill="none" stroke="#475569" stroke-width="1.25" d="M2026.16,-101.38C2070.15,-95.95 2128.35,-88.77 2168.59,-83.8"/>
<polygon fill="#475569" stroke="#475569" stroke-width="1.25" points="2168.9,-86.41 2176.02,-82.89 2168.26,-81.2 2168.9,-86.41"/>
</g>
<!-- bake -->
<g id="node11" class="node">
<title>bake</title>
<path fill="#fef3c7" stroke="#f59e0b" stroke-width="1.25" d="M2454.5,-179C2454.5,-179 2364.25,-179 2364.25,-179 2358.25,-179 2352.25,-173 2352.25,-167 2352.25,-167 2352.25,-155 2352.25,-155 2352.25,-149 2358.25,-143 2364.25,-143 2364.25,-143 2454.5,-143 2454.5,-143 2460.5,-143 2466.5,-149 2466.5,-155 2466.5,-155 2466.5,-167 2466.5,-167 2466.5,-173 2460.5,-179 2454.5,-179"/>
<text xml:space="preserve" text-anchor="middle" x="2409.38" y="-162.55" font-family="Helvetica,sans-Serif" font-size="11.00">texture bake</text>
<text xml:space="preserve" text-anchor="middle" x="2409.38" y="-150.55" font-family="Helvetica,sans-Serif" font-size="11.00">metal / kdtree / none</text>
</g>
<!-- simplify&#45;&gt;bake -->
<g id="edge11" class="edge">
<title>simplify&#45;&gt;bake</title>
<path fill="none" stroke="#475569" stroke-width="1.25" d="M2275.63,-161C2296.73,-161 2320.73,-161 2342.46,-161"/>
<polygon fill="#475569" stroke="#475569" stroke-width="1.25" points="2342.23,-163.63 2349.73,-161 2342.23,-158.38 2342.23,-163.63"/>
</g>
<!-- glb -->
<g id="node12" class="node">
<title>glb</title>
<path fill="#ffedd5" stroke="#ea580c" stroke-width="1.25" d="M2710.75,-96C2710.75,-96 2658,-96 2658,-96 2652,-96 2646,-90 2646,-84 2646,-84 2646,-72 2646,-72 2646,-66 2652,-60 2658,-60 2658,-60 2710.75,-60 2710.75,-60 2716.75,-60 2722.75,-66 2722.75,-72 2722.75,-72 2722.75,-84 2722.75,-84 2722.75,-90 2716.75,-96 2710.75,-96"/>
<text xml:space="preserve" text-anchor="middle" x="2684.38" y="-73.55" font-family="Helvetica,sans-Serif" font-size="11.00">&lt;output&gt;.glb</text>
</g>
<!-- bake&#45;&gt;glb -->
<g id="edge12" class="edge">
<title>bake&#45;&gt;glb</title>
<path fill="none" stroke="#475569" stroke-width="1.25" d="M2466.94,-143.8C2517.27,-128.5 2589.97,-106.4 2636.96,-92.11"/>
<polygon fill="#475569" stroke="#475569" stroke-width="1.25" points="2637.49,-94.7 2643.9,-90 2635.96,-89.67 2637.49,-94.7"/>
</g>
<!-- texturepng -->
<g id="node14" class="node">
<title>texturepng</title>
<path fill="#fed7aa" stroke="#f97316" stroke-width="1.25" d="M2738.5,-179C2738.5,-179 2630.25,-179 2630.25,-179 2624.25,-179 2618.25,-173 2618.25,-167 2618.25,-167 2618.25,-155 2618.25,-155 2618.25,-149 2624.25,-143 2630.25,-143 2630.25,-143 2738.5,-143 2738.5,-143 2744.5,-143 2750.5,-149 2750.5,-155 2750.5,-155 2750.5,-167 2750.5,-167 2750.5,-173 2744.5,-179 2738.5,-179"/>
<text xml:space="preserve" text-anchor="middle" x="2684.38" y="-162.55" font-family="Helvetica,sans-Serif" font-size="11.00">&lt;output&gt;_basecolor.png</text>
<text xml:space="preserve" text-anchor="middle" x="2684.38" y="-150.55" font-family="Helvetica,sans-Serif" font-size="11.00">when generated</text>
</g>
<!-- bake&#45;&gt;texturepng -->
<g id="edge14" class="edge">
<title>bake&#45;&gt;texturepng</title>
<path fill="none" stroke="#475569" stroke-width="1.25" d="M2466.94,-161C2507.91,-161 2563.72,-161 2608.4,-161"/>
<polygon fill="#475569" stroke="#475569" stroke-width="1.25" points="2608.37,-163.63 2615.87,-161 2608.37,-158.38 2608.37,-163.63"/>
<text xml:space="preserve" text-anchor="middle" x="2542.38" y="-162.2" font-family="Helvetica,sans-Serif" font-size="9.00">kdtree texture path</text>
</g>
<!-- glb&#45;&gt;state -->
<g id="edge16" class="edge">
<title>glb&#45;&gt;state</title>
<path fill="none" stroke="#475569" stroke-width="1.25" d="M2723.23,-79.81C2761.88,-81.65 2816.25,-84.25 2816.25,-84.25 2816.25,-84.25 2831.26,-89.35 2849.43,-95.53"/>
<polygon fill="#475569" stroke="#475569" stroke-width="1.25" points="2848.22,-97.89 2856.17,-97.82 2849.91,-92.92 2848.22,-97.89"/>
<text xml:space="preserve" text-anchor="middle" x="2802.38" y="-85.45" font-family="Helvetica,sans-Serif" font-size="9.00">Artifact</text>
</g>
<!-- obj&#45;&gt;state -->
<g id="edge17" class="edge">
<title>obj&#45;&gt;state</title>
<path fill="none" stroke="#475569" stroke-width="1.25" d="M2255.31,-74.14C2355.04,-63.94 2618.25,-37 2618.25,-37 2618.25,-37 2758.5,-37 2758.5,-37 2758.5,-37 2823.06,-70.51 2868.61,-94.16"/>
<polygon fill="#475569" stroke="#475569" stroke-width="1.25" points="2867.33,-96.45 2875.2,-97.57 2869.75,-91.79 2867.33,-96.45"/>
<text xml:space="preserve" text-anchor="middle" x="2542.38" y="-49.75" font-family="Helvetica,sans-Serif" font-size="9.00">Artifact</text>
</g>
<!-- texturepng&#45;&gt;state -->
<g id="edge18" class="edge">
<title>texturepng&#45;&gt;state</title>
<path fill="none" stroke="#475569" stroke-width="1.25" d="M2751.11,-148.27C2780.45,-142.59 2815.01,-135.9 2844.61,-130.17"/>
<polygon fill="#475569" stroke="#475569" stroke-width="1.25" points="2844.91,-132.79 2851.77,-128.78 2843.91,-127.63 2844.91,-132.79"/>
<text xml:space="preserve" text-anchor="middle" x="2802.38" y="-141.52" font-family="Helvetica,sans-Serif" font-size="9.00">Artifact</text>
</g>
<!-- artifactpanel -->
<g id="node16" class="node">
<title>artifactpanel</title>
<path fill="#ddd6fe" stroke="#8b5cf6" stroke-width="1.25" d="M3131.75,-103C3131.75,-103 3078.25,-103 3078.25,-103 3072.25,-103 3066.25,-97 3066.25,-91 3066.25,-91 3066.25,-79 3066.25,-79 3066.25,-73 3072.25,-67 3078.25,-67 3078.25,-67 3131.75,-67 3131.75,-67 3137.75,-67 3143.75,-73 3143.75,-79 3143.75,-79 3143.75,-91 3143.75,-91 3143.75,-97 3137.75,-103 3131.75,-103"/>
<text xml:space="preserve" text-anchor="middle" x="3105" y="-86.55" font-family="Helvetica,sans-Serif" font-size="11.00">ArtifactPanel</text>
<text xml:space="preserve" text-anchor="middle" x="3105" y="-74.55" font-family="Helvetica,sans-Serif" font-size="11.00">links + sizes</text>
</g>
<!-- state&#45;&gt;artifactpanel -->
<g id="edge19" class="edge">
<title>state&#45;&gt;artifactpanel</title>
<path fill="none" stroke="#475569" stroke-width="1.25" d="M2973.51,-107.05C3000.29,-102.52 3031.56,-97.24 3056.78,-92.98"/>
<polygon fill="#475569" stroke="#475569" stroke-width="1.25" points="3056.95,-95.61 3063.91,-91.77 3056.07,-90.44 3056.95,-95.61"/>
</g>
<!-- logpanel -->
<g id="node17" class="node">
<title>logpanel</title>
<path fill="#ede9fe" stroke="#7c3aed" stroke-width="1.25" d="M3127.62,-186C3127.62,-186 3082.38,-186 3082.38,-186 3076.38,-186 3070.38,-180 3070.38,-174 3070.38,-174 3070.38,-162 3070.38,-162 3070.38,-156 3076.38,-150 3082.38,-150 3082.38,-150 3127.62,-150 3127.62,-150 3133.62,-150 3139.62,-156 3139.62,-162 3139.62,-162 3139.62,-174 3139.62,-174 3139.62,-180 3133.62,-186 3127.62,-186"/>
<text xml:space="preserve" text-anchor="middle" x="3105" y="-169.55" font-family="Helvetica,sans-Serif" font-size="11.00">LogPanel</text>
<text xml:space="preserve" text-anchor="middle" x="3105" y="-157.55" font-family="Helvetica,sans-Serif" font-size="11.00">step output</text>
</g>
<!-- state&#45;&gt;logpanel -->
<g id="edge20" class="edge">
<title>state&#45;&gt;logpanel</title>
<path fill="none" stroke="#475569" stroke-width="1.25" d="M2973.51,-132.86C3001.87,-140.49 3035.25,-149.49 3061.16,-156.46"/>
<polygon fill="#475569" stroke="#475569" stroke-width="1.25" points="3060.23,-158.93 3068.16,-158.35 3061.6,-153.86 3060.23,-158.93"/>
<text xml:space="preserve" text-anchor="middle" x="3019.62" y="-148.27" font-family="Helvetica,sans-Serif" font-size="9.00">logs</text>
</g>
</g>
</svg>
