<?xml version="1.0" encoding="UTF-8" standalone="no"?>
<!DOCTYPE svg PUBLIC "-//W3C//DTD SVG 1.1//EN"
 "http://www.w3.org/Graphics/SVG/1.1/DTD/svg11.dtd">
<!-- Generated by graphviz version 14.1.5 (20260411.2331)
 -->
<!-- Title: OperationsDeploymentFlow Pages: 1 -->
<svg width="2228pt" height="441pt"
 viewBox="0.00 0.00 2228.00 441.00" xmlns="http://www.w3.org/2000/svg" xmlns:xlink="http://www.w3.org/1999/xlink">
<g id="graph0" class="graph" transform="scale(1 1) rotate(0) translate(25.2 415.95)">
<title>OperationsDeploymentFlow</title>
<polygon fill="#f8fafc" stroke="none" points="-25.2,25.2 -25.2,-415.95 2203.2,-415.95 2203.2,25.2 -25.2,25.2"/>
<text xml:space="preserve" text-anchor="middle" x="1089" y="-363.95" font-family="Helvetica,sans-Serif" font-weight="bold" font-size="24.00">Local Operations and Deployment Flow</text>
<g id="clust1" class="cluster">
<title>cluster_setup</title>
<path fill="#eff6ff" stroke="#60a5fa" d="M20,-182C20,-182 475.75,-182 475.75,-182 481.75,-182 487.75,-188 487.75,-194 487.75,-194 487.75,-338 487.75,-338 487.75,-344 481.75,-350 475.75,-350 475.75,-350 20,-350 20,-350 14,-350 8,-344 8,-338 8,-338 8,-194 8,-194 8,-188 14,-182 20,-182"/>
<text xml:space="preserve" text-anchor="middle" x="247.88" y="-323.2" font-family="Helvetica,sans-Serif" font-weight="bold" font-size="24.00">Setup Baseline</text>
</g>
<g id="clust2" class="cluster">
<title>cluster_startup</title>
<path fill="#f0fdf4" stroke="#22c55e" d="M560.75,-179C560.75,-179 819.25,-179 819.25,-179 825.25,-179 831.25,-185 831.25,-191 831.25,-191 831.25,-335 831.25,-335 831.25,-341 825.25,-347 819.25,-347 819.25,-347 560.75,-347 560.75,-347 554.75,-347 548.75,-341 548.75,-335 548.75,-335 548.75,-191 548.75,-191 548.75,-185 554.75,-179 560.75,-179"/>
<text xml:space="preserve" text-anchor="middle" x="690" y="-320.2" font-family="Helvetica,sans-Serif" font-weight="bold" font-size="24.00">Startup</text>
</g>
<g id="clust3" class="cluster">
<title>cluster_validation</title>
<path fill="#fffbeb" stroke="#f59e0b" d="M904.25,-179C904.25,-179 1546.5,-179 1546.5,-179 1552.5,-179 1558.5,-185 1558.5,-191 1558.5,-191 1558.5,-335 1558.5,-335 1558.5,-341 1552.5,-347 1546.5,-347 1546.5,-347 904.25,-347 904.25,-347 898.25,-347 892.25,-341 892.25,-335 892.25,-335 892.25,-191 892.25,-191 892.25,-185 898.25,-179 904.25,-179"/>
<text xml:space="preserve" text-anchor="middle" x="1225.38" y="-320.2" font-family="Helvetica,sans-Serif" font-weight="bold" font-size="24.00">Operational Validation</text>
</g>
<g id="clust4" class="cluster">
<title>cluster_runtime</title>
<path fill="#f5f3ff" stroke="#a78bfa" d="M1755.75,-69C1755.75,-69 2158,-69 2158,-69 2164,-69 2170,-75 2170,-81 2170,-81 2170,-225 2170,-225 2170,-231 2164,-237 2158,-237 2158,-237 1755.75,-237 1755.75,-237 1749.75,-237 1743.75,-231 1743.75,-225 1743.75,-225 1743.75,-81 1743.75,-81 1743.75,-75 1749.75,-69 1755.75,-69"/>
<text xml:space="preserve" text-anchor="middle" x="1956.88" y="-210.2" font-family="Helvetica,sans-Serif" font-weight="bold" font-size="24.00">Runtime Controls</text>
</g>
<!-- clone -->
<g id="node1" class="node">
<title>clone</title>
<path fill="#dbeafe" stroke="#2563eb" stroke-width="1.25" d="M87.5,-268C87.5,-268 28,-268 28,-268 22,-268 16,-262 16,-256 16,-256 16,-244 16,-244 16,-238 22,-232 28,-232 28,-232 87.5,-232 87.5,-232 93.5,-232 99.5,-238 99.5,-244 99.5,-244 99.5,-256 99.5,-256 99.5,-262 93.5,-268 87.5,-268"/>
<text xml:space="preserve" text-anchor="middle" x="57.75" y="-251.55" font-family="Helvetica,sans-Serif" font-size="11.00">repo checkout</text>
<text xml:space="preserve" text-anchor="middle" x="57.75" y="-239.55" font-family="Helvetica,sans-Serif" font-size="11.00">trellis&#45;mac</text>
</g>
<!-- venv -->
<g id="node2" class="node">
<title>venv</title>
<path fill="#bfdbfe" stroke="#2563eb" stroke-width="1.25" d="M288.5,-309C288.5,-309 188.5,-309 188.5,-309 182.5,-309 176.5,-303 176.5,-297 176.5,-297 176.5,-285 176.5,-285 176.5,-279 182.5,-273 188.5,-273 188.5,-273 288.5,-273 288.5,-273 294.5,-273 300.5,-279 300.5,-285 300.5,-285 300.5,-297 300.5,-297 300.5,-303 294.5,-309 288.5,-309"/>
<text xml:space="preserve" text-anchor="middle" x="238.5" y="-286.55" font-family="Helvetica,sans-Serif" font-size="11.00">Python virtualenv.venv</text>
</g>
<!-- clone&#45;&gt;venv -->
<g id="edge1" class="edge">
<title>clone&#45;&gt;venv</title>
<path fill="none" stroke="#475569" stroke-width="1.25" d="M99.76,-259.41C119.69,-263.98 144.2,-269.6 167.01,-274.83"/>
<polygon fill="#475569" stroke="#475569" stroke-width="1.25" points="166.24,-277.35 174.14,-276.47 167.41,-272.23 166.24,-277.35"/>
</g>
<!-- npm -->
<g id="node4" class="node">
<title>npm</title>
<path fill="#dbeafe" stroke="#2563eb" stroke-width="1.25" d="M279.5,-226C279.5,-226 197.5,-226 197.5,-226 191.5,-226 185.5,-220 185.5,-214 185.5,-214 185.5,-202 185.5,-202 185.5,-196 191.5,-190 197.5,-190 197.5,-190 279.5,-190 279.5,-190 285.5,-190 291.5,-196 291.5,-202 291.5,-202 291.5,-214 291.5,-214 291.5,-220 285.5,-226 279.5,-226"/>
<text xml:space="preserve" text-anchor="middle" x="238.5" y="-209.55" font-family="Helvetica,sans-Serif" font-size="11.00">npm install</text>
<text xml:space="preserve" text-anchor="middle" x="238.5" y="-197.55" font-family="Helvetica,sans-Serif" font-size="11.00">web dependencies</text>
</g>
<!-- clone&#45;&gt;npm -->
<g id="edge3" class="edge">
<title>clone&#45;&gt;npm</title>
<path fill="none" stroke="#475569" stroke-width="1.25" d="M99.76,-240.36C122.34,-235.06 150.82,-228.37 176.01,-222.45"/>
<polygon fill="#475569" stroke="#475569" stroke-width="1.25" points="176.59,-225.01 183.29,-220.74 175.38,-219.9 176.59,-225.01"/>
</g>
<!-- pip -->
<g id="node3" class="node">
<title>pip</title>
<path fill="#dbeafe" stroke="#2563eb" stroke-width="1.25" d="M467.75,-309C467.75,-309 389.5,-309 389.5,-309 383.5,-309 377.5,-303 377.5,-297 377.5,-297 377.5,-285 377.5,-285 377.5,-279 383.5,-273 389.5,-273 389.5,-273 467.75,-273 467.75,-273 473.75,-273 479.75,-279 479.75,-285 479.75,-285 479.75,-297 479.75,-297 479.75,-303 473.75,-309 467.75,-309"/>
<text xml:space="preserve" text-anchor="middle" x="428.62" y="-286.55" font-family="Helvetica,sans-Serif" font-size="11.00">pip install &#45;e .[dev]</text>
</g>
<!-- venv&#45;&gt;pip -->
<g id="edge2" class="edge">
<title>venv&#45;&gt;pip</title>
<path fill="none" stroke="#475569" stroke-width="1.25" d="M301.1,-291C322.48,-291 346.4,-291 367.64,-291"/>
<polygon fill="#475569" stroke="#475569" stroke-width="1.25" points="367.49,-293.63 374.99,-291 367.49,-288.38 367.49,-293.63"/>
</g>
<!-- api -->
<g id="node5" class="node">
<title>api</title>
<path fill="#bbf7d0" stroke="#16a34a" stroke-width="1.25" d="M650,-306C650,-306 568.75,-306 568.75,-306 562.75,-306 556.75,-300 556.75,-294 556.75,-294 556.75,-282 556.75,-282 556.75,-276 562.75,-270 568.75,-270 568.75,-270 650,-270 650,-270 656,-270 662,-276 662,-282 662,-282 662,-294 662,-294 662,-300 656,-306 650,-306"/>
<text xml:space="preserve" text-anchor="middle" x="609.38" y="-289.55" font-family="Helvetica,sans-Serif" font-size="11.00">trellis&#45;workflow&#45;api</text>
<text xml:space="preserve" text-anchor="middle" x="609.38" y="-277.55" font-family="Helvetica,sans-Serif" font-size="11.00">or uvicorn</text>
</g>
<!-- pip&#45;&gt;api -->
<g id="edge4" class="edge">
<title>pip&#45;&gt;api</title>
<path fill="none" stroke="#475569" stroke-width="1.25" d="M480.37,-290.15C501.14,-289.8 525.36,-289.39 547.11,-289.03"/>
<polygon fill="#475569" stroke="#475569" stroke-width="1.25" points="546.91,-291.66 554.37,-288.91 546.83,-286.41 546.91,-291.66"/>
</g>
<!-- vite -->
<g id="node6" class="node">
<title>vite</title>
<path fill="#dcfce7" stroke="#22c55e" stroke-width="1.25" d="M643.25,-223C643.25,-223 575.5,-223 575.5,-223 569.5,-223 563.5,-217 563.5,-211 563.5,-211 563.5,-199 563.5,-199 563.5,-193 569.5,-187 575.5,-187 575.5,-187 643.25,-187 643.25,-187 649.25,-187 655.25,-193 655.25,-199 655.25,-199 655.25,-211 655.25,-211 655.25,-217 649.25,-223 643.25,-223"/>
<text xml:space="preserve" text-anchor="middle" x="609.38" y="-206.55" font-family="Helvetica,sans-Serif" font-size="11.00">npm run dev</text>
<text xml:space="preserve" text-anchor="middle" x="609.38" y="-194.55" font-family="Helvetica,sans-Serif" font-size="11.00">&#45;&#45;host 127.0.0.1</text>
</g>
<!-- npm&#45;&gt;vite -->
<g id="edge5" class="edge">
<title>npm&#45;&gt;vite</title>
<path fill="none" stroke="#475569" stroke-width="1.25" d="M291.96,-207.57C361.44,-207.01 483.4,-206.02 553.88,-205.44"/>
<polygon fill="#475569" stroke="#475569" stroke-width="1.25" points="553.69,-208.07 561.17,-205.38 553.64,-202.82 553.69,-208.07"/>
</g>
<!-- health -->
<g id="node8" class="node">
<title>health</title>
<path fill="#fde68a" stroke="#d97706" stroke-width="1.25" d="M997.62,-223C997.62,-223 930.62,-223 930.62,-223 924.62,-223 918.62,-217 918.62,-211 918.62,-211 918.62,-199 918.62,-199 918.62,-193 924.62,-187 930.62,-187 930.62,-187 997.62,-187 997.62,-187 1003.62,-187 1009.62,-193 1009.62,-199 1009.62,-199 1009.62,-211 1009.62,-211 1009.62,-217 1003.62,-223 997.62,-223"/>
<text xml:space="preserve" text-anchor="middle" x="964.12" y="-200.55" font-family="Helvetica,sans-Serif" font-size="11.00">GET /api/health</text>
</g>
<!-- api&#45;&gt;health -->
<g id="edge6" class="edge">
<title>api&#45;&gt;health</title>
<path fill="none" stroke="#475569" stroke-width="1.25" d="M657.54,-269.39C694.25,-254.91 739,-237.25 739,-237.25 739,-237.25 842.62,-222.34 908.94,-212.8"/>
<polygon fill="#475569" stroke="#475569" stroke-width="1.25" points="909.12,-215.42 916.17,-211.76 908.37,-210.23 909.12,-215.42"/>
<text xml:space="preserve" text-anchor="middle" x="781.12" y="-238.45" font-family="Helvetica,sans-Serif" font-size="9.00">confirm server</text>
</g>
<!-- logs -->
<g id="node12" class="node">
<title>logs</title>
<path fill="#ede9fe" stroke="#7c3aed" stroke-width="1.25" d="M1831.12,-113C1831.12,-113 1777.62,-113 1777.62,-113 1771.62,-113 1765.62,-107 1765.62,-101 1765.62,-101 1765.62,-89 1765.62,-89 1765.62,-83 1771.62,-77 1777.62,-77 1777.62,-77 1831.12,-77 1831.12,-77 1837.12,-77 1843.12,-83 1843.12,-89 1843.12,-89 1843.12,-101 1843.12,-101 1843.12,-107 1837.12,-113 1831.12,-113"/>
<text xml:space="preserve" text-anchor="middle" x="1804.38" y="-96.55" font-family="Helvetica,sans-Serif" font-size="11.00">terminal logs</text>
<text xml:space="preserve" text-anchor="middle" x="1804.38" y="-84.55" font-family="Helvetica,sans-Serif" font-size="11.00">server + Vite</text>
</g>
<!-- api&#45;&gt;logs -->
<g id="edge11" class="edge">
<title>api&#45;&gt;logs</title>
<path fill="none" stroke="#475569" stroke-width="1.25" d="M633.77,-269.42C647.43,-258.57 662,-247 662,-247 662,-247 780.12,-95 780.12,-95 780.12,-95 780.12,-95 1494,-95 1494,-95 1668.99,-95 1755.76,-95"/>
<polygon fill="#475569" stroke="#475569" stroke-width="1.25" points="1755.74,-97.63 1763.24,-95 1755.74,-92.38 1755.74,-97.63"/>
<text xml:space="preserve" text-anchor="middle" x="1123.38" y="-96.2" font-family="Helvetica,sans-Serif" font-size="9.00">observe errors</text>
</g>
<!-- proxy -->
<g id="node7" class="node">
<title>proxy</title>
<path fill="#dcfce7" stroke="#22c55e" stroke-width="1.25" d="M811.25,-306C811.25,-306 751,-306 751,-306 745,-306 739,-300 739,-294 739,-294 739,-282 739,-282 739,-276 745,-270 751,-270 751,-270 811.25,-270 811.25,-270 817.25,-270 823.25,-276 823.25,-282 823.25,-282 823.25,-294 823.25,-294 823.25,-300 817.25,-306 811.25,-306"/>
<text xml:space="preserve" text-anchor="middle" x="781.12" y="-289.55" font-family="Helvetica,sans-Serif" font-size="11.00">Vite proxy</text>
<text xml:space="preserve" text-anchor="middle" x="781.12" y="-277.55" font-family="Helvetica,sans-Serif" font-size="11.00">/api + /outputs</text>
</g>
<!-- vite&#45;&gt;proxy -->
<g id="edge7" class="edge">
<title>vite&#45;&gt;proxy</title>
<path fill="none" stroke="#475569" stroke-width="1.25" d="M648.05,-223.42C673.45,-235.84 707.13,-252.31 734.12,-265.51"/>
<polygon fill="#475569" stroke="#475569" stroke-width="1.25" points="732.67,-267.72 740.56,-268.66 734.98,-263 732.67,-267.72"/>
</g>
<!-- vite&#45;&gt;logs -->
<g id="edge12" class="edge">
<title>vite&#45;&gt;logs</title>
<path fill="none" stroke="#475569" stroke-width="1.25" d="M621.73,-186.64C645.84,-147.62 700,-60 700,-60 700,-60 780.12,0 780.12,0 780.12,0 780.12,0 1494,0 1494,0 1713.75,-60 1713.75,-60 1713.75,-60 1734.79,-68.22 1756.48,-76.69"/>
<polygon fill="#475569" stroke="#475569" stroke-width="1.25" points="1755.4,-79.08 1763.34,-79.37 1757.31,-74.19 1755.4,-79.08"/>
<text xml:space="preserve" text-anchor="middle" x="1123.38" y="-1.2" font-family="Helvetica,sans-Serif" font-size="9.00">observe build/runtime errors</text>
</g>
<!-- definition -->
<g id="node9" class="node">
<title>definition</title>
<path fill="#fef3c7" stroke="#f59e0b" stroke-width="1.25" d="M1016,-306C1016,-306 912.25,-306 912.25,-306 906.25,-306 900.25,-300 900.25,-294 900.25,-294 900.25,-282 900.25,-282 900.25,-276 906.25,-270 912.25,-270 912.25,-270 1016,-270 1016,-270 1022,-270 1028,-276 1028,-282 1028,-282 1028,-294 1028,-294 1028,-300 1022,-306 1016,-306"/>
<text xml:space="preserve" text-anchor="middle" x="964.12" y="-283.55" font-family="Helvetica,sans-Serif" font-size="11.00">load workflow definition</text>
</g>
<!-- proxy&#45;&gt;definition -->
<g id="edge8" class="edge">
<title>proxy&#45;&gt;definition</title>
<path fill="none" stroke="#475569" stroke-width="1.25" d="M823.65,-288C843.46,-288 867.76,-288 890.49,-288"/>
<polygon fill="#475569" stroke="#475569" stroke-width="1.25" points="890.39,-290.63 897.89,-288 890.39,-285.38 890.39,-290.63"/>
</g>
<!-- smoke -->
<g id="node10" class="node">
<title>smoke</title>
<path fill="#fef3c7" stroke="#f59e0b" stroke-width="1.25" d="M1346.5,-295C1346.5,-295 1230.75,-295 1230.75,-295 1224.75,-295 1218.75,-289 1218.75,-283 1218.75,-283 1218.75,-271 1218.75,-271 1218.75,-265 1224.75,-259 1230.75,-259 1230.75,-259 1346.5,-259 1346.5,-259 1352.5,-259 1358.5,-265 1358.5,-271 1358.5,-271 1358.5,-283 1358.5,-283 1358.5,-289 1352.5,-295 1346.5,-295"/>
<text xml:space="preserve" text-anchor="middle" x="1288.62" y="-272.55" font-family="Helvetica,sans-Serif" font-size="11.00">create session smoke test</text>
</g>
<!-- definition&#45;&gt;smoke -->
<g id="edge9" class="edge">
<title>definition&#45;&gt;smoke</title>
<path fill="none" stroke="#475569" stroke-width="1.25" d="M1028.46,-285.84C1080.24,-284.07 1153.7,-281.57 1209.2,-279.67"/>
<polygon fill="#475569" stroke="#475569" stroke-width="1.25" points="1209,-282.31 1216.4,-279.43 1208.82,-277.06 1209,-282.31"/>
</g>
<!-- browser -->
<g id="node11" class="node">
<title>browser</title>
<path fill="#ffedd5" stroke="#ea580c" stroke-width="1.25" d="M1538.5,-264C1538.5,-264 1447.5,-264 1447.5,-264 1441.5,-264 1435.5,-258 1435.5,-252 1435.5,-252 1435.5,-240 1435.5,-240 1435.5,-234 1441.5,-228 1447.5,-228 1447.5,-228 1538.5,-228 1538.5,-228 1544.5,-228 1550.5,-234 1550.5,-240 1550.5,-240 1550.5,-252 1550.5,-252 1550.5,-258 1544.5,-264 1538.5,-264"/>
<text xml:space="preserve" text-anchor="middle" x="1493" y="-247.55" font-family="Helvetica,sans-Serif" font-size="11.00">open UI</text>
<text xml:space="preserve" text-anchor="middle" x="1493" y="-235.55" font-family="Helvetica,sans-Serif" font-size="11.00">http://127.0.0.1:5173</text>
</g>
<!-- smoke&#45;&gt;browser -->
<g id="edge10" class="edge">
<title>smoke&#45;&gt;browser</title>
<path fill="none" stroke="#475569" stroke-width="1.25" d="M1358.99,-266.37C1380.71,-263.05 1404.62,-259.39 1426.1,-256.09"/>
<polygon fill="#475569" stroke="#475569" stroke-width="1.25" points="1426.26,-258.73 1433.27,-255 1425.46,-253.54 1426.26,-258.73"/>
</g>
<!-- outputs -->
<g id="node13" class="node">
<title>outputs</title>
<path fill="#ddd6fe" stroke="#8b5cf6" stroke-width="1.25" d="M1845,-196C1845,-196 1763.75,-196 1763.75,-196 1757.75,-196 1751.75,-190 1751.75,-184 1751.75,-184 1751.75,-172 1751.75,-172 1751.75,-166 1757.75,-160 1763.75,-160 1763.75,-160 1845,-160 1845,-160 1851,-160 1857,-166 1857,-172 1857,-172 1857,-184 1857,-184 1857,-190 1851,-196 1845,-196"/>
<text xml:space="preserve" text-anchor="middle" x="1804.38" y="-179.55" font-family="Helvetica,sans-Serif" font-size="11.00">outputs/</text>
<text xml:space="preserve" text-anchor="middle" x="1804.38" y="-167.55" font-family="Helvetica,sans-Serif" font-size="11.00">generated artifacts</text>
</g>
<!-- browser&#45;&gt;outputs -->
<g id="edge13" class="edge">
<title>browser&#45;&gt;outputs</title>
<path fill="none" stroke="#475569" stroke-width="1.25" d="M1551.1,-233.45C1605.35,-221.53 1686.66,-203.65 1742.21,-191.44"/>
<polygon fill="#475569" stroke="#475569" stroke-width="1.25" points="1742.63,-194.04 1749.39,-189.87 1741.5,-188.91 1742.63,-194.04"/>
<text xml:space="preserve" text-anchor="middle" x="1651.12" y="-225.2" font-family="Helvetica,sans-Serif" font-size="9.00">step execution creates artifacts</text>
</g>
<!-- cleanup -->
<g id="node14" class="node">
<title>cleanup</title>
<path fill="#ede9fe" stroke="#7c3aed" stroke-width="1.25" d="M2150,-196C2150,-196 2008,-196 2008,-196 2002,-196 1996,-190 1996,-184 1996,-184 1996,-172 1996,-172 1996,-166 2002,-160 2008,-160 2008,-160 2150,-160 2150,-160 2156,-160 2162,-166 2162,-172 2162,-172 2162,-184 2162,-184 2162,-190 2156,-196 2150,-196"/>
<text xml:space="preserve" text-anchor="middle" x="2079" y="-179.55" font-family="Helvetica,sans-Serif" font-size="11.00">delete sessions</text>
<text xml:space="preserve" text-anchor="middle" x="2079" y="-167.55" font-family="Helvetica,sans-Serif" font-size="11.00">clear generated files as needed</text>
</g>
<!-- outputs&#45;&gt;cleanup -->
<g id="edge14" class="edge">
<title>outputs&#45;&gt;cleanup</title>
<path fill="none" stroke="#475569" stroke-width="1.25" d="M1857.62,-178C1893.99,-178 1943.46,-178 1986.32,-178"/>
<polygon fill="#475569" stroke="#475569" stroke-width="1.25" points="1986.24,-180.63 1993.74,-178 1986.24,-175.38 1986.24,-180.63"/>
<text xml:space="preserve" text-anchor="middle" x="1926.5" y="-179.2" font-family="Helvetica,sans-Serif" font-size="9.00">retention action</text>
</g>
</g>
</svg>
