<?xml version="1.0" encoding="UTF-8" standalone="no"?>
<!DOCTYPE svg PUBLIC "-//W3C//DTD SVG 1.1//EN"
 "http://www.w3.org/Graphics/SVG/1.1/DTD/svg11.dtd">
<!-- Generated by graphviz version 14.1.5 (20260411.2331)
 -->
<!-- Title: QualityGateTraceability Pages: 1 -->
<svg width="1626pt" height="421pt"
 viewBox="0.00 0.00 1626.00 421.00" xmlns="http://www.w3.org/2000/svg" xmlns:xlink="http://www.w3.org/1999/xlink">
<g id="graph0" class="graph" transform="scale(1 1) rotate(0) translate(25.2 395.95)">
<title>QualityGateTraceability</title>
<polygon fill="#f8fafc" stroke="none" points="-25.2,25.2 -25.2,-395.95 1600.7,-395.95 1600.7,25.2 -25.2,25.2"/>
<text xml:space="preserve" text-anchor="middle" x="787.75" y="-343.95" font-family="Helvetica,sans-Serif" font-weight="bold" font-size="24.00">Quality Gates and Requirements Traceability</text>
<g id="clust1" class="cluster">
<title>cluster_requirements</title>
<path fill="#f0f9ff" stroke="#38bdf8" d="M12,-8C12,-8 165.25,-8 165.25,-8 171.25,-8 177.25,-14 177.25,-20 177.25,-20 177.25,-318 177.25,-318 177.25,-324 171.25,-330 165.25,-330 165.25,-330 12,-330 12,-330 6,-330 0,-324 0,-318 0,-318 0,-20 0,-20 0,-14 6,-8 12,-8"/>
<text xml:space="preserve" text-anchor="middle" x="88.62" y="-303.2" font-family="Helvetica,sans-Serif" font-weight="bold" font-size="24.00">Requirements</text>
</g>
<g id="clust2" class="cluster">
<title>cluster_design</title>
<path fill="#f0fdf4" stroke="#22c55e" d="M310.5,-8C310.5,-8 497.5,-8 497.5,-8 503.5,-8 509.5,-14 509.5,-20 509.5,-20 509.5,-318 509.5,-318 509.5,-324 503.5,-330 497.5,-330 497.5,-330 310.5,-330 310.5,-330 304.5,-330 298.5,-324 298.5,-318 298.5,-318 298.5,-20 298.5,-20 298.5,-14 304.5,-8 310.5,-8"/>
<text xml:space="preserve" text-anchor="middle" x="404" y="-303.2" font-family="Helvetica,sans-Serif" font-weight="bold" font-size="24.00">Design Elements</text>
</g>
<g id="clust3" class="cluster">
<title>cluster_tests</title>
<path fill="#fffbeb" stroke="#f59e0b" d="M675,-8C675,-8 910.75,-8 910.75,-8 916.75,-8 922.75,-14 922.75,-20 922.75,-20 922.75,-318 922.75,-318 922.75,-324 916.75,-330 910.75,-330 910.75,-330 675,-330 675,-330 669,-330 663,-324 663,-318 663,-318 663,-20 663,-20 663,-14 669,-8 675,-8"/>
<text xml:space="preserve" text-anchor="middle" x="792.88" y="-303.2" font-family="Helvetica,sans-Serif" font-weight="bold" font-size="24.00">Verification Evidence</text>
</g>
<g id="clust4" class="cluster">
<title>cluster_governance</title>
<path fill="#f5f3ff" stroke="#a78bfa" d="M1050.75,-87C1050.75,-87 1555.5,-87 1555.5,-87 1561.5,-87 1567.5,-93 1567.5,-99 1567.5,-99 1567.5,-239 1567.5,-239 1567.5,-245 1561.5,-251 1555.5,-251 1555.5,-251 1050.75,-251 1050.75,-251 1044.75,-251 1038.75,-245 1038.75,-239 1038.75,-239 1038.75,-99 1038.75,-99 1038.75,-93 1044.75,-87 1050.75,-87"/>
<text xml:space="preserve" text-anchor="middle" x="1303.12" y="-224.2" font-family="Helvetica,sans-Serif" font-weight="bold" font-size="24.00">CMM/CMMI Level 3 Evidence</text>
</g>
<!-- req_ui -->
<g id="node1" class="node">
<title>req_ui</title>
<path fill="#bae6fd" stroke="#0284c7" stroke-width="1.25" d="M146.38,-289C146.38,-289 29.87,-289 29.87,-289 23.87,-289 17.88,-283 17.88,-277 17.88,-277 17.88,-265 17.88,-265 17.88,-259 23.88,-253 29.88,-253 29.88,-253 146.38,-253 146.38,-253 152.38,-253 158.38,-259 158.38,-265 158.38,-265 158.38,-277 158.38,-277 158.38,-283 152.38,-289 146.38,-289"/>
<text xml:space="preserve" text-anchor="middle" x="88.12" y="-272.55" font-family="Helvetica,sans-Serif" font-size="11.00">REQ&#45;UI</text>
<text xml:space="preserve" text-anchor="middle" x="88.12" y="-260.55" font-family="Helvetica,sans-Serif" font-size="11.00">configure pipeline controls</text>
</g>
<!-- params -->
<g id="node5" class="node">
<title>params</title>
<path fill="#bbf7d0" stroke="#16a34a" stroke-width="1.25" d="M454.25,-289C454.25,-289 352.75,-289 352.75,-289 346.75,-289 340.75,-283 340.75,-277 340.75,-277 340.75,-265 340.75,-265 340.75,-259 346.75,-253 352.75,-253 352.75,-253 454.25,-253 454.25,-253 460.25,-253 466.25,-259 466.25,-265 466.25,-265 466.25,-277 466.25,-277 466.25,-283 460.25,-289 454.25,-289"/>
<text xml:space="preserve" text-anchor="middle" x="403.5" y="-272.55" font-family="Helvetica,sans-Serif" font-size="11.00">ParameterPanel</text>
<text xml:space="preserve" text-anchor="middle" x="403.5" y="-260.55" font-family="Helvetica,sans-Serif" font-size="11.00">metadata&#45;driven inputs</text>
</g>
<!-- req_ui&#45;&gt;params -->
<g id="edge1" class="edge">
<title>req_ui&#45;&gt;params</title>
<path fill="none" stroke="#475569" stroke-width="1.25" d="M158.67,-271C209.96,-271 279.51,-271 331.2,-271"/>
<polygon fill="#475569" stroke="#475569" stroke-width="1.25" points="330.92,-273.63 338.42,-271 330.92,-268.38 330.92,-273.63"/>
<text xml:space="preserve" text-anchor="middle" x="237.88" y="-272.2" font-family="Helvetica,sans-Serif" font-size="9.00">implemented by</text>
</g>
<!-- req_step -->
<g id="node2" class="node">
<title>req_step</title>
<path fill="#e0f2fe" stroke="#0ea5e9" stroke-width="1.25" d="M147.12,-210C147.12,-210 29.12,-210 29.12,-210 23.12,-210 17.12,-204 17.12,-198 17.12,-198 17.12,-186 17.12,-186 17.12,-180 23.12,-174 29.12,-174 29.12,-174 147.12,-174 147.12,-174 153.12,-174 159.12,-180 159.12,-186 159.12,-186 159.12,-198 159.12,-198 159.12,-204 153.12,-210 147.12,-210"/>
<text xml:space="preserve" text-anchor="middle" x="88.12" y="-193.55" font-family="Helvetica,sans-Serif" font-size="11.00">REQ&#45;STEP</text>
<text xml:space="preserve" text-anchor="middle" x="88.12" y="-181.55" font-family="Helvetica,sans-Serif" font-size="11.00">execute one step at a time</text>
</g>
<!-- runner -->
<g id="node6" class="node">
<title>runner</title>
<path fill="#dcfce7" stroke="#22c55e" stroke-width="1.25" d="M446.75,-210C446.75,-210 360.25,-210 360.25,-210 354.25,-210 348.25,-204 348.25,-198 348.25,-198 348.25,-186 348.25,-186 348.25,-180 354.25,-174 360.25,-174 360.25,-174 446.75,-174 446.75,-174 452.75,-174 458.75,-180 458.75,-186 458.75,-186 458.75,-198 458.75,-198 458.75,-204 452.75,-210 446.75,-210"/>
<text xml:space="preserve" text-anchor="middle" x="403.5" y="-193.55" font-family="Helvetica,sans-Serif" font-size="11.00">WorkflowRunner</text>
<text xml:space="preserve" text-anchor="middle" x="403.5" y="-181.55" font-family="Helvetica,sans-Serif" font-size="11.00">dependency guards</text>
</g>
<!-- req_step&#45;&gt;runner -->
<g id="edge2" class="edge">
<title>req_step&#45;&gt;runner</title>
<path fill="none" stroke="#475569" stroke-width="1.25" d="M159.45,-192C213.25,-192 286.79,-192 338.85,-192"/>
<polygon fill="#475569" stroke="#475569" stroke-width="1.25" points="338.6,-194.63 346.1,-192 338.6,-189.38 338.6,-194.63"/>
<text xml:space="preserve" text-anchor="middle" x="237.88" y="-193.2" font-family="Helvetica,sans-Serif" font-size="9.00">implemented by</text>
</g>
<!-- req_log -->
<g id="node3" class="node">
<title>req_log</title>
<path fill="#e0f2fe" stroke="#0ea5e9" stroke-width="1.25" d="M135.88,-131C135.88,-131 40.38,-131 40.38,-131 34.38,-131 28.38,-125 28.38,-119 28.38,-119 28.38,-107 28.38,-107 28.38,-101 34.38,-95 40.38,-95 40.38,-95 135.88,-95 135.88,-95 141.88,-95 147.88,-101 147.88,-107 147.88,-107 147.88,-119 147.88,-119 147.88,-125 141.88,-131 135.88,-131"/>
<text xml:space="preserve" text-anchor="middle" x="88.12" y="-114.55" font-family="Helvetica,sans-Serif" font-size="11.00">REQ&#45;LOG</text>
<text xml:space="preserve" text-anchor="middle" x="88.12" y="-102.55" font-family="Helvetica,sans-Serif" font-size="11.00">present technical logs</text>
</g>
<!-- logcapture -->
<g id="node7" class="node">
<title>logcapture</title>
<path fill="#dcfce7" stroke="#22c55e" stroke-width="1.25" d="M447.5,-131C447.5,-131 359.5,-131 359.5,-131 353.5,-131 347.5,-125 347.5,-119 347.5,-119 347.5,-107 347.5,-107 347.5,-101 353.5,-95 359.5,-95 359.5,-95 447.5,-95 447.5,-95 453.5,-95 459.5,-101 459.5,-107 459.5,-107 459.5,-119 459.5,-119 459.5,-125 453.5,-131 447.5,-131"/>
<text xml:space="preserve" text-anchor="middle" x="403.5" y="-114.55" font-family="Helvetica,sans-Serif" font-size="11.00">LogCapture</text>
<text xml:space="preserve" text-anchor="middle" x="403.5" y="-102.55" font-family="Helvetica,sans-Serif" font-size="11.00">stdout/stderr routing</text>
</g>
<!-- req_log&#45;&gt;logcapture -->
<g id="edge3" class="edge">
<title>req_log&#45;&gt;logcapture</title>
<path fill="none" stroke="#475569" stroke-width="1.25" d="M148.44,-113C202.56,-113 282.37,-113 338.04,-113"/>
<polygon fill="#475569" stroke="#475569" stroke-width="1.25" points="337.72,-115.63 345.22,-113 337.72,-110.38 337.72,-115.63"/>
<text xml:space="preserve" text-anchor="middle" x="237.88" y="-114.2" font-family="Helvetica,sans-Serif" font-size="9.00">implemented by</text>
</g>
<!-- req_art -->
<g id="node4" class="node">
<title>req_art</title>
<path fill="#bae6fd" stroke="#0284c7" stroke-width="1.25" d="M138.12,-52C138.12,-52 38.12,-52 38.12,-52 32.12,-52 26.12,-46 26.12,-40 26.12,-40 26.12,-28 26.12,-28 26.12,-22 32.12,-16 38.12,-16 38.12,-16 138.12,-16 138.12,-16 144.12,-16 150.12,-22 150.12,-28 150.12,-28 150.12,-40 150.12,-40 150.12,-46 144.12,-52 138.12,-52"/>
<text xml:space="preserve" text-anchor="middle" x="88.12" y="-35.55" font-family="Helvetica,sans-Serif" font-size="11.00">REQ&#45;ART</text>
<text xml:space="preserve" text-anchor="middle" x="88.12" y="-23.55" font-family="Helvetica,sans-Serif" font-size="11.00">expose output artifacts</text>
</g>
<!-- artifact -->
<g id="node8" class="node">
<title>artifact</title>
<path fill="#bbf7d0" stroke="#16a34a" stroke-width="1.25" d="M430.25,-52C430.25,-52 376.75,-52 376.75,-52 370.75,-52 364.75,-46 364.75,-40 364.75,-40 364.75,-28 364.75,-28 364.75,-22 370.75,-16 376.75,-16 376.75,-16 430.25,-16 430.25,-16 436.25,-16 442.25,-22 442.25,-28 442.25,-28 442.25,-40 442.25,-40 442.25,-46 436.25,-52 430.25,-52"/>
<text xml:space="preserve" text-anchor="middle" x="403.5" y="-35.55" font-family="Helvetica,sans-Serif" font-size="11.00">ArtifactPanel</text>
<text xml:space="preserve" text-anchor="middle" x="403.5" y="-23.55" font-family="Helvetica,sans-Serif" font-size="11.00">/output links</text>
</g>
<!-- req_art&#45;&gt;artifact -->
<g id="edge4" class="edge">
<title>req_art&#45;&gt;artifact</title>
<path fill="none" stroke="#475569" stroke-width="1.25" d="M150.66,-34C210.65,-34 300.58,-34 355.17,-34"/>
<polygon fill="#475569" stroke="#475569" stroke-width="1.25" points="354.89,-36.63 362.39,-34 354.89,-31.38 354.89,-36.63"/>
<text xml:space="preserve" text-anchor="middle" x="237.88" y="-35.2" font-family="Helvetica,sans-Serif" font-size="9.00">implemented by</text>
</g>
<!-- vitest -->
<g id="node10" class="node">
<title>vitest</title>
<path fill="#fef3c7" stroke="#f59e0b" stroke-width="1.25" d="M827.38,-289C827.38,-289 757.38,-289 757.38,-289 751.38,-289 745.38,-283 745.38,-277 745.38,-277 745.38,-265 745.38,-265 745.38,-259 751.38,-253 757.38,-253 757.38,-253 827.38,-253 827.38,-253 833.38,-253 839.38,-259 839.38,-265 839.38,-265 839.38,-277 839.38,-277 839.38,-283 833.38,-289 827.38,-289"/>
<text xml:space="preserve" text-anchor="middle" x="792.38" y="-272.55" font-family="Helvetica,sans-Serif" font-size="11.00">Vitest</text>
<text xml:space="preserve" text-anchor="middle" x="792.38" y="-260.55" font-family="Helvetica,sans-Serif" font-size="11.00">frontend helpers</text>
</g>
<!-- params&#45;&gt;vitest -->
<g id="edge5" class="edge">
<title>params&#45;&gt;vitest</title>
<path fill="none" stroke="#475569" stroke-width="1.25" d="M466.66,-271C540.96,-271 664.2,-271 735.58,-271"/>
<polygon fill="#475569" stroke="#475569" stroke-width="1.25" points="735.47,-273.63 742.97,-271 735.47,-268.38 735.47,-273.63"/>
<text xml:space="preserve" text-anchor="middle" x="586.25" y="-272.2" font-family="Helvetica,sans-Serif" font-size="9.00">helper coverage</text>
</g>
<!-- pytest -->
<g id="node9" class="node">
<title>pytest</title>
<path fill="#fde68a" stroke="#d97706" stroke-width="1.25" d="M829.25,-210C829.25,-210 755.5,-210 755.5,-210 749.5,-210 743.5,-204 743.5,-198 743.5,-198 743.5,-186 743.5,-186 743.5,-180 749.5,-174 755.5,-174 755.5,-174 829.25,-174 829.25,-174 835.25,-174 841.25,-180 841.25,-186 841.25,-186 841.25,-198 841.25,-198 841.25,-204 835.25,-210 829.25,-210"/>
<text xml:space="preserve" text-anchor="middle" x="792.38" y="-193.55" font-family="Helvetica,sans-Serif" font-size="11.00">pytest tests</text>
<text xml:space="preserve" text-anchor="middle" x="792.38" y="-181.55" font-family="Helvetica,sans-Serif" font-size="11.00">backend contract</text>
</g>
<!-- runner&#45;&gt;pytest -->
<g id="edge6" class="edge">
<title>runner&#45;&gt;pytest</title>
<path fill="none" stroke="#475569" stroke-width="1.25" d="M459.11,-192C531.82,-192 659.83,-192 733.94,-192"/>
<polygon fill="#475569" stroke="#475569" stroke-width="1.25" points="733.75,-194.63 741.25,-192 733.75,-189.38 733.75,-194.63"/>
<text xml:space="preserve" text-anchor="middle" x="586.25" y="-193.2" font-family="Helvetica,sans-Serif" font-size="9.00">contract coverage</text>
</g>
<!-- smoke -->
<g id="node12" class="node">
<title>smoke</title>
<path fill="#ffedd5" stroke="#ea580c" stroke-width="1.25" d="M835.62,-131C835.62,-131 749.12,-131 749.12,-131 743.12,-131 737.12,-125 737.12,-119 737.12,-119 737.12,-107 737.12,-107 737.12,-101 743.12,-95 749.12,-95 749.12,-95 835.62,-95 835.62,-95 841.62,-95 847.62,-101 847.62,-107 847.62,-107 847.62,-119 847.62,-119 847.62,-125 841.62,-131 835.62,-131"/>
<text xml:space="preserve" text-anchor="middle" x="792.38" y="-114.55" font-family="Helvetica,sans-Serif" font-size="11.00">API/browser smoke</text>
<text xml:space="preserve" text-anchor="middle" x="792.38" y="-102.55" font-family="Helvetica,sans-Serif" font-size="11.00">session creation</text>
</g>
<!-- logcapture&#45;&gt;smoke -->
<g id="edge7" class="edge">
<title>logcapture&#45;&gt;smoke</title>
<path fill="none" stroke="#475569" stroke-width="1.25" d="M459.93,-113C530.66,-113 652.75,-113 727.37,-113"/>
<polygon fill="#475569" stroke="#475569" stroke-width="1.25" points="727.28,-115.63 734.78,-113 727.28,-110.38 727.28,-115.63"/>
<text xml:space="preserve" text-anchor="middle" x="586.25" y="-114.2" font-family="Helvetica,sans-Serif" font-size="9.00">runtime observation</text>
</g>
<!-- build -->
<g id="node11" class="node">
<title>build</title>
<path fill="#fef3c7" stroke="#f59e0b" stroke-width="1.25" d="M830,-52C830,-52 754.75,-52 754.75,-52 748.75,-52 742.75,-46 742.75,-40 742.75,-40 742.75,-28 742.75,-28 742.75,-22 748.75,-16 754.75,-16 754.75,-16 830,-16 830,-16 836,-16 842,-22 842,-28 842,-28 842,-40 842,-40 842,-46 836,-52 830,-52"/>
<text xml:space="preserve" text-anchor="middle" x="792.38" y="-35.55" font-family="Helvetica,sans-Serif" font-size="11.00">npm run build</text>
<text xml:space="preserve" text-anchor="middle" x="792.38" y="-23.55" font-family="Helvetica,sans-Serif" font-size="11.00">TypeScript + Vite</text>
</g>
<!-- artifact&#45;&gt;build -->
<g id="edge8" class="edge">
<title>artifact&#45;&gt;build</title>
<path fill="none" stroke="#475569" stroke-width="1.25" d="M442.61,-26.33C481.91,-18.43 537.5,-7.25 537.5,-7.25 537.5,-7.25 635,-7.25 635,-7.25 635,-7.25 688.8,-16.45 733.28,-24.06"/>
<polygon fill="#475569" stroke="#475569" stroke-width="1.25" points="732.63,-26.61 740.46,-25.29 733.51,-21.44 732.63,-26.61"/>
<text xml:space="preserve" text-anchor="middle" x="586.25" y="-8.45" font-family="Helvetica,sans-Serif" font-size="9.00">type + bundle validation</text>
</g>
<!-- artifact&#45;&gt;smoke -->
<g id="edge9" class="edge">
<title>artifact&#45;&gt;smoke</title>
<path fill="none" stroke="#475569" stroke-width="1.25" d="M442.65,-41.79C509.01,-55.34 646.32,-83.38 727.44,-99.94"/>
<polygon fill="#475569" stroke="#475569" stroke-width="1.25" points="726.83,-102.5 734.71,-101.43 727.88,-97.36 726.83,-102.5"/>
<text xml:space="preserve" text-anchor="middle" x="586.25" y="-81.78" font-family="Helvetica,sans-Serif" font-size="9.00">URL behavior</text>
</g>
<!-- trace -->
<g id="node13" class="node">
<title>trace</title>
<path fill="#ddd6fe" stroke="#7c3aed" stroke-width="1.25" d="M1168.12,-210C1168.12,-210 1089.12,-210 1089.12,-210 1083.12,-210 1077.12,-204 1077.12,-198 1077.12,-198 1077.12,-186 1077.12,-186 1077.12,-180 1083.12,-174 1089.12,-174 1089.12,-174 1168.12,-174 1168.12,-174 1174.12,-174 1180.12,-180 1180.12,-186 1180.12,-186 1180.12,-198 1180.12,-198 1180.12,-204 1174.12,-210 1168.12,-210"/>
<text xml:space="preserve" text-anchor="middle" x="1128.62" y="-187.55" font-family="Helvetica,sans-Serif" font-size="11.00">Traceability Matrix</text>
</g>
<!-- pytest&#45;&gt;trace -->
<g id="edge10" class="edge">
<title>pytest&#45;&gt;trace</title>
<path fill="none" stroke="#475569" stroke-width="1.25" d="M841.62,-192C901.24,-192 1002.71,-192 1067.39,-192"/>
<polygon fill="#475569" stroke="#475569" stroke-width="1.25" points="1067.26,-194.63 1074.76,-192 1067.26,-189.38 1067.26,-194.63"/>
<text xml:space="preserve" text-anchor="middle" x="980.75" y="-193.2" font-family="Helvetica,sans-Serif" font-size="9.00">evidence</text>
</g>
<!-- vitest&#45;&gt;trace -->
<g id="edge11" class="edge">
<title>vitest&#45;&gt;trace</title>
<path fill="none" stroke="#475569" stroke-width="1.25" d="M839.85,-260.02C899.3,-245.96 1002.36,-221.61 1067.67,-206.17"/>
<polygon fill="#475569" stroke="#475569" stroke-width="1.25" points="1068.08,-208.77 1074.78,-204.49 1066.88,-203.66 1068.08,-208.77"/>
<text xml:space="preserve" text-anchor="middle" x="980.75" y="-232.7" font-family="Helvetica,sans-Serif" font-size="9.00">evidence</text>
</g>
<!-- vv -->
<g id="node16" class="node">
<title>vv</title>
<path fill="#ddd6fe" stroke="#7c3aed" stroke-width="1.25" d="M1198.5,-131C1198.5,-131 1058.75,-131 1058.75,-131 1052.75,-131 1046.75,-125 1046.75,-119 1046.75,-119 1046.75,-107 1046.75,-107 1046.75,-101 1052.75,-95 1058.75,-95 1058.75,-95 1198.5,-95 1198.5,-95 1204.5,-95 1210.5,-101 1210.5,-107 1210.5,-107 1210.5,-119 1210.5,-119 1210.5,-125 1204.5,-131 1198.5,-131"/>
<text xml:space="preserve" text-anchor="middle" x="1128.62" y="-108.55" font-family="Helvetica,sans-Serif" font-size="11.00">Verification and Validation Plan</text>
</g>
<!-- build&#45;&gt;vv -->
<g id="edge12" class="edge">
<title>build&#45;&gt;vv</title>
<path fill="none" stroke="#475569" stroke-width="1.25" d="M842.34,-45.57C894.2,-57.83 977.16,-77.44 1040.28,-92.36"/>
<polygon fill="#475569" stroke="#475569" stroke-width="1.25" points="1039.31,-94.82 1047.21,-93.99 1040.52,-89.71 1039.31,-94.82"/>
<text xml:space="preserve" text-anchor="middle" x="980.75" y="-86.39" font-family="Helvetica,sans-Serif" font-size="9.00">quality gate</text>
</g>
<!-- smoke&#45;&gt;vv -->
<g id="edge13" class="edge">
<title>smoke&#45;&gt;vv</title>
<path fill="none" stroke="#475569" stroke-width="1.25" d="M848.2,-113C899.37,-113 976.69,-113 1037.04,-113"/>
<polygon fill="#475569" stroke="#475569" stroke-width="1.25" points="1036.8,-115.63 1044.3,-113 1036.8,-110.38 1036.8,-115.63"/>
<text xml:space="preserve" text-anchor="middle" x="980.75" y="-114.2" font-family="Helvetica,sans-Serif" font-size="9.00">validation gate</text>
</g>
<!-- risk -->
<g id="node14" class="node">
<title>risk</title>
<path fill="#ede9fe" stroke="#8b5cf6" stroke-width="1.25" d="M1519,-210C1519,-210 1391.25,-210 1391.25,-210 1385.25,-210 1379.25,-204 1379.25,-198 1379.25,-198 1379.25,-186 1379.25,-186 1379.25,-180 1385.25,-174 1391.25,-174 1391.25,-174 1519,-174 1519,-174 1525,-174 1531,-180 1531,-186 1531,-186 1531,-198 1531,-198 1531,-204 1525,-210 1519,-210"/>
<text xml:space="preserve" text-anchor="middle" x="1455.12" y="-187.55" font-family="Helvetica,sans-Serif" font-size="11.00">Risk / Security / Quality Plan</text>
</g>
<!-- trace&#45;&gt;risk -->
<g id="edge14" class="edge">
<title>trace&#45;&gt;risk</title>
<path fill="none" stroke="#475569" stroke-width="1.25" d="M1180.69,-192C1231.36,-192 1309.92,-192 1369.85,-192"/>
<polygon fill="#475569" stroke="#475569" stroke-width="1.25" points="1369.54,-194.63 1377.04,-192 1369.54,-189.38 1369.54,-194.63"/>
<text xml:space="preserve" text-anchor="middle" x="1280.62" y="-193.2" font-family="Helvetica,sans-Serif" font-size="9.00">control mapping</text>
</g>
<!-- change -->
<g id="node15" class="node">
<title>change</title>
<path fill="#ede9fe" stroke="#8b5cf6" stroke-width="1.25" d="M1547.5,-131C1547.5,-131 1362.75,-131 1362.75,-131 1356.75,-131 1350.75,-125 1350.75,-119 1350.75,-119 1350.75,-107 1350.75,-107 1350.75,-101 1356.75,-95 1362.75,-95 1362.75,-95 1547.5,-95 1547.5,-95 1553.5,-95 1559.5,-101 1559.5,-107 1559.5,-107 1559.5,-119 1559.5,-119 1559.5,-125 1553.5,-131 1547.5,-131"/>
<text xml:space="preserve" text-anchor="middle" x="1455.12" y="-108.55" font-family="Helvetica,sans-Serif" font-size="11.00">Configuration and Change Management</text>
</g>
<!-- vv&#45;&gt;change -->
<g id="edge15" class="edge">
<title>vv&#45;&gt;change</title>
<path fill="none" stroke="#475569" stroke-width="1.25" d="M1211.09,-113C1250.36,-113 1298.1,-113 1340.84,-113"/>
<polygon fill="#475569" stroke="#475569" stroke-width="1.25" points="1340.77,-115.63 1348.27,-113 1340.77,-110.38 1340.77,-115.63"/>
<text xml:space="preserve" text-anchor="middle" x="1280.62" y="-114.2" font-family="Helvetica,sans-Serif" font-size="9.00">release baseline</text>
</g>
</g>
</svg>
