<?xml version="1.0" encoding="UTF-8" standalone="no"?>
<!DOCTYPE svg PUBLIC "-//W3C//DTD SVG 1.1//EN"
 "http://www.w3.org/Graphics/SVG/1.1/DTD/svg11.dtd">
<!-- Generated by graphviz version 14.1.5 (20260411.2331)
 -->
<!-- Title: StepDependencyGraph Pages: 1 -->
<svg width="1774pt" height="316pt"
 viewBox="0.00 0.00 1774.00 316.00" xmlns="http://www.w3.org/2000/svg" xmlns:xlink="http://www.w3.org/1999/xlink">
<g id="graph0" class="graph" transform="scale(1 1) rotate(0) translate(25.2 290.95)">
<title>StepDependencyGraph</title>
<polygon fill="#f8fafc" stroke="none" points="-25.2,25.2 -25.2,-290.95 1748.45,-290.95 1748.45,25.2 -25.2,25.2"/>
<text xml:space="preserve" text-anchor="middle" x="861.62" y="-238.95" font-family="Helvetica,sans-Serif" font-weight="bold" font-size="24.00">Workflow Step Dependency Graph</text>
<g id="clust1" class="cluster">
<title>cluster_ingest</title>
<path fill="#eff6ff" stroke="#60a5fa" d="M20,-41C20,-41 315.25,-41 315.25,-41 321.25,-41 327.25,-47 327.25,-53 327.25,-53 327.25,-190 327.25,-190 327.25,-196 321.25,-202 315.25,-202 315.25,-202 20,-202 20,-202 14,-202 8,-196 8,-190 8,-190 8,-53 8,-53 8,-47 14,-41 20,-41"/>
<text xml:space="preserve" text-anchor="middle" x="167.62" y="-175.2" font-family="Helvetica,sans-Serif" font-weight="bold" font-size="24.00">Ingest</text>
</g>
<g id="clust2" class="cluster">
<title>cluster_conditioning</title>
<path fill="#f0fdf4" stroke="#22c55e" d="M461.75,-140C461.75,-140 604.5,-140 604.5,-140 610.5,-140 616.5,-146 616.5,-152 616.5,-152 616.5,-213 616.5,-213 616.5,-219 610.5,-225 604.5,-225 604.5,-225 461.75,-225 461.75,-225 455.75,-225 449.75,-219 449.75,-213 449.75,-213 449.75,-152 449.75,-152 449.75,-146 455.75,-140 461.75,-140"/>
<text xml:space="preserve" text-anchor="middle" x="533.12" y="-198.2" font-family="Helvetica,sans-Serif" font-weight="bold" font-size="24.00">Conditioning</text>
</g>
<g id="clust3" class="cluster">
<title>cluster_sampling</title>
<path fill="#fffbeb" stroke="#f59e0b" d="M718,-42C718,-42 1290.75,-42 1290.75,-42 1296.75,-42 1302.75,-48 1302.75,-54 1302.75,-54 1302.75,-129 1302.75,-129 1302.75,-135 1296.75,-141 1290.75,-141 1290.75,-141 718,-141 718,-141 712,-141 706,-135 706,-129 706,-129 706,-54 706,-54 706,-48 712,-42 718,-42"/>
<text xml:space="preserve" text-anchor="middle" x="1004.38" y="-114.2" font-family="Helvetica,sans-Serif" font-weight="bold" font-size="24.00">Sampling</text>
</g>
<g id="clust4" class="cluster">
<title>cluster_output</title>
<path fill="#f5f3ff" stroke="#a78bfa" d="M1414,-8C1414,-8 1703.25,-8 1703.25,-8 1709.25,-8 1715.25,-14 1715.25,-20 1715.25,-20 1715.25,-95 1715.25,-95 1715.25,-101 1709.25,-107 1703.25,-107 1703.25,-107 1414,-107 1414,-107 1408,-107 1402,-101 1402,-95 1402,-95 1402,-20 1402,-20 1402,-14 1408,-8 1414,-8"/>
<text xml:space="preserve" text-anchor="middle" x="1558.62" y="-80.2" font-family="Helvetica,sans-Serif" font-weight="bold" font-size="24.00">Decode and Export</text>
</g>
<!-- load_pipeline -->
<g id="node1" class="node">
<title>load_pipeline</title>
<path fill="#bfdbfe" stroke="#2563eb" stroke-width="1.25" d="M92.75,-85C92.75,-85 28,-85 28,-85 22,-85 16,-79 16,-73 16,-73 16,-61 16,-61 16,-55 22,-49 28,-49 28,-49 92.75,-49 92.75,-49 98.75,-49 104.75,-55 104.75,-61 104.75,-61 104.75,-73 104.75,-73 104.75,-79 98.75,-85 92.75,-85"/>
<text xml:space="preserve" text-anchor="middle" x="60.38" y="-68.55" font-family="Helvetica,sans-Serif" font-size="11.00">load_pipeline</text>
<text xml:space="preserve" text-anchor="middle" x="60.38" y="-56.55" font-family="Helvetica,sans-Serif" font-size="11.00">model + device</text>
</g>
<!-- conditioning -->
<g id="node4" class="node">
<title>conditioning</title>
<path fill="#bbf7d0" stroke="#16a34a" stroke-width="1.25" d="M571.38,-184C571.38,-184 493.88,-184 493.88,-184 487.88,-184 481.88,-178 481.88,-172 481.88,-172 481.88,-160 481.88,-160 481.88,-154 487.88,-148 493.88,-148 493.88,-148 571.38,-148 571.38,-148 577.38,-148 583.38,-154 583.38,-160 583.38,-160 583.38,-172 583.38,-172 583.38,-178 577.38,-184 571.38,-184"/>
<text xml:space="preserve" text-anchor="middle" x="532.62" y="-167.55" font-family="Helvetica,sans-Serif" font-size="11.00">build_conditioning</text>
<text xml:space="preserve" text-anchor="middle" x="532.62" y="-155.55" font-family="Helvetica,sans-Serif" font-size="11.00">image features</text>
</g>
<!-- load_pipeline&#45;&gt;conditioning -->
<g id="edge1" class="edge">
<title>load_pipeline&#45;&gt;conditioning</title>
<path fill="none" stroke="#475569" stroke-width="1.2" d="M82.55,-85.55C93.56,-95.2 104.75,-105 104.75,-105 104.75,-105 138.75,-163 138.75,-163 138.75,-163 213.25,-181 213.25,-181 213.25,-181 327.25,-181 327.25,-181 327.25,-181 423.75,-176 423.75,-176 423.75,-176 447.19,-173.83 472.22,-171.51"/>
<polygon fill="#475569" stroke="#475569" stroke-width="1.2" points="472.44,-174.12 479.67,-170.82 471.96,-168.89 472.44,-174.12"/>
<text xml:space="preserve" text-anchor="middle" x="266.25" y="-182.2" font-family="Helvetica,sans-Serif" font-size="9.00">pipeline ready</text>
</g>
<!-- sparse -->
<g id="node5" class="node">
<title>sparse</title>
<path fill="#fde68a" stroke="#d97706" stroke-width="1.25" d="M838.75,-86C838.75,-86 726,-86 726,-86 720,-86 714,-80 714,-74 714,-74 714,-62 714,-62 714,-56 720,-50 726,-50 726,-50 838.75,-50 838.75,-50 844.75,-50 850.75,-56 850.75,-62 850.75,-62 850.75,-74 850.75,-74 850.75,-80 844.75,-86 838.75,-86"/>
<text xml:space="preserve" text-anchor="middle" x="782.38" y="-69.55" font-family="Helvetica,sans-Serif" font-size="11.00">sample_sparse_structure</text>
<text xml:space="preserve" text-anchor="middle" x="782.38" y="-57.55" font-family="Helvetica,sans-Serif" font-size="11.00">voxel coordinates</text>
</g>
<!-- load_pipeline&#45;&gt;sparse -->
<g id="edge2" class="edge">
<title>load_pipeline&#45;&gt;sparse</title>
<path fill="none" stroke="#475569" stroke-width="1.2" d="M105.33,-67.06C224.28,-67.23 553.64,-67.68 704.32,-67.89"/>
<polygon fill="#475569" stroke="#475569" stroke-width="1.2" points="704.23,-70.52 711.73,-67.9 704.24,-65.27 704.23,-70.52"/>
<text xml:space="preserve" text-anchor="middle" x="388.5" y="-68.7" font-family="Helvetica,sans-Serif" font-size="9.00">samplers ready</text>
</g>
<!-- load_image -->
<g id="node2" class="node">
<title>load_image</title>
<path fill="#dbeafe" stroke="#3b82f6" stroke-width="1.25" d="M88.62,-161C88.62,-161 32.13,-161 32.13,-161 26.13,-161 20.12,-155 20.12,-149 20.12,-149 20.12,-137 20.12,-137 20.12,-131 26.12,-125 32.12,-125 32.12,-125 88.62,-125 88.62,-125 94.62,-125 100.62,-131 100.62,-137 100.62,-137 100.62,-149 100.62,-149 100.62,-155 94.62,-161 88.62,-161"/>
<text xml:space="preserve" text-anchor="middle" x="60.38" y="-144.55" font-family="Helvetica,sans-Serif" font-size="11.00">load_image</text>
<text xml:space="preserve" text-anchor="middle" x="60.38" y="-132.55" font-family="Helvetica,sans-Serif" font-size="11.00">source image</text>
</g>
<!-- preprocess -->
<g id="node3" class="node">
<title>preprocess</title>
<path fill="#dbeafe" stroke="#3b82f6" stroke-width="1.25" d="M307.25,-161C307.25,-161 225.25,-161 225.25,-161 219.25,-161 213.25,-155 213.25,-149 213.25,-149 213.25,-137 213.25,-137 213.25,-131 219.25,-125 225.25,-125 225.25,-125 307.25,-125 307.25,-125 313.25,-125 319.25,-131 319.25,-137 319.25,-137 319.25,-149 319.25,-149 319.25,-155 313.25,-161 307.25,-161"/>
<text xml:space="preserve" text-anchor="middle" x="266.25" y="-144.55" font-family="Helvetica,sans-Serif" font-size="11.00">preprocess_image</text>
<text xml:space="preserve" text-anchor="middle" x="266.25" y="-132.55" font-family="Helvetica,sans-Serif" font-size="11.00">background + crop</text>
</g>
<!-- load_image&#45;&gt;preprocess -->
<g id="edge3" class="edge">
<title>load_image&#45;&gt;preprocess</title>
<path fill="none" stroke="#475569" stroke-width="1.2" d="M101.17,-143C130.3,-143 170.37,-143 203.63,-143"/>
<polygon fill="#475569" stroke="#475569" stroke-width="1.2" points="203.49,-145.63 210.99,-143 203.49,-140.38 203.49,-145.63"/>
<text xml:space="preserve" text-anchor="middle" x="159" y="-144.2" font-family="Helvetica,sans-Serif" font-size="9.00">PIL image</text>
</g>
<!-- preprocess&#45;&gt;conditioning -->
<g id="edge4" class="edge">
<title>preprocess&#45;&gt;conditioning</title>
<path fill="none" stroke="#475569" stroke-width="1.2" d="M319.8,-147.57C363.75,-151.4 426.44,-156.85 472.21,-160.83"/>
<polygon fill="#475569" stroke="#475569" stroke-width="1.2" points="471.91,-163.44 479.61,-161.47 472.36,-158.21 471.91,-163.44"/>
<text xml:space="preserve" text-anchor="middle" x="388.5" y="-157.76" font-family="Helvetica,sans-Serif" font-size="9.00">processed image</text>
</g>
<!-- conditioning&#45;&gt;sparse -->
<g id="edge5" class="edge">
<title>conditioning&#45;&gt;sparse</title>
<path fill="none" stroke="#475569" stroke-width="1.2" d="M580.52,-147.45C621.94,-131.06 682.4,-107.15 726.16,-89.84"/>
<polygon fill="#475569" stroke="#475569" stroke-width="1.2" points="726.98,-92.34 732.99,-87.14 725.05,-87.46 726.98,-92.34"/>
<text xml:space="preserve" text-anchor="middle" x="661.25" y="-124.07" font-family="Helvetica,sans-Serif" font-size="9.00">condition</text>
</g>
<!-- shape -->
<g id="node6" class="node">
<title>shape</title>
<path fill="#fef3c7" stroke="#f59e0b" stroke-width="1.25" d="M1052.5,-100C1052.5,-100 968.25,-100 968.25,-100 962.25,-100 956.25,-94 956.25,-88 956.25,-88 956.25,-76 956.25,-76 956.25,-70 962.25,-64 968.25,-64 968.25,-64 1052.5,-64 1052.5,-64 1058.5,-64 1064.5,-70 1064.5,-76 1064.5,-76 1064.5,-88 1064.5,-88 1064.5,-94 1058.5,-100 1052.5,-100"/>
<text xml:space="preserve" text-anchor="middle" x="1010.38" y="-83.55" font-family="Helvetica,sans-Serif" font-size="11.00">sample_shape_slat</text>
<text xml:space="preserve" text-anchor="middle" x="1010.38" y="-71.55" font-family="Helvetica,sans-Serif" font-size="11.00">geometry latent</text>
</g>
<!-- conditioning&#45;&gt;shape -->
<g id="edge7" class="edge">
<title>conditioning&#45;&gt;shape</title>
<path fill="none" stroke="#475569" stroke-width="1.2" d="M584,-157.4C626.34,-150.16 680,-141 680,-141 680,-141 851.17,-110.34 946.72,-93.22"/>
<polygon fill="#475569" stroke="#475569" stroke-width="1.2" points="947.01,-95.84 953.93,-91.93 946.09,-90.67 947.01,-95.84"/>
<text xml:space="preserve" text-anchor="middle" x="782.38" y="-137.27" font-family="Helvetica,sans-Serif" font-size="9.00">condition</text>
</g>
<!-- texture -->
<g id="node7" class="node">
<title>texture</title>
<path fill="#fef3c7" stroke="#f59e0b" stroke-width="1.25" d="M1282.75,-100C1282.75,-100 1194.75,-100 1194.75,-100 1188.75,-100 1182.75,-94 1182.75,-88 1182.75,-88 1182.75,-76 1182.75,-76 1182.75,-70 1188.75,-64 1194.75,-64 1194.75,-64 1282.75,-64 1282.75,-64 1288.75,-64 1294.75,-70 1294.75,-76 1294.75,-76 1294.75,-88 1294.75,-88 1294.75,-94 1288.75,-100 1282.75,-100"/>
<text xml:space="preserve" text-anchor="middle" x="1238.75" y="-83.55" font-family="Helvetica,sans-Serif" font-size="11.00">sample_texture_slat</text>
<text xml:space="preserve" text-anchor="middle" x="1238.75" y="-71.55" font-family="Helvetica,sans-Serif" font-size="11.00">texture latent</text>
</g>
<!-- conditioning&#45;&gt;texture -->
<g id="edge9" class="edge">
<title>conditioning&#45;&gt;texture</title>
<path fill="none" stroke="#475569" stroke-width="1.2" d="M583.92,-170.16C612.45,-172.52 642.5,-175 642.5,-175 642.5,-175 680,-175 680,-175 680,-175 850.75,-156 850.75,-156 850.75,-156 1064.5,-120 1064.5,-120 1064.5,-120 1148.75,-102 1148.75,-102 1148.75,-102 1159.31,-99.63 1173.16,-96.51"/>
<polygon fill="#475569" stroke="#475569" stroke-width="1.2" points="1173.63,-99.1 1180.37,-94.89 1172.48,-93.98 1173.63,-99.1"/>
<text xml:space="preserve" text-anchor="middle" x="903.5" y="-151.42" font-family="Helvetica,sans-Serif" font-size="9.00">condition</text>
</g>
<!-- sparse&#45;&gt;shape -->
<g id="edge6" class="edge">
<title>sparse&#45;&gt;shape</title>
<path fill="none" stroke="#475569" stroke-width="1.2" d="M851.18,-72.2C881.58,-74.08 917.21,-76.29 946.95,-78.13"/>
<polygon fill="#475569" stroke="#475569" stroke-width="1.2" points="946.51,-80.74 954.16,-78.58 946.84,-75.5 946.51,-80.74"/>
<text xml:space="preserve" text-anchor="middle" x="903.5" y="-77.45" font-family="Helvetica,sans-Serif" font-size="9.00">coords</text>
</g>
<!-- shape&#45;&gt;texture -->
<g id="edge8" class="edge">
<title>shape&#45;&gt;texture</title>
<path fill="none" stroke="#475569" stroke-width="1.2" d="M1065.02,-82C1097.55,-82 1139.24,-82 1173.52,-82"/>
<polygon fill="#475569" stroke="#475569" stroke-width="1.2" points="1173.2,-84.63 1180.7,-82 1173.2,-79.38 1173.2,-84.63"/>
<text xml:space="preserve" text-anchor="middle" x="1123.62" y="-83.2" font-family="Helvetica,sans-Serif" font-size="9.00">shape latent</text>
</g>
<!-- decode -->
<g id="node8" class="node">
<title>decode</title>
<path fill="#ddd6fe" stroke="#7c3aed" stroke-width="1.25" d="M1489.75,-66C1489.75,-66 1422,-66 1422,-66 1416,-66 1410,-60 1410,-54 1410,-54 1410,-42 1410,-42 1410,-36 1416,-30 1422,-30 1422,-30 1489.75,-30 1489.75,-30 1495.75,-30 1501.75,-36 1501.75,-42 1501.75,-42 1501.75,-54 1501.75,-54 1501.75,-60 1495.75,-66 1489.75,-66"/>
<text xml:space="preserve" text-anchor="middle" x="1455.88" y="-49.55" font-family="Helvetica,sans-Serif" font-size="11.00">decode_mesh</text>
<text xml:space="preserve" text-anchor="middle" x="1455.88" y="-37.55" font-family="Helvetica,sans-Serif" font-size="11.00">mesh extraction</text>
</g>
<!-- shape&#45;&gt;decode -->
<g id="edge10" class="edge">
<title>shape&#45;&gt;decode</title>
<path fill="none" stroke="#475569" stroke-width="1.2" d="M1064.66,-67.15C1114.97,-53.14 1182.75,-34.25 1182.75,-34.25 1182.75,-34.25 1302.75,-34.25 1302.75,-34.25 1302.75,-34.25 1356.83,-39.14 1400.51,-43.09"/>
<polygon fill="#475569" stroke="#475569" stroke-width="1.2" points="1400.13,-45.69 1407.84,-43.75 1400.6,-40.46 1400.13,-45.69"/>
<text xml:space="preserve" text-anchor="middle" x="1238.75" y="-35.45" font-family="Helvetica,sans-Serif" font-size="9.00">geometry</text>
</g>
<!-- texture&#45;&gt;decode -->
<g id="edge11" class="edge">
<title>texture&#45;&gt;decode</title>
<path fill="none" stroke="#475569" stroke-width="1.2" d="M1295.15,-73.24C1327.58,-68.12 1368.36,-61.67 1400.6,-56.58"/>
<polygon fill="#475569" stroke="#475569" stroke-width="1.2" points="1400.66,-59.23 1407.65,-55.46 1399.84,-54.04 1400.66,-59.23"/>
<text xml:space="preserve" text-anchor="middle" x="1352.38" y="-68.24" font-family="Helvetica,sans-Serif" font-size="9.00">texture attrs</text>
</g>
<!-- export -->
<g id="node9" class="node">
<title>export</title>
<path fill="#ede9fe" stroke="#8b5cf6" stroke-width="1.25" d="M1695.25,-66C1695.25,-66 1604.25,-66 1604.25,-66 1598.25,-66 1592.25,-60 1592.25,-54 1592.25,-54 1592.25,-42 1592.25,-42 1592.25,-36 1598.25,-30 1604.25,-30 1604.25,-30 1695.25,-30 1695.25,-30 1701.25,-30 1707.25,-36 1707.25,-42 1707.25,-42 1707.25,-54 1707.25,-54 1707.25,-60 1701.25,-66 1695.25,-66"/>
<text xml:space="preserve" text-anchor="middle" x="1649.75" y="-49.55" font-family="Helvetica,sans-Serif" font-size="11.00">export_model</text>
<text xml:space="preserve" text-anchor="middle" x="1649.75" y="-37.55" font-family="Helvetica,sans-Serif" font-size="11.00">GLB / OBJ / textures</text>
</g>
<!-- decode&#45;&gt;export -->
<g id="edge12" class="edge">
<title>decode&#45;&gt;export</title>
<path fill="none" stroke="#475569" stroke-width="1.2" d="M1502.35,-48C1526.34,-48 1556.21,-48 1582.71,-48"/>
<polygon fill="#475569" stroke="#475569" stroke-width="1.2" points="1582.61,-50.63 1590.11,-48 1582.61,-45.38 1582.61,-50.63"/>
<text xml:space="preserve" text-anchor="middle" x="1547" y="-49.2" font-family="Helvetica,sans-Serif" font-size="9.00">mesh</text>
</g>
</g>
</svg>
